<?xml version="1.0" encoding="UTF-8" standalone="no"?>
<!DOCTYPE svg PUBLIC "-//W3C//DTD SVG 1.1//EN"
 "http://www.w3.org/Graphics/SVG/1.1/DTD/svg11.dtd">
<!-- Generated by graphviz version 2.46.0 (20210118.1747)
 -->
<!-- Title: CSmajor Pages: 1 -->
<svg width="1797pt" height="931pt"
 viewBox="0.00 0.00 1796.69 931.00" xmlns="http://www.w3.org/2000/svg" xmlns:xlink="http://www.w3.org/1999/xlink">
<g id="graph0" class="graph" transform="scale(1 1) rotate(0) translate(4 927)">
<title>CSmajor</title>
<polygon fill="white" stroke="transparent" points="-4,4 -4,-927 1792.69,-927 1792.69,4 -4,4"/>
<g id="clust1" class="cluster">
<title>cluster_math</title>
<polygon fill="none" stroke="black" stroke-width="2" points="1167.19,-836 1167.19,-915 1292.19,-915 1292.19,-836 1167.19,-836"/>
<text text-anchor="middle" x="1229.69" y="-899.8" font-family="Arial" font-size="14.00">?? Placement ??</text>
</g>
<g id="clust2" class="cluster">
<title>cluster_softeng</title>
<polygon fill="none" stroke="black" stroke-width="2" points="732.19,-186 732.19,-428 956.19,-428 956.19,-186 732.19,-186"/>
<text text-anchor="middle" x="844.19" y="-412.8" font-family="Arial" font-size="14.00">Senior Capstone Sequence</text>
</g>
<g id="clust3" class="cluster">
<title>cluster_electives</title>
<polygon fill="none" stroke="black" stroke-width="2" points="456.19,-8 456.19,-464 568.19,-464 568.19,-8 456.19,-8"/>
<text text-anchor="middle" x="512.19" y="-448.8" font-family="Arial" font-size="14.00">Example</text>
<text text-anchor="middle" x="512.19" y="-433.8" font-family="Arial" font-size="14.00">CS Major</text>
<text text-anchor="middle" x="512.19" y="-418.8" font-family="Arial" font-size="14.00">Electives</text>
<text text-anchor="middle" x="512.19" y="-403.8" font-family="Arial" font-size="14.00">(12 credits)</text>
</g>
<!-- CS120 -->
<g id="node1" class="node">
<title>CS120</title>
<polygon fill="none" stroke="blue" stroke-width="2" points="297.19,-910 191.19,-910 191.19,-818 297.19,-818 297.19,-910"/>
<text text-anchor="start" x="217.19" y="-894.2" font-family="Arial" font-weight="bold" font-size="16.00">CS 120</text>
<text text-anchor="start" x="210.19" y="-869.2" font-family="Arial" font-size="16.00">Computer</text>
<text text-anchor="start" x="208.69" y="-851.2" font-family="Arial" font-size="16.00">Science 1</text>
<text text-anchor="start" x="195.19" y="-828.2" font-family="Arial" font-style="italic" font-size="16.00">4 credit hours</text>
</g>
<!-- CS121 -->
<g id="node6" class="node">
<title>CS121</title>
<polygon fill="none" stroke="blue" stroke-width="2" points="351.19,-767 245.19,-767 245.19,-675 351.19,-675 351.19,-767"/>
<text text-anchor="start" x="271.19" y="-751.2" font-family="Arial" font-weight="bold" font-size="16.00">CS 121</text>
<text text-anchor="start" x="264.19" y="-726.2" font-family="Arial" font-size="16.00">Computer</text>
<text text-anchor="start" x="262.69" y="-708.2" font-family="Arial" font-size="16.00">Science 2</text>
<text text-anchor="start" x="249.19" y="-685.2" font-family="Arial" font-style="italic" font-size="16.00">4 credit hours</text>
</g>
<!-- CS120&#45;&gt;CS121 -->
<g id="edge1" class="edge">
<title>CS120&#45;&gt;CS121</title>
<path fill="none" stroke="black" stroke-width="2" d="M274.77,-817.91C277.94,-812.05 280.85,-805.99 283.19,-800 286.01,-792.77 288.32,-784.96 290.2,-777.16"/>
<polygon fill="black" stroke="black" stroke-width="2" points="293.63,-777.86 292.36,-767.34 286.79,-776.35 293.63,-777.86"/>
</g>
<!-- CS124 -->
<g id="node7" class="node">
<title>CS124</title>
<polygon fill="none" stroke="blue" stroke-width="2" points="226.69,-755 145.69,-755 145.69,-687 226.69,-687 226.69,-755"/>
<text text-anchor="start" x="159.69" y="-739.2" font-family="Arial" font-weight="bold" font-size="16.00">CS 124</text>
<text text-anchor="start" x="156.69" y="-714.2" font-family="Arial" font-size="16.00">Discrete</text>
<text text-anchor="start" x="150.19" y="-696.2" font-family="Arial" font-size="16.00">Structures</text>
</g>
<!-- CS120&#45;&gt;CS124 -->
<g id="edge2" class="edge">
<title>CS120&#45;&gt;CS124</title>
<path fill="none" stroke="black" stroke-width="2" stroke-dasharray="5,2" d="M196.8,-817.75C192.95,-812.13 189.62,-806.18 187.19,-800 182.98,-789.29 181.46,-777.09 181.3,-765.58"/>
<polygon fill="black" stroke="black" stroke-width="2" points="184.81,-765.32 181.5,-755.26 177.81,-765.19 184.81,-765.32"/>
<text text-anchor="middle" x="233.19" y="-789.4" font-family="Arial" font-size="12.00"> prereq or parallel</text>
<polyline fill="none" stroke="black" points="279.19,-786 187.19,-786 196.44,-817.22 "/>
</g>
<!-- HIST150 -->
<g id="node2" class="node">
<title>HIST150</title>
<polygon fill="none" stroke="red" stroke-width="2" points="875.69,-898 782.69,-898 782.69,-830 875.69,-830 875.69,-898"/>
<text text-anchor="start" x="796.19" y="-882.2" font-family="Arial" font-weight="bold" font-size="16.00">HIST 150</text>
<text text-anchor="start" x="787.19" y="-857.2" font-family="Arial" font-size="16.00">The West in</text>
<text text-anchor="start" x="795.69" y="-839.2" font-family="Arial" font-size="16.00">the World</text>
</g>
<!-- UCCPFIN -->
<g id="node3" class="node">
<title>UCCPFIN</title>
<polygon fill="none" stroke="red" stroke-width="2" points="992.19,-896 894.19,-896 894.19,-832 992.19,-832 992.19,-896"/>
<text text-anchor="start" x="909.69" y="-880.2" font-family="Arial" font-weight="bold" font-size="16.00">Personal</text>
<text text-anchor="start" x="912.69" y="-864.2" font-family="Arial" font-weight="bold" font-size="16.00">Finance</text>
<text text-anchor="start" x="898.19" y="-842.2" font-family="Arial" font-style="italic" font-size="16.00">1 credit hour</text>
</g>
<!-- UCCPFW -->
<g id="node4" class="node">
<title>UCCPFW</title>
<polygon fill="none" stroke="red" stroke-width="2" points="1157.69,-896 1010.69,-896 1010.69,-832 1157.69,-832 1157.69,-896"/>
<text text-anchor="start" x="1052.69" y="-880.2" font-family="Arial" font-weight="bold" font-size="16.00">Physcial</text>
<text text-anchor="start" x="1015.19" y="-864.2" font-family="Arial" font-weight="bold" font-size="16.00">Fitness / Wellness</text>
<text text-anchor="start" x="1035.69" y="-842.2" font-family="Arial" font-style="italic" font-size="16.00">2 credit hours</text>
</g>
<!-- MATH114 -->
<g id="node5" class="node">
<title>MATH114</title>
<polygon fill="none" stroke="black" stroke-width="2" points="1278.19,-884 1180.19,-884 1180.19,-844 1278.19,-844 1278.19,-884"/>
<text text-anchor="start" x="1191.19" y="-868.2" font-family="Arial" font-weight="bold" font-size="16.00">MATH 114</text>
<text text-anchor="start" x="1184.19" y="-852.2" font-family="Arial" font-size="16.00">Pre&#45;Calculus</text>
</g>
<!-- MATH161 -->
<g id="node17" class="node">
<title>MATH161</title>
<polygon fill="none" stroke="red" stroke-width="2" points="1214.19,-762 1110.19,-762 1110.19,-680 1214.19,-680 1214.19,-762"/>
<text text-anchor="start" x="1114.19" y="-746.2" font-family="Arial" font-weight="bold" font-size="16.00">MATH 161</text>
<text text-anchor="start" x="1190.19" y="-746.2" font-family="Arial" font-style="italic" font-size="16.00">(3)</text>
<text text-anchor="start" x="1124.19" y="-730.2" font-family="Arial" font-size="16.00">or </text>
<text text-anchor="start" x="1143.19" y="-730.2" font-family="Arial" font-weight="bold" font-size="16.00">165 </text>
<text text-anchor="start" x="1175.19" y="-730.2" font-family="Arial" font-style="italic" font-size="16.00"> (4)</text>
<text text-anchor="start" x="1131.69" y="-707.2" font-family="Arial" font-size="16.00">(Applied)</text>
<text text-anchor="start" x="1125.69" y="-689.2" font-family="Arial" font-size="16.00">Calculus 1</text>
</g>
<!-- MATH114&#45;&gt;MATH161 -->
<g id="edge19" class="edge">
<title>MATH114&#45;&gt;MATH161</title>
<path fill="none" stroke="black" stroke-width="2" d="M1220.15,-843.98C1211.31,-825.37 1197.47,-796.24 1185.52,-771.1"/>
<polygon fill="black" stroke="black" stroke-width="2" points="1188.68,-769.58 1181.22,-762.05 1182.35,-772.59 1188.68,-769.58"/>
</g>
<!-- MATH181 -->
<g id="node19" class="node">
<title>MATH181</title>
<polygon fill="none" stroke="blue" stroke-width="2" points="1329.69,-764 1232.69,-764 1232.69,-678 1329.69,-678 1329.69,-764"/>
<text text-anchor="start" x="1243.69" y="-748.2" font-family="Arial" font-weight="bold" font-size="16.00">MATH 181</text>
<text text-anchor="start" x="1242.19" y="-723.2" font-family="Arial" font-size="16.00">Elementary</text>
<text text-anchor="start" x="1237.19" y="-705.2" font-family="Arial" font-size="16.00">Probability &amp;</text>
<text text-anchor="start" x="1248.69" y="-687.2" font-family="Arial" font-size="16.00">Statistics</text>
</g>
<!-- MATH114&#45;&gt;MATH181 -->
<g id="edge20" class="edge">
<title>MATH114&#45;&gt;MATH181</title>
<path fill="none" stroke="black" stroke-width="2" d="M1236.2,-843.98C1242.84,-826 1253.09,-798.19 1262.14,-773.66"/>
<polygon fill="black" stroke="black" stroke-width="2" points="1265.49,-774.69 1265.67,-764.1 1258.92,-772.27 1265.49,-774.69"/>
</g>
<!-- CS222 -->
<g id="node9" class="node">
<title>CS222</title>
<polygon fill="none" stroke="blue" stroke-width="2" points="485.19,-617 373.19,-617 373.19,-549 485.19,-549 485.19,-617"/>
<text text-anchor="start" x="402.19" y="-601.2" font-family="Arial" font-weight="bold" font-size="16.00">CS 222</text>
<text text-anchor="start" x="394.19" y="-576.2" font-family="Arial" font-size="16.00">Advanced</text>
<text text-anchor="start" x="383.19" y="-558.2" font-family="Arial" font-size="16.00">Programming</text>
</g>
<!-- CS121&#45;&gt;CS222 -->
<g id="edge8" class="edge">
<title>CS121&#45;&gt;CS222:cs222_top</title>
<path fill="none" stroke="black" stroke-width="2" d="M351.47,-701.71C384.77,-686.83 422.43,-662.28 428.38,-626.01"/>
<polygon fill="black" stroke="black" stroke-width="2" points="431.87,-626.25 429.19,-616 424.89,-625.68 431.87,-626.25"/>
</g>
<!-- CS224 -->
<g id="node10" class="node">
<title>CS224</title>
<polygon fill="none" stroke="blue" stroke-width="2" points="148.69,-522 55.69,-522 55.69,-472 148.69,-472 148.69,-522"/>
<text text-anchor="start" x="75.69" y="-506.2" font-family="Arial" font-weight="bold" font-size="16.00">CS 224</text>
<text text-anchor="start" x="66.19" y="-481.2" font-family="Arial" font-size="16.00">Algorithms</text>
</g>
<!-- CS121&#45;&gt;CS224 -->
<g id="edge5" class="edge">
<title>CS121&#45;&gt;CS224:cs224_top</title>
<path fill="none" stroke="black" stroke-width="2" d="M261.28,-674.78C229.03,-636.66 179.86,-581.8 131.19,-540 123.35,-533.26 113.05,-533.92 107.39,-530.1"/>
<polygon fill="black" stroke="black" stroke-width="2" points="110.56,-528.61 103.19,-521 104.2,-531.55 110.56,-528.61"/>
</g>
<!-- CS230 -->
<g id="node13" class="node">
<title>CS230</title>
<polygon fill="none" stroke="blue" stroke-width="2" points="350.69,-626 239.69,-626 239.69,-540 350.69,-540 350.69,-626"/>
<text text-anchor="start" x="268.69" y="-610.2" font-family="Arial" font-weight="bold" font-size="16.00">CS 230</text>
<text text-anchor="start" x="261.69" y="-585.2" font-family="Arial" font-size="16.00">Computer</text>
<text text-anchor="start" x="244.19" y="-567.2" font-family="Arial" font-size="16.00">Organization &amp;</text>
<text text-anchor="start" x="253.19" y="-549.2" font-family="Arial" font-size="16.00">Architecture</text>
</g>
<!-- CS121&#45;&gt;CS230 -->
<g id="edge4" class="edge">
<title>CS121&#45;&gt;CS230</title>
<path fill="none" stroke="black" stroke-width="2" d="M297.19,-674.71C296.92,-662.52 296.63,-649.22 296.35,-636.67"/>
<polygon fill="black" stroke="black" stroke-width="2" points="299.84,-636.25 296.12,-626.33 292.85,-636.4 299.84,-636.25"/>
</g>
<!-- CSELECT1 -->
<g id="node31" class="node">
<title>CSELECT1</title>
<polygon fill="none" stroke="green" stroke-width="2" points="559.69,-388 464.69,-388 464.69,-332 559.69,-332 559.69,-388"/>
<text text-anchor="start" x="469.19" y="-372.2" font-family="Arial" font-weight="bold" font-size="16.00">CS Elective</text>
<text text-anchor="start" x="471.19" y="-356.2" font-family="Arial" font-size="16.00">e.g. Web or</text>
<text text-anchor="start" x="470.69" y="-340.2" font-family="Arial" font-size="16.00">Mobile Dev.</text>
</g>
<!-- CS121&#45;&gt;CSELECT1 -->
<g id="edge3" class="edge">
<title>CS121&#45;&gt;CSELECT1</title>
<path fill="none" stroke="black" stroke-width="2" d="M351.48,-710.21C397.72,-698.65 462.14,-674.48 494.19,-626 540.19,-556.44 530.18,-452.91 520.34,-398.12"/>
<polygon fill="black" stroke="black" stroke-width="2" points="523.75,-397.33 518.45,-388.16 516.87,-398.63 523.75,-397.33"/>
</g>
<!-- CS124&#45;&gt;CS222 -->
<g id="edge9" class="edge">
<title>CS124&#45;&gt;CS222:cs222_top</title>
<path fill="none" stroke="black" stroke-width="2" d="M219.07,-686.87C224.5,-682.47 230.29,-678.33 236.19,-675 272.03,-654.73 404.7,-659.75 426.23,-626.02"/>
<polygon fill="black" stroke="black" stroke-width="2" points="429.71,-626.58 429.19,-616 423,-624.6 429.71,-626.58"/>
</g>
<!-- CS124&#45;&gt;CS224 -->
<g id="edge6" class="edge">
<title>CS124&#45;&gt;CS224:cs224_top</title>
<path fill="none" stroke="black" stroke-width="2" d="M162.85,-686.89C139.64,-650.84 107,-590.4 103.5,-531.25"/>
<polygon fill="black" stroke="black" stroke-width="2" points="106.99,-530.89 103.19,-521 99.99,-531.1 106.99,-530.89"/>
</g>
<!-- CS124&#45;&gt;CS230 -->
<g id="edge7" class="edge">
<title>CS124&#45;&gt;CS230</title>
<path fill="none" stroke="black" stroke-width="2" d="M208.45,-686.8C217.87,-673.24 229.2,-657.59 240.19,-644 242.96,-640.57 245.88,-637.08 248.86,-633.61"/>
<polygon fill="black" stroke="black" stroke-width="2" points="251.53,-635.87 255.46,-626.03 246.25,-631.27 251.53,-635.87"/>
</g>
<!-- UCCT1NS -->
<g id="node8" class="node">
<title>UCCT1NS</title>
<polygon fill="none" stroke="red" stroke-width="2" points="1426.19,-908 1300.19,-908 1300.19,-820 1426.19,-820 1426.19,-908"/>
<text text-anchor="start" x="1341.69" y="-892.2" font-family="Arial" font-weight="bold" font-size="16.00">Tier 1</text>
<text text-anchor="start" x="1304.19" y="-876.2" font-family="Arial" font-weight="bold" font-size="16.00">Natural Science</text>
<text text-anchor="start" x="1305.19" y="-854.2" font-family="Arial" font-style="italic" font-size="16.00">CS Lab Science</text>
<text text-anchor="start" x="1305.19" y="-830.2" font-family="Arial" font-style="italic" font-size="16.00">3–5 credit hours</text>
</g>
<!-- UCCT2NSS -->
<g id="node18" class="node">
<title>UCCT2NSS</title>
<polygon fill="none" stroke="red" stroke-width="2" points="1530.69,-749 1399.69,-749 1399.69,-693 1530.69,-693 1530.69,-749"/>
<text text-anchor="start" x="1444.19" y="-733.2" font-family="Arial" font-weight="bold" font-size="16.00">Tier 2</text>
<text text-anchor="start" x="1428.69" y="-717.2" font-family="Arial" font-weight="bold" font-size="16.00">Natural or</text>
<text text-anchor="start" x="1410.19" y="-701.2" font-family="Arial" font-weight="bold" font-size="16.00">Social Science</text>
</g>
<!-- UCCT1NS&#45;&gt;UCCT2NSS -->
<g id="edge27" class="edge">
<title>UCCT1NS&#45;&gt;UCCT2NSS:ucct2nss_top</title>
<path fill="none" stroke="black" stroke-width="2" stroke-dasharray="1,5" d="M1426.37,-821.42C1445.19,-804.43 1461.82,-782.88 1465.45,-758.06"/>
<polygon fill="black" stroke="black" stroke-width="2" points="1468.95,-758.23 1466.19,-748 1461.97,-757.72 1468.95,-758.23"/>
</g>
<!-- CS239 -->
<g id="node14" class="node">
<title>CS239</title>
<polygon fill="none" stroke="blue" stroke-width="2" points="408.19,-415 310.19,-415 310.19,-305 408.19,-305 408.19,-415"/>
<text text-anchor="start" x="332.19" y="-399.2" font-family="Arial" font-weight="bold" font-size="16.00">CS 239</text>
<text text-anchor="start" x="329.69" y="-374.2" font-family="Arial" font-size="16.00">Social &amp;</text>
<text text-anchor="start" x="315.19" y="-356.2" font-family="Arial" font-size="16.00">Professional</text>
<text text-anchor="start" x="335.69" y="-338.2" font-family="Arial" font-size="16.00">Issues</text>
<text text-anchor="start" x="314.19" y="-315.2" font-family="Arial" font-style="italic" font-size="16.00">1 credit hour</text>
</g>
<!-- CS222&#45;&gt;CS239 -->
<g id="edge21" class="edge">
<title>CS222&#45;&gt;CS239</title>
<path fill="none" stroke="black" stroke-width="2" d="M418.71,-548.91C408.37,-516.25 392.28,-465.45 379.43,-424.9"/>
<polygon fill="black" stroke="black" stroke-width="2" points="382.77,-423.84 376.41,-415.36 376.09,-425.95 382.77,-423.84"/>
</g>
<!-- CS418 -->
<g id="node24" class="node">
<title>CS418</title>
<polygon fill="none" stroke="blue" stroke-width="2" points="724.19,-394 616.19,-394 616.19,-326 724.19,-326 724.19,-394"/>
<text text-anchor="start" x="620.19" y="-378.2" font-family="Arial" font-weight="bold" font-size="16.00">CS 418 (346) </text>
<text text-anchor="start" x="635.69" y="-353.2" font-family="Arial" font-size="16.00">Database</text>
<text text-anchor="start" x="645.69" y="-335.2" font-family="Arial" font-size="16.00">Design</text>
</g>
<!-- CS222&#45;&gt;CS418 -->
<g id="edge30" class="edge">
<title>CS222&#45;&gt;CS418</title>
<path fill="none" stroke="black" stroke-width="2" d="M485.25,-573.97C521.6,-566.17 567.86,-551.04 599.19,-522 608.48,-513.39 635.53,-448.38 653.43,-403.65"/>
<polygon fill="black" stroke="black" stroke-width="2" points="656.76,-404.74 657.21,-394.16 650.26,-402.15 656.76,-404.74"/>
</g>
<!-- CS419 -->
<g id="node25" class="node">
<title>CS419</title>
<polygon fill="none" stroke="blue" stroke-width="2" points="170.19,-394 62.19,-394 62.19,-326 170.19,-326 170.19,-394"/>
<text text-anchor="start" x="66.19" y="-378.2" font-family="Arial" font-weight="bold" font-size="16.00">CS 419 (376) </text>
<text text-anchor="start" x="81.69" y="-353.2" font-family="Arial" font-size="16.00">Operating</text>
<text text-anchor="start" x="85.69" y="-335.2" font-family="Arial" font-size="16.00">Systems</text>
</g>
<!-- CS222&#45;&gt;CS419 -->
<g id="edge31" class="edge">
<title>CS222&#45;&gt;CS419</title>
<path fill="none" stroke="black" stroke-width="2" d="M376.7,-548.94C370.88,-545.75 364.97,-542.7 359.19,-540 337.03,-529.65 329.79,-531.36 307.19,-522 260.18,-502.53 251.43,-490.91 204.19,-472 193.36,-467.66 188.37,-471.21 179.19,-464 159.09,-448.21 143.84,-424.09 133.38,-403.16"/>
<polygon fill="black" stroke="black" stroke-width="2" points="136.53,-401.62 129.06,-394.11 130.22,-404.65 136.53,-401.62"/>
</g>
<!-- CS431 -->
<g id="node26" class="node">
<title>CS431</title>
<polygon fill="none" stroke="blue" stroke-width="2" points="292.19,-394 188.19,-394 188.19,-326 292.19,-326 292.19,-394"/>
<text text-anchor="start" x="192.19" y="-378.2" font-family="Arial" font-weight="bold" font-size="16.00">CS 431 (335)</text>
<text text-anchor="start" x="194.19" y="-353.2" font-family="Arial" font-size="16.00">Programming</text>
<text text-anchor="start" x="201.19" y="-335.2" font-family="Arial" font-size="16.00">Languages</text>
</g>
<!-- CS222&#45;&gt;CS431 -->
<g id="edge34" class="edge">
<title>CS222&#45;&gt;CS431</title>
<path fill="none" stroke="black" stroke-width="2" d="M387.34,-548.84C360.8,-526.57 326.76,-495.6 301.19,-464 286.07,-445.31 272.16,-422.48 261.45,-403.07"/>
<polygon fill="black" stroke="black" stroke-width="2" points="264.45,-401.26 256.61,-394.13 258.29,-404.59 264.45,-401.26"/>
</g>
<!-- CS495 -->
<g id="node29" class="node">
<title>CS495</title>
<polygon fill="none" stroke="blue" stroke-width="2" points="930.19,-397 758.19,-397 758.19,-323 930.19,-323 930.19,-397"/>
<text text-anchor="start" x="817.19" y="-381.2" font-family="Arial" font-weight="bold" font-size="16.00">CS 495</text>
<text text-anchor="start" x="762.19" y="-356.2" font-family="Arial" font-size="16.00">Software Engineering 1</text>
<text text-anchor="start" x="783.19" y="-333.2" font-family="Arial" font-style="italic" font-size="16.00">BSU Core: Tier 3</text>
</g>
<!-- CS222&#45;&gt;CS495 -->
<g id="edge35" class="edge">
<title>CS222&#45;&gt;CS495</title>
<path fill="none" stroke="black" stroke-width="2" d="M485.36,-569.16C549.63,-552.53 655.93,-518.98 733.19,-464 757.8,-446.49 782.68,-423.95 802.62,-404.42"/>
<polygon fill="black" stroke="black" stroke-width="2" points="805.1,-406.9 809.74,-397.38 800.17,-401.92 805.1,-406.9"/>
</g>
<!-- CSELECT2 -->
<g id="node32" class="node">
<title>CSELECT2</title>
<polygon fill="none" stroke="green" stroke-width="2" points="559.69,-249 464.69,-249 464.69,-213 559.69,-213 559.69,-249"/>
<text text-anchor="start" x="469.19" y="-228.2" font-family="Arial" font-weight="bold" font-size="16.00">CS Elective</text>
</g>
<!-- CS222&#45;&gt;CSELECT2 -->
<g id="edge12" class="edge">
<title>CS222&#45;&gt;CSELECT2</title>
<path fill="none" stroke="black" stroke-width="2" d="M485.21,-551.05C515.88,-530.73 551.04,-501.06 568.19,-464 597.87,-399.87 590.9,-371.92 568.19,-305 562.07,-286.96 549.5,-269.89 537.82,-256.8"/>
<polygon fill="black" stroke="black" stroke-width="2" points="540.1,-254.11 530.72,-249.18 534.98,-258.89 540.1,-254.11"/>
</g>
<!-- CSELECT3 -->
<g id="node33" class="node">
<title>CSELECT3</title>
<polygon fill="none" stroke="green" stroke-width="2" points="559.69,-141 464.69,-141 464.69,-105 559.69,-105 559.69,-141"/>
<text text-anchor="start" x="469.19" y="-120.2" font-family="Arial" font-weight="bold" font-size="16.00">CS Elective</text>
</g>
<!-- CS222&#45;&gt;CSELECT3 -->
<g id="edge14" class="edge">
<title>CS222&#45;&gt;CSELECT3</title>
<path fill="none" stroke="black" stroke-width="2" d="M428.57,-548.84C427.44,-465.8 427.4,-250.92 455.19,-186 461.3,-171.72 472.16,-158.62 482.76,-148.17"/>
<polygon fill="black" stroke="black" stroke-width="2" points="485.46,-150.45 490.37,-141.06 480.68,-145.33 485.46,-150.45"/>
</g>
<!-- CS380 -->
<g id="node20" class="node">
<title>CS380</title>
<polygon fill="none" stroke="blue" stroke-width="2" points="214.19,-265 132.19,-265 132.19,-197 214.19,-197 214.19,-265"/>
<text text-anchor="start" x="146.19" y="-249.2" font-family="Arial" font-weight="bold" font-size="16.00">CS 380</text>
<text text-anchor="start" x="139.69" y="-224.2" font-family="Arial" font-size="16.00">Theory of</text>
<text text-anchor="start" x="136.19" y="-206.2" font-family="Arial" font-size="16.00">Computing</text>
</g>
<!-- CS224&#45;&gt;CS380 -->
<g id="edge23" class="edge">
<title>CS224&#45;&gt;CS380</title>
<path fill="none" stroke="black" stroke-width="2" d="M58.85,-471.94C56.66,-469.5 54.74,-466.86 53.19,-464 19.55,-401.85 18.56,-366.6 53.19,-305 68.09,-278.5 96.94,-260.49 122.62,-249"/>
<polygon fill="black" stroke="black" stroke-width="2" points="124.07,-252.18 131.91,-245.05 121.34,-245.74 124.07,-252.18"/>
</g>
<!-- CS416 -->
<g id="node23" class="node">
<title>CS416</title>
<polygon fill="none" stroke="blue" stroke-width="2" points="225.19,-157 121.19,-157 121.19,-89 225.19,-89 225.19,-157"/>
<text text-anchor="start" x="125.19" y="-141.2" font-family="Arial" font-weight="bold" font-size="16.00">CS 416 (327)</text>
<text text-anchor="start" x="139.19" y="-116.2" font-family="Arial" font-size="16.00">Computer</text>
<text text-anchor="start" x="140.19" y="-98.2" font-family="Arial" font-size="16.00">Networks</text>
</g>
<!-- CS224&#45;&gt;CS416 -->
<g id="edge29" class="edge">
<title>CS224&#45;&gt;CS416</title>
<path fill="none" stroke="black" stroke-width="2" d="M55.59,-486.89C43.35,-482.14 31.53,-474.94 24.19,-464 -15.17,-405.31 0.33,-371.52 24.19,-305 44.33,-248.84 90.25,-197.66 125.83,-164.16"/>
<polygon fill="black" stroke="black" stroke-width="2" points="128.3,-166.65 133.25,-157.28 123.54,-161.51 128.3,-166.65"/>
</g>
<!-- COMM210 -->
<g id="node11" class="node">
<title>COMM210</title>
<polygon fill="none" stroke="red" stroke-width="2" points="888.69,-617 799.69,-617 799.69,-549 888.69,-549 888.69,-617"/>
<text text-anchor="start" x="804.19" y="-601.2" font-family="Arial" font-weight="bold" font-size="16.00">COMM 210</text>
<text text-anchor="start" x="823.19" y="-576.2" font-family="Arial" font-size="16.00">Public</text>
<text text-anchor="start" x="812.19" y="-558.2" font-family="Arial" font-size="16.00">Speaking</text>
</g>
<!-- COMM210&#45;&gt;CS495 -->
<g id="edge37" class="edge">
<title>COMM210&#45;&gt;CS495</title>
<path fill="none" stroke="black" stroke-width="2" d="M844.19,-548.91C844.19,-511.31 844.19,-449.68 844.19,-407.32"/>
<polygon fill="black" stroke="black" stroke-width="2" points="847.69,-407.26 844.19,-397.26 840.69,-407.26 847.69,-407.26"/>
</g>
<!-- UCCT1SS -->
<g id="node12" class="node">
<title>UCCT1SS</title>
<polygon fill="none" stroke="red" stroke-width="2" points="1563.69,-884 1444.69,-884 1444.69,-844 1563.69,-844 1563.69,-884"/>
<text text-anchor="start" x="1483.19" y="-868.2" font-family="Arial" font-weight="bold" font-size="16.00">Tier 1</text>
<text text-anchor="start" x="1449.19" y="-852.2" font-family="Arial" font-weight="bold" font-size="16.00">Social Science</text>
</g>
<!-- UCCT1SS&#45;&gt;UCCT2NSS -->
<g id="edge28" class="edge">
<title>UCCT1SS&#45;&gt;UCCT2NSS:ucct2nss_top</title>
<path fill="none" stroke="black" stroke-width="2" stroke-dasharray="1,5" d="M1493.61,-843.7C1483.46,-823.54 1469.3,-790.43 1466.63,-758.36"/>
<polygon fill="black" stroke="black" stroke-width="2" points="1470.11,-757.84 1466.19,-748 1463.12,-758.14 1470.11,-757.84"/>
<text text-anchor="middle" x="1485.69" y="-788.8" font-family="Arial" font-size="14.00"> &#160;or</text>
<polyline fill="none" stroke="black" points="1496.19,-785 1475.19,-785 1474.31,-796.3 "/>
</g>
<!-- CS230&#45;&gt;CS419 -->
<g id="edge32" class="edge">
<title>CS230&#45;&gt;CS419</title>
<path fill="none" stroke="black" stroke-width="2" d="M239.27,-548.97C228.22,-540.98 217.25,-531.86 208.19,-522 175.74,-486.68 149.9,-437.94 133.97,-403.36"/>
<polygon fill="black" stroke="black" stroke-width="2" points="137.05,-401.68 129.74,-394.01 130.67,-404.56 137.05,-401.68"/>
</g>
<!-- CS230&#45;&gt;CS431 -->
<g id="edge33" class="edge">
<title>CS230&#45;&gt;CS431</title>
<path fill="none" stroke="black" stroke-width="2" d="M284.72,-539.91C275.03,-500.97 260.68,-443.34 250.91,-404.09"/>
<polygon fill="black" stroke="black" stroke-width="2" points="254.28,-403.14 248.47,-394.28 247.49,-404.83 254.28,-403.14"/>
</g>
<!-- CS230&#45;&gt;CSELECT1 -->
<!-- CS239&#45;&gt;CS380 -->
<!-- ENG103 -->
<g id="node15" class="node">
<title>ENG103</title>
<polygon fill="none" stroke="red" stroke-width="2" points="764.69,-889 627.69,-889 627.69,-839 764.69,-839 764.69,-889"/>
<text text-anchor="start" x="664.19" y="-873.2" font-family="Arial" font-weight="bold" font-size="16.00">ENG 103</text>
<text text-anchor="start" x="632.19" y="-848.2" font-family="Arial" font-size="16.00">Rhetoric &amp; Writing</text>
</g>
<!-- ENG104 -->
<g id="node16" class="node">
<title>ENG104</title>
<polygon fill="none" stroke="red" stroke-width="2" points="775.69,-753 616.69,-753 616.69,-689 775.69,-689 775.69,-753"/>
<text text-anchor="start" x="664.19" y="-737.2" font-family="Arial" font-weight="bold" font-size="16.00">ENG 104</text>
<text text-anchor="start" x="654.69" y="-721.2" font-family="Arial" font-size="16.00">or </text>
<text text-anchor="start" x="673.69" y="-721.2" font-family="Arial" font-weight="bold" font-size="16.00">ENG 114</text>
<text text-anchor="start" x="621.19" y="-698.2" font-family="Arial" font-size="16.00">Composing Research</text>
</g>
<!-- ENG103&#45;&gt;ENG104 -->
<g id="edge17" class="edge">
<title>ENG103&#45;&gt;ENG104</title>
<path fill="none" stroke="black" stroke-width="2" d="M696.19,-838.76C696.19,-818.02 696.19,-787.72 696.19,-763.19"/>
<polygon fill="black" stroke="black" stroke-width="2" points="699.69,-763.07 696.19,-753.07 692.69,-763.07 699.69,-763.07"/>
</g>
<!-- ENG104&#45;&gt;CS222 -->
<g id="edge18" class="edge">
<title>ENG104&#45;&gt;CS222</title>
<path fill="none" stroke="black" stroke-width="2" stroke-dasharray="5,2" d="M635.27,-688.97C593.17,-667.52 537.23,-639.03 494.26,-617.14"/>
<polygon fill="black" stroke="black" stroke-width="2" points="495.79,-614 485.3,-612.58 492.62,-620.24 495.79,-614"/>
<text text-anchor="middle" x="617.19" y="-647.4" font-family="Arial" font-size="12.00"> prereq or parallel</text>
<polyline fill="none" stroke="black" points="663.19,-644 571.19,-644 605.39,-673.75 "/>
</g>
<!-- CS380&#45;&gt;CS416 -->
<!-- UCCT1HU -->
<g id="node21" class="node">
<title>UCCT1HU</title>
<polygon fill="none" stroke="red" stroke-width="2" points="1693.69,-884 1600.69,-884 1600.69,-844 1693.69,-844 1693.69,-884"/>
<text text-anchor="start" x="1626.19" y="-868.2" font-family="Arial" font-weight="bold" font-size="16.00">Tier 1</text>
<text text-anchor="start" x="1605.19" y="-852.2" font-family="Arial" font-weight="bold" font-size="16.00">Humanities</text>
</g>
<!-- UCCT2FDH -->
<g id="node28" class="node">
<title>UCCT2FDH</title>
<polygon fill="none" stroke="red" stroke-width="2" points="1757.19,-749 1575.19,-749 1575.19,-693 1757.19,-693 1757.19,-749"/>
<text text-anchor="start" x="1644.69" y="-733.2" font-family="Arial" font-weight="bold" font-size="16.00">Tier 2</text>
<text text-anchor="start" x="1621.69" y="-717.2" font-family="Arial" font-weight="bold" font-size="16.00">Fine Arts or</text>
<text text-anchor="start" x="1585.19" y="-701.2" font-family="Arial" font-weight="bold" font-size="16.00">Design or Humanities</text>
</g>
<!-- UCCT1HU&#45;&gt;UCCT2FDH -->
<g id="edge26" class="edge">
<title>UCCT1HU&#45;&gt;UCCT2FDH:ucct2fdh_top</title>
<path fill="none" stroke="black" stroke-width="2" stroke-dasharray="1,5" d="M1652.38,-843.63C1657.46,-823.12 1664.62,-789.44 1665.97,-758.08"/>
<polygon fill="black" stroke="black" stroke-width="2" points="1669.47,-758.08 1666.19,-748 1662.47,-757.92 1669.47,-758.08"/>
</g>
<!-- UCCT1FA -->
<g id="node22" class="node">
<title>UCCT1FA</title>
<polygon fill="none" stroke="red" stroke-width="2" points="1788.69,-884 1711.69,-884 1711.69,-844 1788.69,-844 1788.69,-884"/>
<text text-anchor="start" x="1729.19" y="-868.2" font-family="Arial" font-weight="bold" font-size="16.00">Tier 1</text>
<text text-anchor="start" x="1716.19" y="-852.2" font-family="Arial" font-weight="bold" font-size="16.00">Fine Arts</text>
</g>
<!-- UCCT1FA&#45;&gt;UCCT2FDH -->
<g id="edge25" class="edge">
<title>UCCT1FA&#45;&gt;UCCT2FDH:ucct2fdh_top</title>
<path fill="none" stroke="black" stroke-width="2" stroke-dasharray="1,5" d="M1731.55,-843.61C1710.09,-820.54 1676.7,-782.13 1668.21,-757.98"/>
<polygon fill="black" stroke="black" stroke-width="2" points="1671.6,-757.11 1666.19,-748 1664.74,-758.5 1671.6,-757.11"/>
<text text-anchor="middle" x="1703.69" y="-788.8" font-family="Arial" font-size="14.00"> &#160;or</text>
<polyline fill="none" stroke="black" points="1714.19,-785 1693.19,-785 1694.17,-800.11 "/>
</g>
<!-- CSELECT4 -->
<g id="node34" class="node">
<title>CSELECT4</title>
<polygon fill="none" stroke="green" stroke-width="2" points="559.69,-52 464.69,-52 464.69,-16 559.69,-16 559.69,-52"/>
<text text-anchor="start" x="469.19" y="-31.2" font-family="Arial" font-weight="bold" font-size="16.00">CS Elective</text>
</g>
<!-- CS416&#45;&gt;CSELECT4 -->
<g id="edge13" class="edge">
<title>CS416&#45;&gt;CSELECT4</title>
<path fill="none" stroke="black" stroke-width="2" d="M225.42,-108.6C287.38,-92.69 390.37,-66.26 454.6,-49.78"/>
<polygon fill="black" stroke="black" stroke-width="2" points="455.75,-53.1 464.56,-47.22 454.01,-46.32 455.75,-53.1"/>
</g>
<!-- Permission -->
<g id="node27" class="node">
<title>Permission</title>
<ellipse fill="none" stroke="blue" stroke-width="2" cx="1000.19" cy="-583" rx="58.88" ry="25.41"/>
<text text-anchor="middle" x="1000.19" y="-588.2" font-family="Arial" font-size="16.00">Permission:</text>
<text text-anchor="middle" x="1000.19" y="-570.2" font-family="Arial" font-size="16.00">Final Year</text>
</g>
<!-- Permission&#45;&gt;CS495 -->
<g id="edge36" class="edge">
<title>Permission&#45;&gt;CS495</title>
<path fill="none" stroke="black" stroke-width="2" d="M983.5,-558.35C957.82,-521.97 908.2,-451.68 875.64,-405.56"/>
<polygon fill="black" stroke="black" stroke-width="2" points="878.4,-403.39 869.77,-397.24 872.68,-407.43 878.4,-403.39"/>
</g>
<!-- GENELECT1 -->
<g id="node35" class="node">
<title>GENELECT1</title>
<polygon fill="none" stroke="black" stroke-width="2" points="1106.69,-385 965.69,-385 965.69,-335 1106.69,-335 1106.69,-385"/>
<text text-anchor="start" x="970.19" y="-369.2" font-family="Arial" font-weight="bold" font-size="16.00">General Electives</text>
<text text-anchor="start" x="987.69" y="-345.2" font-family="Arial" font-style="italic" font-size="16.00">9 credit hours</text>
</g>
<!-- Permission&#45;&gt;GENELECT1 -->
<!-- CS498 -->
<g id="node30" class="node">
<title>CS498</title>
<polygon fill="none" stroke="blue" stroke-width="2" points="947.69,-268 740.69,-268 740.69,-194 947.69,-194 947.69,-268"/>
<text text-anchor="start" x="817.69" y="-252.2" font-family="Arial" font-weight="bold" font-size="16.00">CS 498</text>
<text text-anchor="start" x="762.69" y="-227.2" font-family="Arial" font-size="16.00">Software Engineering 2</text>
<text text-anchor="start" x="745.19" y="-204.2" font-family="Arial" font-style="italic" font-size="16.00">BSU Core: Writing Intensive</text>
</g>
<!-- CS495&#45;&gt;CS498 -->
<g id="edge38" class="edge">
<title>CS495&#45;&gt;CS498</title>
<path fill="none" stroke="black" stroke-width="2" d="M844.19,-322.95C844.19,-309.14 844.19,-293.19 844.19,-278.53"/>
<polygon fill="black" stroke="black" stroke-width="2" points="847.69,-278.14 844.19,-268.14 840.69,-278.14 847.69,-278.14"/>
</g>
<!-- CSELECT1&#45;&gt;CSELECT2 -->
<g id="edge11" class="edge">
<title>CSELECT1&#45;&gt;CSELECT2</title>
<path fill="none" stroke="black" stroke-width="2" d="M512.19,-331.76C512.19,-310.31 512.19,-280.56 512.19,-259.14"/>
<polygon fill="black" stroke="black" stroke-width="2" points="515.69,-259.07 512.19,-249.07 508.69,-259.07 515.69,-259.07"/>
</g>
<!-- CSELECT2&#45;&gt;CSELECT3 -->
<!-- CSELECT3&#45;&gt;CSELECT4 -->
<!-- GENELECT2 -->
<g id="node36" class="node">
<title>GENELECT2</title>
<polygon fill="none" stroke="black" stroke-width="2" points="1106.69,-256 965.69,-256 965.69,-206 1106.69,-206 1106.69,-256"/>
<text text-anchor="start" x="970.19" y="-240.2" font-family="Arial" font-weight="bold" font-size="16.00">General Electives</text>
<text text-anchor="start" x="987.69" y="-216.2" font-family="Arial" font-style="italic" font-size="16.00">9 credit hours</text>
</g>
<!-- GENELECT1&#45;&gt;GENELECT2 -->
</g>
</svg>
