<?xml version="1.0" encoding="UTF-8" standalone="no"?>
<!DOCTYPE svg PUBLIC "-//W3C//DTD SVG 1.1//EN"
 "http://www.w3.org/Graphics/SVG/1.1/DTD/svg11.dtd">
<!-- Generated by graphviz version 2.46.0 (20210118.1747)
 -->
<!-- Title: Data_ML Pages: 1 -->
<svg width="1154pt" height="1058pt"
 viewBox="0.00 0.00 1154.09 1058.00" xmlns="http://www.w3.org/2000/svg" xmlns:xlink="http://www.w3.org/1999/xlink">
<g id="graph0" class="graph" transform="scale(1 1) rotate(0) translate(4 1054)">
<title>Data_ML</title>
<polygon fill="white" stroke="transparent" points="-4,4 -4,-1054 1150.09,-1054 1150.09,4 -4,4"/>
<text text-anchor="middle" x="573.05" y="-1020.4" font-family="Arial" font-size="32.00">Data Analytics &amp; Machine Learning</text>
<g id="clust6" class="cluster">
<title>cluster_required</title>
<polygon fill="none" stroke="black" stroke-width="2" points="79.09,-254 79.09,-469 471.09,-469 471.09,-254 79.09,-254"/>
<text text-anchor="middle" x="275.09" y="-452.2" font-family="Arial" font-size="16.00">Required on Concentration</text>
</g>
<g id="clust5" class="cluster">
<title>cluster_softeng</title>
<polygon fill="none" stroke="black" stroke-width="2" points="417.09,-8 417.09,-235 641.09,-235 641.09,-8 417.09,-8"/>
<text text-anchor="middle" x="529.09" y="-218.2" font-family="Arial" font-size="16.00">Senior Capstone Sequence</text>
</g>
<!-- CS120 -->
<g id="node1" class="node">
<title>CS120</title>
<polygon fill="none" stroke="blue" stroke-width="2" points="264.09,-1007 158.09,-1007 158.09,-915 264.09,-915 264.09,-1007"/>
<text text-anchor="start" x="184.09" y="-991.2" font-family="Arial" font-weight="bold" font-size="16.00">CS 120</text>
<text text-anchor="start" x="177.09" y="-966.2" font-family="Arial" font-size="16.00">Computer</text>
<text text-anchor="start" x="175.59" y="-948.2" font-family="Arial" font-size="16.00">Science 1</text>
<text text-anchor="start" x="162.09" y="-925.2" font-family="Arial" font-style="italic" font-size="16.00">4 credit hours</text>
</g>
<!-- CS121 -->
<g id="node5" class="node">
<title>CS121</title>
<polygon fill="none" stroke="blue" stroke-width="2" points="264.09,-866 158.09,-866 158.09,-774 264.09,-774 264.09,-866"/>
<text text-anchor="start" x="184.09" y="-850.2" font-family="Arial" font-weight="bold" font-size="16.00">CS 121</text>
<text text-anchor="start" x="177.09" y="-825.2" font-family="Arial" font-size="16.00">Computer</text>
<text text-anchor="start" x="175.59" y="-807.2" font-family="Arial" font-size="16.00">Science 2</text>
<text text-anchor="start" x="162.09" y="-784.2" font-family="Arial" font-style="italic" font-size="16.00">4 credit hours</text>
</g>
<!-- CS120&#45;&gt;CS121 -->
<g id="edge1" class="edge">
<title>CS120&#45;&gt;CS121</title>
<path fill="none" stroke="black" stroke-width="2" d="M211.09,-914.87C211.09,-902.61 211.09,-889.19 211.09,-876.43"/>
<polygon fill="black" stroke="black" stroke-width="2" points="214.59,-876.38 211.09,-866.38 207.59,-876.38 214.59,-876.38"/>
</g>
<!-- CS124 -->
<g id="node6" class="node">
<title>CS124</title>
<polygon fill="none" stroke="blue" stroke-width="2" points="363.59,-854 282.59,-854 282.59,-786 363.59,-786 363.59,-854"/>
<text text-anchor="start" x="296.59" y="-838.2" font-family="Arial" font-weight="bold" font-size="16.00">CS 124</text>
<text text-anchor="start" x="293.59" y="-813.2" font-family="Arial" font-size="16.00">Discrete</text>
<text text-anchor="start" x="287.09" y="-795.2" font-family="Arial" font-size="16.00">Structures</text>
</g>
<!-- CS120&#45;&gt;CS124 -->
<g id="edge2" class="edge">
<title>CS120&#45;&gt;CS124</title>
<path fill="none" stroke="black" stroke-width="2" stroke-dasharray="5,2" d="M247.46,-914.87C261.18,-897.84 276.7,-878.57 290.1,-861.95"/>
<polygon fill="black" stroke="black" stroke-width="2" points="292.94,-864 296.49,-854.02 287.49,-859.61 292.94,-864"/>
<text text-anchor="middle" x="316.09" y="-887.4" font-family="Arial" font-size="12.00"> prereq or parallel</text>
<polyline fill="none" stroke="black" points="362.09,-884 270.09,-884 286.6,-866.29 "/>
</g>
<!-- DANA320 -->
<g id="node25" class="node">
<title>DANA320</title>
<polygon fill="none" stroke="blue" stroke-width="2" points="270.09,-330 174.09,-330 174.09,-262 270.09,-262 270.09,-330"/>
<text text-anchor="start" x="184.09" y="-314.2" font-family="Arial" font-weight="bold" font-size="16.00">DANA 320</text>
<text text-anchor="start" x="205.09" y="-289.2" font-family="Arial" font-size="16.00">Data</text>
<text text-anchor="start" x="178.09" y="-271.2" font-family="Arial" font-size="16.00">Visualization</text>
</g>
<!-- CS120&#45;&gt;DANA320 -->
<g id="edge21" class="edge">
<title>CS120&#45;&gt;DANA320</title>
<path fill="none" stroke="black" stroke-width="2" d="M157.89,-947.84C115.86,-935.12 59.97,-910.6 33.09,-866 11.98,-830.98 32.49,-814.88 33.09,-774 35.76,-593.05 -49.72,-521.14 45.09,-367 69.88,-326.7 122.32,-309.58 163.72,-302.32"/>
<polygon fill="black" stroke="black" stroke-width="2" points="164.39,-305.76 173.71,-300.72 163.28,-298.85 164.39,-305.76"/>
</g>
<!-- HIST150 -->
<g id="node2" class="node">
<title>HIST150</title>
<polygon fill="none" stroke="red" stroke-width="2" points="604.59,-995 511.59,-995 511.59,-927 604.59,-927 604.59,-995"/>
<text text-anchor="start" x="525.09" y="-979.2" font-family="Arial" font-weight="bold" font-size="16.00">HIST 150</text>
<text text-anchor="start" x="516.09" y="-954.2" font-family="Arial" font-size="16.00">The West in</text>
<text text-anchor="start" x="524.59" y="-936.2" font-family="Arial" font-size="16.00">the World</text>
</g>
<!-- UCCPFW -->
<g id="node3" class="node">
<title>UCCPFW</title>
<polygon fill="none" stroke="red" stroke-width="2" points="769.59,-993 622.59,-993 622.59,-929 769.59,-929 769.59,-993"/>
<text text-anchor="start" x="664.59" y="-977.2" font-family="Arial" font-weight="bold" font-size="16.00">Physcial</text>
<text text-anchor="start" x="627.09" y="-961.2" font-family="Arial" font-weight="bold" font-size="16.00">Fitness / Wellness</text>
<text text-anchor="start" x="647.59" y="-939.2" font-family="Arial" font-style="italic" font-size="16.00">2 credit hours</text>
</g>
<!-- ENG103 -->
<g id="node4" class="node">
<title>ENG103</title>
<polygon fill="none" stroke="red" stroke-width="2" points="493.59,-986 356.59,-986 356.59,-936 493.59,-936 493.59,-986"/>
<text text-anchor="start" x="393.09" y="-970.2" font-family="Arial" font-weight="bold" font-size="16.00">ENG 103</text>
<text text-anchor="start" x="361.09" y="-945.2" font-family="Arial" font-size="16.00">Rhetoric &amp; Writing</text>
</g>
<!-- ENG104 -->
<g id="node7" class="node">
<title>ENG104</title>
<polygon fill="none" stroke="red" stroke-width="2" points="468.59,-861 381.59,-861 381.59,-779 468.59,-779 468.59,-861"/>
<text text-anchor="start" x="393.09" y="-845.2" font-family="Arial" font-weight="bold" font-size="16.00">ENG 104</text>
<text text-anchor="start" x="402.09" y="-829.2" font-family="Arial" font-size="16.00">or </text>
<text text-anchor="start" x="421.09" y="-829.2" font-family="Arial" font-weight="bold" font-size="16.00">114</text>
<text text-anchor="start" x="386.09" y="-806.2" font-family="Arial" font-size="16.00">Composing</text>
<text text-anchor="start" x="391.09" y="-788.2" font-family="Arial" font-size="16.00">Research</text>
</g>
<!-- ENG103&#45;&gt;ENG104 -->
<g id="edge9" class="edge">
<title>ENG103&#45;&gt;ENG104</title>
<path fill="none" stroke="black" stroke-width="2" d="M425.09,-935.79C425.09,-918.06 425.09,-893.37 425.09,-871.43"/>
<polygon fill="black" stroke="black" stroke-width="2" points="428.59,-871.25 425.09,-861.25 421.59,-871.25 428.59,-871.25"/>
</g>
<!-- CS222 -->
<g id="node11" class="node">
<title>CS222</title>
<polygon fill="none" stroke="blue" stroke-width="2" points="463.09,-725 351.09,-725 351.09,-657 463.09,-657 463.09,-725"/>
<text text-anchor="start" x="380.09" y="-709.2" font-family="Arial" font-weight="bold" font-size="16.00">CS 222</text>
<text text-anchor="start" x="372.09" y="-684.2" font-family="Arial" font-size="16.00">Advanced</text>
<text text-anchor="start" x="361.09" y="-666.2" font-family="Arial" font-size="16.00">Programming</text>
</g>
<!-- CS121&#45;&gt;CS222 -->
<g id="edge7" class="edge">
<title>CS121&#45;&gt;CS222:cs222_top</title>
<path fill="none" stroke="black" stroke-width="2" d="M264.09,-779.71C267.42,-777.69 270.77,-775.77 274.09,-774 286.01,-767.64 374.87,-747.13 400.31,-731.44"/>
<polygon fill="black" stroke="black" stroke-width="2" points="402.94,-733.75 407.09,-724 397.77,-729.03 402.94,-733.75"/>
</g>
<!-- CS224 -->
<g id="node12" class="node">
<title>CS224</title>
<polygon fill="none" stroke="blue" stroke-width="2" points="294.59,-716 201.59,-716 201.59,-666 294.59,-666 294.59,-716"/>
<text text-anchor="start" x="221.59" y="-700.2" font-family="Arial" font-weight="bold" font-size="16.00">CS 224</text>
<text text-anchor="start" x="212.09" y="-675.2" font-family="Arial" font-size="16.00">Algorithms</text>
</g>
<!-- CS121&#45;&gt;CS224 -->
<g id="edge4" class="edge">
<title>CS121&#45;&gt;CS224:cs224_top</title>
<path fill="none" stroke="black" stroke-width="2" d="M235.27,-773.95C241.47,-759.17 246.88,-742.22 248.56,-725.42"/>
<polygon fill="black" stroke="black" stroke-width="2" points="252.08,-725.17 249.09,-715 245.08,-724.81 252.08,-725.17"/>
</g>
<!-- CS230 -->
<g id="node16" class="node">
<title>CS230</title>
<polygon fill="none" stroke="blue" stroke-width="2" points="274.59,-594 163.59,-594 163.59,-508 274.59,-508 274.59,-594"/>
<text text-anchor="start" x="192.59" y="-578.2" font-family="Arial" font-weight="bold" font-size="16.00">CS 230</text>
<text text-anchor="start" x="185.59" y="-553.2" font-family="Arial" font-size="16.00">Computer</text>
<text text-anchor="start" x="168.09" y="-535.2" font-family="Arial" font-size="16.00">Organization &amp;</text>
<text text-anchor="start" x="177.09" y="-517.2" font-family="Arial" font-size="16.00">Architecture</text>
</g>
<!-- CS121&#45;&gt;CS230 -->
<g id="edge3" class="edge">
<title>CS121&#45;&gt;CS230</title>
<path fill="none" stroke="black" stroke-width="2" d="M200.65,-773.83C197.57,-758.43 194.62,-741.05 193.09,-725 190.24,-694.91 189.43,-687 193.09,-657 195.21,-639.63 199.23,-621 203.49,-604.32"/>
<polygon fill="black" stroke="black" stroke-width="2" points="206.99,-604.78 206.15,-594.22 200.22,-603 206.99,-604.78"/>
</g>
<!-- CS421 -->
<g id="node27" class="node">
<title>CS421</title>
<polygon fill="none" stroke="blue" stroke-width="2" points="367.09,-435 295.09,-435 295.09,-367 367.09,-367 367.09,-435"/>
<text text-anchor="start" x="304.09" y="-419.2" font-family="Arial" font-weight="bold" font-size="16.00">CS 421</text>
<text text-anchor="start" x="314.09" y="-394.2" font-family="Arial" font-size="16.00">Data</text>
<text text-anchor="start" x="299.09" y="-376.2" font-family="Arial" font-size="16.00">Analytics</text>
</g>
<!-- CS121&#45;&gt;CS421 -->
<g id="edge24" class="edge">
<title>CS121&#45;&gt;CS421</title>
<path fill="none" stroke="black" stroke-width="2" d="M183.36,-773.76C145.57,-705.68 89.66,-576.3 155.09,-496 192.65,-449.92 236.74,-502.14 286.09,-469 295.72,-462.54 303.83,-453.25 310.39,-443.64"/>
<polygon fill="black" stroke="black" stroke-width="2" points="313.35,-445.5 315.76,-435.18 307.44,-441.75 313.35,-445.5"/>
</g>
<!-- CS455 -->
<g id="node28" class="node">
<title>CS455</title>
<polygon fill="none" stroke="blue" stroke-width="2" points="149.09,-435 87.09,-435 87.09,-367 149.09,-367 149.09,-435"/>
<text text-anchor="start" x="91.09" y="-419.2" font-family="Arial" font-weight="bold" font-size="16.00">CS 455</text>
<text text-anchor="start" x="101.09" y="-394.2" font-family="Arial" font-size="16.00">Data</text>
<text text-anchor="start" x="95.09" y="-376.2" font-family="Arial" font-size="16.00">Mining</text>
</g>
<!-- CS121&#45;&gt;CS455 -->
<g id="edge25" class="edge">
<title>CS121&#45;&gt;CS455</title>
<path fill="none" stroke="black" stroke-width="2" d="M157.9,-780.82C154.59,-778.5 151.3,-776.21 148.09,-774 136.22,-765.81 127.95,-768.69 121.09,-756 66.84,-655.64 89.68,-514.71 106.35,-444.8"/>
<polygon fill="black" stroke="black" stroke-width="2" points="109.76,-445.56 108.75,-435.01 102.97,-443.89 109.76,-445.56"/>
</g>
<!-- CS124&#45;&gt;CS222 -->
<g id="edge8" class="edge">
<title>CS124&#45;&gt;CS222:cs222_top</title>
<path fill="none" stroke="black" stroke-width="2" d="M356.29,-785.9C374.08,-767.64 394.08,-746.12 402.73,-733.27"/>
<polygon fill="black" stroke="black" stroke-width="2" points="406,-734.54 407.09,-724 399.67,-731.56 406,-734.54"/>
</g>
<!-- CS124&#45;&gt;CS224 -->
<g id="edge5" class="edge">
<title>CS124&#45;&gt;CS224:cs224_top</title>
<path fill="none" stroke="black" stroke-width="2" d="M292.99,-785.86C276.19,-766.18 257.41,-741.84 251.21,-724.92"/>
<polygon fill="black" stroke="black" stroke-width="2" points="254.6,-724.05 249.09,-715 247.75,-725.51 254.6,-724.05"/>
</g>
<!-- CS124&#45;&gt;CS230 -->
<g id="edge6" class="edge">
<title>CS124&#45;&gt;CS230</title>
<path fill="none" stroke="black" stroke-width="2" d="M324.5,-785.99C324.74,-752.26 321.79,-699.02 304.09,-657 295.76,-637.22 282.52,-618.16 268.95,-601.84"/>
<polygon fill="black" stroke="black" stroke-width="2" points="271.44,-599.37 262.28,-594.05 266.13,-603.92 271.44,-599.37"/>
</g>
<!-- ENG104&#45;&gt;CS222 -->
<g id="edge10" class="edge">
<title>ENG104&#45;&gt;CS222</title>
<path fill="none" stroke="black" stroke-width="2" stroke-dasharray="5,2" d="M419.4,-778.82C417.42,-764.9 415.21,-749.25 413.2,-735.1"/>
<polygon fill="black" stroke="black" stroke-width="2" points="416.66,-734.53 411.79,-725.12 409.72,-735.51 416.66,-734.53"/>
<text text-anchor="middle" x="462.09" y="-746.4" font-family="Arial" font-size="12.00"> prereq or parallel</text>
<polyline fill="none" stroke="black" points="508.09,-743 416.09,-743 416.21,-756.35 "/>
</g>
<!-- UCCT1NS -->
<g id="node8" class="node">
<title>UCCT1NS</title>
<polygon fill="none" stroke="red" stroke-width="2" points="851.09,-864 725.09,-864 725.09,-776 851.09,-776 851.09,-864"/>
<text text-anchor="start" x="766.59" y="-848.2" font-family="Arial" font-weight="bold" font-size="16.00">Tier 1</text>
<text text-anchor="start" x="729.09" y="-832.2" font-family="Arial" font-weight="bold" font-size="16.00">Natural Science</text>
<text text-anchor="start" x="730.09" y="-810.2" font-family="Arial" font-style="italic" font-size="16.00">CS Lab Science</text>
<text text-anchor="start" x="730.09" y="-786.2" font-family="Arial" font-style="italic" font-size="16.00">3–5 credit hours</text>
</g>
<!-- UCCT2NSS -->
<g id="node19" class="node">
<title>UCCT2NSS</title>
<polygon fill="none" stroke="red" stroke-width="2" points="896.59,-579 765.59,-579 765.59,-523 896.59,-523 896.59,-579"/>
<text text-anchor="start" x="810.09" y="-563.2" font-family="Arial" font-weight="bold" font-size="16.00">Tier 2</text>
<text text-anchor="start" x="794.59" y="-547.2" font-family="Arial" font-weight="bold" font-size="16.00">Natural or</text>
<text text-anchor="start" x="776.09" y="-531.2" font-family="Arial" font-weight="bold" font-size="16.00">Social Science</text>
</g>
<!-- UCCT1NS&#45;&gt;UCCT2NSS -->
<g id="edge14" class="edge">
<title>UCCT1NS&#45;&gt;UCCT2NSS:ucct2nss_top</title>
<path fill="none" stroke="black" stroke-width="2" stroke-dasharray="1,5" d="M791.4,-775.69C794.4,-742.87 799.66,-696.78 808.09,-657 814.93,-624.75 828.85,-616.3 831.61,-588.31"/>
<polygon fill="black" stroke="black" stroke-width="2" points="835.12,-588.15 832.09,-578 828.13,-587.83 835.12,-588.15"/>
</g>
<!-- UCCPFIN -->
<g id="node9" class="node">
<title>UCCPFIN</title>
<polygon fill="none" stroke="red" stroke-width="2" points="967.09,-852 869.09,-852 869.09,-788 967.09,-788 967.09,-852"/>
<text text-anchor="start" x="884.59" y="-836.2" font-family="Arial" font-weight="bold" font-size="16.00">Personal</text>
<text text-anchor="start" x="887.59" y="-820.2" font-family="Arial" font-weight="bold" font-size="16.00">Finance</text>
<text text-anchor="start" x="873.09" y="-798.2" font-family="Arial" font-style="italic" font-size="16.00">1 credit hour</text>
</g>
<!-- MATH181 -->
<g id="node10" class="node">
<title>MATH181</title>
<polygon fill="none" stroke="blue" stroke-width="2" points="139.59,-863 42.59,-863 42.59,-777 139.59,-777 139.59,-863"/>
<text text-anchor="start" x="53.59" y="-847.2" font-family="Arial" font-weight="bold" font-size="16.00">MATH 181</text>
<text text-anchor="start" x="52.09" y="-822.2" font-family="Arial" font-size="16.00">Elementary</text>
<text text-anchor="start" x="47.09" y="-804.2" font-family="Arial" font-size="16.00">Probability &amp;</text>
<text text-anchor="start" x="58.59" y="-786.2" font-family="Arial" font-size="16.00">Statistics</text>
</g>
<!-- MATH181&#45;&gt;DANA320 -->
<g id="edge22" class="edge">
<title>MATH181&#45;&gt;DANA320</title>
<path fill="none" stroke="black" stroke-width="2" d="M74.91,-776.75C66.97,-752.36 59.09,-720.88 59.09,-692 59.09,-692 59.09,-692 59.09,-400 59.09,-348.75 117.4,-321.96 164.27,-308.7"/>
<polygon fill="black" stroke="black" stroke-width="2" points="165.32,-312.04 174.07,-306.08 163.5,-305.28 165.32,-312.04"/>
</g>
<!-- CS239 -->
<g id="node17" class="node">
<title>CS239</title>
<polygon fill="none" stroke="blue" stroke-width="2" points="429.09,-606 331.09,-606 331.09,-496 429.09,-496 429.09,-606"/>
<text text-anchor="start" x="353.09" y="-590.2" font-family="Arial" font-weight="bold" font-size="16.00">CS 239</text>
<text text-anchor="start" x="350.59" y="-565.2" font-family="Arial" font-size="16.00">Social &amp;</text>
<text text-anchor="start" x="336.09" y="-547.2" font-family="Arial" font-size="16.00">Professional</text>
<text text-anchor="start" x="356.59" y="-529.2" font-family="Arial" font-size="16.00">Issues</text>
<text text-anchor="start" x="335.09" y="-506.2" font-family="Arial" font-style="italic" font-size="16.00">1 credit hour</text>
</g>
<!-- CS222&#45;&gt;CS239 -->
<g id="edge11" class="edge">
<title>CS222&#45;&gt;CS239</title>
<path fill="none" stroke="black" stroke-width="2" d="M400.63,-656.95C398.23,-644.69 395.42,-630.34 392.66,-616.25"/>
<polygon fill="black" stroke="black" stroke-width="2" points="396.03,-615.21 390.67,-606.07 389.16,-616.55 396.03,-615.21"/>
</g>
<!-- CS495 -->
<g id="node22" class="node">
<title>CS495</title>
<polygon fill="none" stroke="blue" stroke-width="2" points="615.09,-201 443.09,-201 443.09,-127 615.09,-127 615.09,-201"/>
<text text-anchor="start" x="502.09" y="-185.2" font-family="Arial" font-weight="bold" font-size="16.00">CS 495</text>
<text text-anchor="start" x="447.09" y="-160.2" font-family="Arial" font-size="16.00">Software Engineering 1</text>
<text text-anchor="start" x="468.09" y="-137.2" font-family="Arial" font-style="italic" font-size="16.00">BSU Core: Tier 3</text>
</g>
<!-- CS222&#45;&gt;CS495 -->
<g id="edge16" class="edge">
<title>CS222&#45;&gt;CS495</title>
<path fill="none" stroke="black" stroke-width="2" d="M366.25,-656.85C350.71,-642.54 333.92,-624.79 322.09,-606 294.53,-562.23 324.2,-528.66 284.09,-496 247.78,-466.43 113.96,-495.13 75.09,-469 23.9,-434.58 -11.91,-406.69 7.09,-348 22.98,-298.94 31.66,-281.78 75.09,-254 133.14,-216.87 317.3,-189.53 432.46,-175.54"/>
<polygon fill="black" stroke="black" stroke-width="2" points="433.19,-178.98 442.7,-174.31 432.35,-172.03 433.19,-178.98"/>
</g>
<!-- CS418 -->
<g id="node26" class="node">
<title>CS418</title>
<polygon fill="none" stroke="blue" stroke-width="2" points="462.59,-435 385.59,-435 385.59,-367 462.59,-367 462.59,-435"/>
<text text-anchor="start" x="397.59" y="-419.2" font-family="Arial" font-weight="bold" font-size="16.00">CS 418</text>
<text text-anchor="start" x="390.09" y="-394.2" font-family="Arial" font-size="16.00">Database</text>
<text text-anchor="start" x="400.09" y="-376.2" font-family="Arial" font-size="16.00">Design</text>
</g>
<!-- CS222&#45;&gt;CS418 -->
<g id="edge26" class="edge">
<title>CS222&#45;&gt;CS418</title>
<path fill="none" stroke="black" stroke-width="2" d="M422.41,-656.84C428.6,-641.68 435,-623.29 438.09,-606 447.91,-551.07 440.39,-486.69 433.13,-445.17"/>
<polygon fill="black" stroke="black" stroke-width="2" points="436.53,-444.34 431.3,-435.13 429.65,-445.59 436.53,-444.34"/>
</g>
<!-- UCCT1SS -->
<g id="node13" class="node">
<title>UCCT1SS</title>
<polygon fill="none" stroke="red" stroke-width="2" points="935.59,-711 816.59,-711 816.59,-671 935.59,-671 935.59,-711"/>
<text text-anchor="start" x="855.09" y="-695.2" font-family="Arial" font-weight="bold" font-size="16.00">Tier 1</text>
<text text-anchor="start" x="821.09" y="-679.2" font-family="Arial" font-weight="bold" font-size="16.00">Social Science</text>
</g>
<!-- UCCT1SS&#45;&gt;UCCT2NSS -->
<g id="edge15" class="edge">
<title>UCCT1SS&#45;&gt;UCCT2NSS:ucct2nss_top</title>
<path fill="none" stroke="black" stroke-width="2" stroke-dasharray="1,5" d="M863.37,-670.67C851.64,-651.15 835.61,-619.47 832.59,-588.14"/>
<polygon fill="black" stroke="black" stroke-width="2" points="836.08,-587.82 832.09,-578 829.09,-588.16 836.08,-587.82"/>
<text text-anchor="middle" x="856.59" y="-627.8" font-family="Arial" font-size="14.00"> &#160;or</text>
<polyline fill="none" stroke="black" points="867.09,-624 846.09,-624 845.54,-635.83 "/>
</g>
<!-- UCCT1HU -->
<g id="node14" class="node">
<title>UCCT1HU</title>
<polygon fill="none" stroke="red" stroke-width="2" points="1046.59,-711 953.59,-711 953.59,-671 1046.59,-671 1046.59,-711"/>
<text text-anchor="start" x="979.09" y="-695.2" font-family="Arial" font-weight="bold" font-size="16.00">Tier 1</text>
<text text-anchor="start" x="958.09" y="-679.2" font-family="Arial" font-weight="bold" font-size="16.00">Humanities</text>
</g>
<!-- UCCT2FDH -->
<g id="node21" class="node">
<title>UCCT2FDH</title>
<polygon fill="none" stroke="red" stroke-width="2" points="1146.09,-579 964.09,-579 964.09,-523 1146.09,-523 1146.09,-579"/>
<text text-anchor="start" x="1033.59" y="-563.2" font-family="Arial" font-weight="bold" font-size="16.00">Tier 2</text>
<text text-anchor="start" x="1010.59" y="-547.2" font-family="Arial" font-weight="bold" font-size="16.00">Fine Arts or</text>
<text text-anchor="start" x="974.09" y="-531.2" font-family="Arial" font-weight="bold" font-size="16.00">Design or Humanities</text>
</g>
<!-- UCCT1HU&#45;&gt;UCCT2FDH -->
<g id="edge13" class="edge">
<title>UCCT1HU&#45;&gt;UCCT2FDH:ucct2fdh_top</title>
<path fill="none" stroke="black" stroke-width="2" stroke-dasharray="1,5" d="M1016.3,-670.77C1031,-651.49 1050.92,-620.14 1054.52,-587.99"/>
<polygon fill="black" stroke="black" stroke-width="2" points="1058.02,-588.18 1055.09,-578 1051.03,-587.78 1058.02,-588.18"/>
</g>
<!-- UCCT1FA -->
<g id="node15" class="node">
<title>UCCT1FA</title>
<polygon fill="none" stroke="red" stroke-width="2" points="1141.59,-711 1064.59,-711 1064.59,-671 1141.59,-671 1141.59,-711"/>
<text text-anchor="start" x="1082.09" y="-695.2" font-family="Arial" font-weight="bold" font-size="16.00">Tier 1</text>
<text text-anchor="start" x="1069.09" y="-679.2" font-family="Arial" font-weight="bold" font-size="16.00">Fine Arts</text>
</g>
<!-- UCCT1FA&#45;&gt;UCCT2FDH -->
<g id="edge12" class="edge">
<title>UCCT1FA&#45;&gt;UCCT2FDH:ucct2fdh_top</title>
<path fill="none" stroke="black" stroke-width="2" stroke-dasharray="1,5" d="M1089.21,-670.84C1076.42,-651.44 1058.93,-619.88 1055.64,-588.25"/>
<polygon fill="black" stroke="black" stroke-width="2" points="1059.12,-587.8 1055.09,-578 1052.13,-588.17 1059.12,-587.8"/>
<text text-anchor="middle" x="1080.59" y="-627.8" font-family="Arial" font-size="14.00"> &#160;or</text>
<polyline fill="none" stroke="black" points="1091.09,-624 1070.09,-624 1069.77,-636.13 "/>
</g>
<!-- CS239&#45;&gt;CS495 -->
<!-- DANA100 -->
<g id="node24" class="node">
<title>DANA100</title>
<polygon fill="none" stroke="blue" stroke-width="2" points="277.09,-435 167.09,-435 167.09,-367 277.09,-367 277.09,-435"/>
<text text-anchor="start" x="184.09" y="-419.2" font-family="Arial" font-weight="bold" font-size="16.00">DANA 100</text>
<text text-anchor="start" x="172.09" y="-394.2" font-family="Arial" font-size="16.00">Introduction to</text>
<text text-anchor="start" x="171.09" y="-376.2" font-family="Arial" font-size="16.00">Data Analytics</text>
</g>
<!-- CS239&#45;&gt;DANA100 -->
<!-- CS239&#45;&gt;DANA320 -->
<!-- CS239&#45;&gt;CS418 -->
<!-- CS239&#45;&gt;CS421 -->
<!-- CS239&#45;&gt;CS455 -->
<!-- COMM210 -->
<g id="node18" class="node">
<title>COMM210</title>
<polygon fill="none" stroke="red" stroke-width="2" points="747.59,-585 658.59,-585 658.59,-517 747.59,-517 747.59,-585"/>
<text text-anchor="start" x="663.09" y="-569.2" font-family="Arial" font-weight="bold" font-size="16.00">COMM 210</text>
<text text-anchor="start" x="682.09" y="-544.2" font-family="Arial" font-size="16.00">Public</text>
<text text-anchor="start" x="671.09" y="-526.2" font-family="Arial" font-size="16.00">Speaking</text>
</g>
<!-- COMM210&#45;&gt;CS495 -->
<g id="edge19" class="edge">
<title>COMM210&#45;&gt;CS495</title>
<path fill="none" stroke="black" stroke-width="2" d="M710.44,-516.77C721.37,-458.59 735.53,-336.62 684.09,-254 669.91,-231.23 647.63,-213.68 624.34,-200.44"/>
<polygon fill="black" stroke="black" stroke-width="2" points="625.84,-197.27 615.38,-195.57 622.5,-203.42 625.84,-197.27"/>
</g>
<!-- Permission -->
<g id="node20" class="node">
<title>Permission</title>
<ellipse fill="none" stroke="blue" stroke-width="2" cx="616.09" cy="-296" rx="58.88" ry="25.41"/>
<text text-anchor="middle" x="616.09" y="-301.2" font-family="Arial" font-size="16.00">Permission:</text>
<text text-anchor="middle" x="616.09" y="-283.2" font-family="Arial" font-size="16.00">Final Year</text>
</g>
<!-- Permission&#45;&gt;CS495 -->
<g id="edge18" class="edge">
<title>Permission&#45;&gt;CS495</title>
<path fill="none" stroke="black" stroke-width="2" d="M600.34,-271.46C588.8,-254.22 572.8,-230.31 558.89,-209.52"/>
<polygon fill="black" stroke="black" stroke-width="2" points="561.74,-207.49 553.27,-201.13 555.92,-211.39 561.74,-207.49"/>
</g>
<!-- CS498 -->
<g id="node23" class="node">
<title>CS498</title>
<polygon fill="none" stroke="blue" stroke-width="2" points="632.59,-90 425.59,-90 425.59,-16 632.59,-16 632.59,-90"/>
<text text-anchor="start" x="502.59" y="-74.2" font-family="Arial" font-weight="bold" font-size="16.00">CS 498</text>
<text text-anchor="start" x="447.59" y="-49.2" font-family="Arial" font-size="16.00">Software Engineering 2</text>
<text text-anchor="start" x="430.09" y="-26.2" font-family="Arial" font-style="italic" font-size="16.00">BSU Core: Writing Intensive</text>
</g>
<!-- CS495&#45;&gt;CS498 -->
<g id="edge20" class="edge">
<title>CS495&#45;&gt;CS498</title>
<path fill="none" stroke="black" stroke-width="2" d="M529.09,-126.7C529.09,-118.25 529.09,-109.13 529.09,-100.3"/>
<polygon fill="black" stroke="black" stroke-width="2" points="532.59,-100.14 529.09,-90.14 525.59,-100.14 532.59,-100.14"/>
</g>
<!-- DANA100&#45;&gt;DANA320 -->
<!-- DANA320&#45;&gt;CS495 -->
</g>
</svg>
