<?xml version="1.0" encoding="UTF-8" standalone="no"?>
<!DOCTYPE svg PUBLIC "-//W3C//DTD SVG 1.1//EN"
 "http://www.w3.org/Graphics/SVG/1.1/DTD/svg11.dtd">
<!-- Generated by graphviz version 2.46.0 (20210118.1747)
 -->
<!-- Title: Cyber_Secure Pages: 1 -->
<svg width="1175pt" height="1087pt"
 viewBox="0.00 0.00 1174.50 1087.00" xmlns="http://www.w3.org/2000/svg" xmlns:xlink="http://www.w3.org/1999/xlink">
<g id="graph0" class="graph" transform="scale(1 1) rotate(0) translate(4 1083)">
<title>Cyber_Secure</title>
<polygon fill="white" stroke="transparent" points="-4,4 -4,-1083 1170.5,-1083 1170.5,4 -4,4"/>
<text text-anchor="middle" x="583.25" y="-1041.4" font-family="Arial" font-size="42.00">Cybersecurity &amp; Secure Software Development Concentration</text>
<g id="clust5" class="cluster">
<title>cluster_softeng</title>
<polygon fill="none" stroke="black" stroke-width="2" points="271,-8 271,-235 495,-235 495,-8 271,-8"/>
<text text-anchor="middle" x="383" y="-218.2" font-family="Arial" font-size="16.00">Senior Capstone Sequence</text>
</g>
<g id="clust6" class="cluster">
<title>cluster_cyber_secure</title>
<polygon fill="none" stroke="black" stroke-width="2" points="146,-254 146,-487 523,-487 523,-254 146,-254"/>
<text text-anchor="middle" x="334.5" y="-470.2" font-family="Arial" font-size="16.00">Required on Concentration</text>
</g>
<!-- CS120 -->
<g id="node1" class="node">
<title>CS120</title>
<polygon fill="none" stroke="blue" stroke-width="2" points="420,-1025 314,-1025 314,-933 420,-933 420,-1025"/>
<text text-anchor="start" x="340" y="-1009.2" font-family="Arial" font-weight="bold" font-size="16.00">CS 120</text>
<text text-anchor="start" x="333" y="-984.2" font-family="Arial" font-size="16.00">Computer</text>
<text text-anchor="start" x="331.5" y="-966.2" font-family="Arial" font-size="16.00">Science 1</text>
<text text-anchor="start" x="318" y="-943.2" font-family="Arial" font-style="italic" font-size="16.00">4 credit hours</text>
</g>
<!-- CS121 -->
<g id="node5" class="node">
<title>CS121</title>
<polygon fill="none" stroke="blue" stroke-width="2" points="308,-884 202,-884 202,-792 308,-792 308,-884"/>
<text text-anchor="start" x="228" y="-868.2" font-family="Arial" font-weight="bold" font-size="16.00">CS 121</text>
<text text-anchor="start" x="221" y="-843.2" font-family="Arial" font-size="16.00">Computer</text>
<text text-anchor="start" x="219.5" y="-825.2" font-family="Arial" font-size="16.00">Science 2</text>
<text text-anchor="start" x="206" y="-802.2" font-family="Arial" font-style="italic" font-size="16.00">4 credit hours</text>
</g>
<!-- CS120&#45;&gt;CS121 -->
<g id="edge1" class="edge">
<title>CS120&#45;&gt;CS121</title>
<path fill="none" stroke="black" stroke-width="2" d="M330.64,-932.87C320.17,-919.88 308.66,-905.59 297.84,-892.17"/>
<polygon fill="black" stroke="black" stroke-width="2" points="300.56,-889.97 291.56,-884.38 295.11,-894.36 300.56,-889.97"/>
</g>
<!-- CS124 -->
<g id="node6" class="node">
<title>CS124</title>
<polygon fill="none" stroke="blue" stroke-width="2" points="407.5,-872 326.5,-872 326.5,-804 407.5,-804 407.5,-872"/>
<text text-anchor="start" x="340.5" y="-856.2" font-family="Arial" font-weight="bold" font-size="16.00">CS 124</text>
<text text-anchor="start" x="337.5" y="-831.2" font-family="Arial" font-size="16.00">Discrete</text>
<text text-anchor="start" x="331" y="-813.2" font-family="Arial" font-size="16.00">Structures</text>
</g>
<!-- CS120&#45;&gt;CS124 -->
<g id="edge2" class="edge">
<title>CS120&#45;&gt;CS124</title>
<path fill="none" stroke="black" stroke-width="2" stroke-dasharray="5,2" d="M367,-932.87C367,-916.61 367,-898.32 367,-882.23"/>
<polygon fill="black" stroke="black" stroke-width="2" points="370.5,-882.02 367,-872.02 363.5,-882.02 370.5,-882.02"/>
<text text-anchor="middle" x="413" y="-905.4" font-family="Arial" font-size="12.00"> prereq or parallel</text>
<polyline fill="none" stroke="black" points="459,-902 367,-902 367,-908.3 "/>
</g>
<!-- CS203 -->
<g id="node24" class="node">
<title>CS203</title>
<polygon fill="none" stroke="blue" stroke-width="2" points="515,-453 439,-453 439,-367 515,-367 515,-453"/>
<text text-anchor="start" x="450" y="-437.2" font-family="Arial" font-weight="bold" font-size="16.00">CS 203</text>
<text text-anchor="start" x="452" y="-412.2" font-family="Arial" font-size="16.00">Intro to</text>
<text text-anchor="start" x="443" y="-394.2" font-family="Arial" font-size="16.00">Computer</text>
<text text-anchor="start" x="448" y="-376.2" font-family="Arial" font-size="16.00">Security</text>
</g>
<!-- CS120&#45;&gt;CS203 -->
<g id="edge21" class="edge">
<title>CS120&#45;&gt;CS203</title>
<path fill="none" stroke="black" stroke-width="2" d="M420.32,-939.25C423.57,-937.1 426.81,-935 430,-933 444.16,-924.13 453.2,-928.53 463,-915 483.15,-887.18 477,-873.35 477,-839 477,-839 477,-839 477,-568 477,-533.1 477,-493.84 477,-463.31"/>
<polygon fill="black" stroke="black" stroke-width="2" points="480.5,-463.31 477,-453.31 473.5,-463.31 480.5,-463.31"/>
</g>
<!-- HIST150 -->
<g id="node2" class="node">
<title>HIST150</title>
<polygon fill="none" stroke="red" stroke-width="2" points="531.5,-1013 438.5,-1013 438.5,-945 531.5,-945 531.5,-1013"/>
<text text-anchor="start" x="452" y="-997.2" font-family="Arial" font-weight="bold" font-size="16.00">HIST 150</text>
<text text-anchor="start" x="443" y="-972.2" font-family="Arial" font-size="16.00">The West in</text>
<text text-anchor="start" x="451.5" y="-954.2" font-family="Arial" font-size="16.00">the World</text>
</g>
<!-- UCCPFW -->
<g id="node3" class="node">
<title>UCCPFW</title>
<polygon fill="none" stroke="red" stroke-width="2" points="696.5,-1011 549.5,-1011 549.5,-947 696.5,-947 696.5,-1011"/>
<text text-anchor="start" x="591.5" y="-995.2" font-family="Arial" font-weight="bold" font-size="16.00">Physcial</text>
<text text-anchor="start" x="554" y="-979.2" font-family="Arial" font-weight="bold" font-size="16.00">Fitness / Wellness</text>
<text text-anchor="start" x="574.5" y="-957.2" font-family="Arial" font-style="italic" font-size="16.00">2 credit hours</text>
</g>
<!-- ENG103 -->
<g id="node4" class="node">
<title>ENG103</title>
<polygon fill="none" stroke="red" stroke-width="2" points="191.5,-1004 54.5,-1004 54.5,-954 191.5,-954 191.5,-1004"/>
<text text-anchor="start" x="91" y="-988.2" font-family="Arial" font-weight="bold" font-size="16.00">ENG 103</text>
<text text-anchor="start" x="59" y="-963.2" font-family="Arial" font-size="16.00">Rhetoric &amp; Writing</text>
</g>
<!-- ENG104 -->
<g id="node7" class="node">
<title>ENG104</title>
<polygon fill="none" stroke="red" stroke-width="2" points="166.5,-879 79.5,-879 79.5,-797 166.5,-797 166.5,-879"/>
<text text-anchor="start" x="91" y="-863.2" font-family="Arial" font-weight="bold" font-size="16.00">ENG 104</text>
<text text-anchor="start" x="100" y="-847.2" font-family="Arial" font-size="16.00">or </text>
<text text-anchor="start" x="119" y="-847.2" font-family="Arial" font-weight="bold" font-size="16.00">114</text>
<text text-anchor="start" x="84" y="-824.2" font-family="Arial" font-size="16.00">Composing</text>
<text text-anchor="start" x="89" y="-806.2" font-family="Arial" font-size="16.00">Research</text>
</g>
<!-- ENG103&#45;&gt;ENG104 -->
<g id="edge9" class="edge">
<title>ENG103&#45;&gt;ENG104</title>
<path fill="none" stroke="black" stroke-width="2" d="M123,-953.79C123,-936.06 123,-911.37 123,-889.43"/>
<polygon fill="black" stroke="black" stroke-width="2" points="126.5,-889.25 123,-879.25 119.5,-889.25 126.5,-889.25"/>
</g>
<!-- CS222 -->
<g id="node11" class="node">
<title>CS222</title>
<polygon fill="none" stroke="blue" stroke-width="2" points="227,-743 115,-743 115,-675 227,-675 227,-743"/>
<text text-anchor="start" x="144" y="-727.2" font-family="Arial" font-weight="bold" font-size="16.00">CS 222</text>
<text text-anchor="start" x="136" y="-702.2" font-family="Arial" font-size="16.00">Advanced</text>
<text text-anchor="start" x="125" y="-684.2" font-family="Arial" font-size="16.00">Programming</text>
</g>
<!-- CS121&#45;&gt;CS222 -->
<g id="edge7" class="edge">
<title>CS121&#45;&gt;CS222:cs222_top</title>
<path fill="none" stroke="black" stroke-width="2" d="M238.21,-791.65C232.47,-780.57 225.13,-769.47 216,-761 203.57,-749.46 183.1,-757.61 174.73,-751.37"/>
<polygon fill="black" stroke="black" stroke-width="2" points="177.95,-749.99 171,-742 171.45,-752.59 177.95,-749.99"/>
</g>
<!-- CS224 -->
<g id="node12" class="node">
<title>CS224</title>
<polygon fill="none" stroke="blue" stroke-width="2" points="448.5,-734 355.5,-734 355.5,-684 448.5,-684 448.5,-734"/>
<text text-anchor="start" x="375.5" y="-718.2" font-family="Arial" font-weight="bold" font-size="16.00">CS 224</text>
<text text-anchor="start" x="366" y="-693.2" font-family="Arial" font-size="16.00">Algorithms</text>
</g>
<!-- CS121&#45;&gt;CS224 -->
<g id="edge4" class="edge">
<title>CS121&#45;&gt;CS224:cs224_top</title>
<path fill="none" stroke="black" stroke-width="2" d="M308.24,-798.9C311.54,-796.56 314.81,-794.24 318,-792 352.52,-767.7 395.29,-777.05 402.07,-743.17"/>
<polygon fill="black" stroke="black" stroke-width="2" points="405.58,-743.28 403,-733 398.61,-742.64 405.58,-743.28"/>
</g>
<!-- CS230 -->
<g id="node16" class="node">
<title>CS230</title>
<polygon fill="none" stroke="blue" stroke-width="2" points="366.5,-612 255.5,-612 255.5,-526 366.5,-526 366.5,-612"/>
<text text-anchor="start" x="284.5" y="-596.2" font-family="Arial" font-weight="bold" font-size="16.00">CS 230</text>
<text text-anchor="start" x="277.5" y="-571.2" font-family="Arial" font-size="16.00">Computer</text>
<text text-anchor="start" x="260" y="-553.2" font-family="Arial" font-size="16.00">Organization &amp;</text>
<text text-anchor="start" x="269" y="-535.2" font-family="Arial" font-size="16.00">Architecture</text>
</g>
<!-- CS121&#45;&gt;CS230 -->
<g id="edge3" class="edge">
<title>CS121&#45;&gt;CS230</title>
<path fill="none" stroke="black" stroke-width="2" d="M264.5,-791.71C274.34,-744.8 289.69,-671.59 300.04,-622.26"/>
<polygon fill="black" stroke="black" stroke-width="2" points="303.47,-622.93 302.1,-612.42 296.62,-621.49 303.47,-622.93"/>
</g>
<!-- CS124&#45;&gt;CS222 -->
<g id="edge8" class="edge">
<title>CS124&#45;&gt;CS222:cs222_top</title>
<path fill="none" stroke="black" stroke-width="2" d="M333.64,-803.98C328.32,-799.61 322.69,-795.46 317,-792 283.73,-771.73 271.92,-773.44 235,-761 211.06,-752.93 181.48,-766.34 173.23,-752.18"/>
<polygon fill="black" stroke="black" stroke-width="2" points="176.56,-751.02 171,-742 169.72,-752.52 176.56,-751.02"/>
</g>
<!-- CS124&#45;&gt;CS224 -->
<g id="edge5" class="edge">
<title>CS124&#45;&gt;CS224:cs224_top</title>
<path fill="none" stroke="black" stroke-width="2" d="M384.79,-803.81C392.62,-786.59 400.5,-764.7 402.51,-743.18"/>
<polygon fill="black" stroke="black" stroke-width="2" points="406.02,-743.16 403,-733 399.02,-742.82 406.02,-743.16"/>
</g>
<!-- CS124&#45;&gt;CS230 -->
<g id="edge6" class="edge">
<title>CS124&#45;&gt;CS230</title>
<path fill="none" stroke="black" stroke-width="2" d="M359.93,-803.95C356.09,-785.93 351.26,-763.25 347,-743 338.46,-702.42 328.9,-656.47 321.78,-622.13"/>
<polygon fill="black" stroke="black" stroke-width="2" points="325.21,-621.4 319.75,-612.31 318.35,-622.82 325.21,-621.4"/>
</g>
<!-- ENG104&#45;&gt;CS222 -->
<g id="edge10" class="edge">
<title>ENG104&#45;&gt;CS222</title>
<path fill="none" stroke="black" stroke-width="2" stroke-dasharray="5,2" d="M118.18,-796.89C118.15,-784.98 119.56,-772.16 124,-761 125.29,-757.77 126.88,-754.62 128.7,-751.57"/>
<polygon fill="black" stroke="black" stroke-width="2" points="131.61,-753.51 134.33,-743.28 125.82,-749.58 131.61,-753.51"/>
<text text-anchor="middle" x="170" y="-764.4" font-family="Arial" font-size="12.00"> prereq or parallel</text>
<polyline fill="none" stroke="black" points="216,-761 124,-761 128.69,-751.59 "/>
</g>
<!-- UCCT1NS -->
<g id="node8" class="node">
<title>UCCT1NS</title>
<polygon fill="none" stroke="red" stroke-width="2" points="935,-882 809,-882 809,-794 935,-794 935,-882"/>
<text text-anchor="start" x="850.5" y="-866.2" font-family="Arial" font-weight="bold" font-size="16.00">Tier 1</text>
<text text-anchor="start" x="813" y="-850.2" font-family="Arial" font-weight="bold" font-size="16.00">Natural Science</text>
<text text-anchor="start" x="814" y="-828.2" font-family="Arial" font-style="italic" font-size="16.00">CS Lab Science</text>
<text text-anchor="start" x="814" y="-804.2" font-family="Arial" font-style="italic" font-size="16.00">3–5 credit hours</text>
</g>
<!-- UCCT2NSS -->
<g id="node19" class="node">
<title>UCCT2NSS</title>
<polygon fill="none" stroke="red" stroke-width="2" points="870.5,-597 739.5,-597 739.5,-541 870.5,-541 870.5,-597"/>
<text text-anchor="start" x="784" y="-581.2" font-family="Arial" font-weight="bold" font-size="16.00">Tier 2</text>
<text text-anchor="start" x="768.5" y="-565.2" font-family="Arial" font-weight="bold" font-size="16.00">Natural or</text>
<text text-anchor="start" x="750" y="-549.2" font-family="Arial" font-weight="bold" font-size="16.00">Social Science</text>
</g>
<!-- UCCT1NS&#45;&gt;UCCT2NSS -->
<g id="edge14" class="edge">
<title>UCCT1NS&#45;&gt;UCCT2NSS:ucct2nss_top</title>
<path fill="none" stroke="black" stroke-width="2" stroke-dasharray="1,5" d="M871.81,-793.98C870.52,-760.7 866.18,-713.89 853,-675 841.07,-639.78 811.92,-637.07 806.78,-606.07"/>
<polygon fill="black" stroke="black" stroke-width="2" points="810.26,-605.7 806,-596 803.28,-606.24 810.26,-605.7"/>
</g>
<!-- UCCPFIN -->
<g id="node9" class="node">
<title>UCCPFIN</title>
<polygon fill="none" stroke="red" stroke-width="2" points="1051,-870 953,-870 953,-806 1051,-806 1051,-870"/>
<text text-anchor="start" x="968.5" y="-854.2" font-family="Arial" font-weight="bold" font-size="16.00">Personal</text>
<text text-anchor="start" x="971.5" y="-838.2" font-family="Arial" font-weight="bold" font-size="16.00">Finance</text>
<text text-anchor="start" x="957" y="-816.2" font-family="Arial" font-style="italic" font-size="16.00">1 credit hour</text>
</g>
<!-- MATH181 -->
<g id="node10" class="node">
<title>MATH181</title>
<polygon fill="none" stroke="blue" stroke-width="2" points="1166.5,-881 1069.5,-881 1069.5,-795 1166.5,-795 1166.5,-881"/>
<text text-anchor="start" x="1080.5" y="-865.2" font-family="Arial" font-weight="bold" font-size="16.00">MATH 181</text>
<text text-anchor="start" x="1079" y="-840.2" font-family="Arial" font-size="16.00">Elementary</text>
<text text-anchor="start" x="1074" y="-822.2" font-family="Arial" font-size="16.00">Probability &amp;</text>
<text text-anchor="start" x="1085.5" y="-804.2" font-family="Arial" font-size="16.00">Statistics</text>
</g>
<!-- CS239 -->
<g id="node17" class="node">
<title>CS239</title>
<polygon fill="none" stroke="blue" stroke-width="2" points="98,-624 0,-624 0,-514 98,-514 98,-624"/>
<text text-anchor="start" x="22" y="-608.2" font-family="Arial" font-weight="bold" font-size="16.00">CS 239</text>
<text text-anchor="start" x="19.5" y="-583.2" font-family="Arial" font-size="16.00">Social &amp;</text>
<text text-anchor="start" x="5" y="-565.2" font-family="Arial" font-size="16.00">Professional</text>
<text text-anchor="start" x="25.5" y="-547.2" font-family="Arial" font-size="16.00">Issues</text>
<text text-anchor="start" x="4" y="-524.2" font-family="Arial" font-style="italic" font-size="16.00">1 credit hour</text>
</g>
<!-- CS222&#45;&gt;CS239 -->
<g id="edge11" class="edge">
<title>CS222&#45;&gt;CS239</title>
<path fill="none" stroke="black" stroke-width="2" d="M130.17,-674.9C123.86,-669.17 117.58,-663.09 112,-657 105.03,-649.4 98.12,-641.02 91.59,-632.55"/>
<polygon fill="black" stroke="black" stroke-width="2" points="94.27,-630.3 85.44,-624.43 88.69,-634.52 94.27,-630.3"/>
</g>
<!-- CS495 -->
<g id="node22" class="node">
<title>CS495</title>
<polygon fill="none" stroke="blue" stroke-width="2" points="469,-201 297,-201 297,-127 469,-127 469,-201"/>
<text text-anchor="start" x="356" y="-185.2" font-family="Arial" font-weight="bold" font-size="16.00">CS 495</text>
<text text-anchor="start" x="301" y="-160.2" font-family="Arial" font-size="16.00">Software Engineering 1</text>
<text text-anchor="start" x="322" y="-137.2" font-family="Arial" font-style="italic" font-size="16.00">BSU Core: Tier 3</text>
</g>
<!-- CS222&#45;&gt;CS495 -->
<g id="edge16" class="edge">
<title>CS222&#45;&gt;CS495</title>
<path fill="none" stroke="black" stroke-width="2" d="M153.73,-674.95C141.04,-647.59 126,-607.3 126,-570 126,-570 126,-570 126,-295 126,-220.26 213.61,-188.48 286.53,-174.97"/>
<polygon fill="black" stroke="black" stroke-width="2" points="287.46,-178.36 296.71,-173.19 286.25,-171.47 287.46,-178.36"/>
</g>
<!-- CS418 -->
<g id="node27" class="node">
<title>CS418</title>
<polygon fill="none" stroke="blue" stroke-width="2" points="231.5,-444 154.5,-444 154.5,-376 231.5,-376 231.5,-444"/>
<text text-anchor="start" x="166.5" y="-428.2" font-family="Arial" font-weight="bold" font-size="16.00">CS 418</text>
<text text-anchor="start" x="159" y="-403.2" font-family="Arial" font-size="16.00">Database</text>
<text text-anchor="start" x="169" y="-385.2" font-family="Arial" font-size="16.00">Design</text>
</g>
<!-- CS222&#45;&gt;CS418 -->
<g id="edge24" class="edge">
<title>CS222&#45;&gt;CS418</title>
<path fill="none" stroke="black" stroke-width="2" d="M173.46,-674.79C177.45,-620.96 185.32,-514.63 189.76,-454.72"/>
<polygon fill="black" stroke="black" stroke-width="2" points="193.27,-454.68 190.52,-444.45 186.29,-454.16 193.27,-454.68"/>
</g>
<!-- CS419 -->
<g id="node28" class="node">
<title>CS419</title>
<polygon fill="none" stroke="blue" stroke-width="2" points="326.5,-444 249.5,-444 249.5,-376 326.5,-376 326.5,-444"/>
<text text-anchor="start" x="261.5" y="-428.2" font-family="Arial" font-weight="bold" font-size="16.00">CS 419</text>
<text text-anchor="start" x="254" y="-403.2" font-family="Arial" font-size="16.00">Operating</text>
<text text-anchor="start" x="258" y="-385.2" font-family="Arial" font-size="16.00">Systems</text>
</g>
<!-- CS222&#45;&gt;CS419 -->
<g id="edge25" class="edge">
<title>CS222&#45;&gt;CS419</title>
<path fill="none" stroke="black" stroke-width="2" d="M183.99,-674.68C199.08,-636.02 224.75,-570.35 247,-514 254.83,-494.18 263.55,-472.24 270.93,-453.72"/>
<polygon fill="black" stroke="black" stroke-width="2" points="274.21,-454.97 274.66,-444.38 267.7,-452.37 274.21,-454.97"/>
</g>
<!-- CS224&#45;&gt;CS203 -->
<!-- CS416 -->
<g id="node26" class="node">
<title>CS416</title>
<polygon fill="none" stroke="blue" stroke-width="2" points="421,-444 345,-444 345,-376 421,-376 421,-444"/>
<text text-anchor="start" x="356" y="-428.2" font-family="Arial" font-weight="bold" font-size="16.00">CS 416</text>
<text text-anchor="start" x="349" y="-403.2" font-family="Arial" font-size="16.00">Computer</text>
<text text-anchor="start" x="350" y="-385.2" font-family="Arial" font-size="16.00">Networks</text>
</g>
<!-- CS224&#45;&gt;CS416 -->
<g id="edge23" class="edge">
<title>CS224&#45;&gt;CS416</title>
<path fill="none" stroke="black" stroke-width="2" d="M400.46,-683.95C397.26,-633.84 389.83,-517.7 385.77,-454.26"/>
<polygon fill="black" stroke="black" stroke-width="2" points="389.25,-453.93 385.12,-444.18 382.27,-454.38 389.25,-453.93"/>
</g>
<!-- UCCT1SS -->
<g id="node13" class="node">
<title>UCCT1SS</title>
<polygon fill="none" stroke="red" stroke-width="2" points="843.5,-729 724.5,-729 724.5,-689 843.5,-689 843.5,-729"/>
<text text-anchor="start" x="763" y="-713.2" font-family="Arial" font-weight="bold" font-size="16.00">Tier 1</text>
<text text-anchor="start" x="729" y="-697.2" font-family="Arial" font-weight="bold" font-size="16.00">Social Science</text>
</g>
<!-- UCCT1SS&#45;&gt;UCCT2NSS -->
<g id="edge15" class="edge">
<title>UCCT1SS&#45;&gt;UCCT2NSS:ucct2nss_top</title>
<path fill="none" stroke="black" stroke-width="2" stroke-dasharray="1,5" d="M790.13,-688.8C795.98,-668.92 804.13,-636.57 805.72,-606.2"/>
<polygon fill="black" stroke="black" stroke-width="2" points="809.23,-606.09 806,-596 802.23,-605.9 809.23,-606.09"/>
<text text-anchor="middle" x="811.5" y="-645.8" font-family="Arial" font-size="14.00"> &#160;or</text>
<polyline fill="none" stroke="black" points="822,-642 801,-642 800.34,-647.36 "/>
</g>
<!-- UCCT1HU -->
<g id="node14" class="node">
<title>UCCT1HU</title>
<polygon fill="none" stroke="red" stroke-width="2" points="1090.5,-729 997.5,-729 997.5,-689 1090.5,-689 1090.5,-729"/>
<text text-anchor="start" x="1023" y="-713.2" font-family="Arial" font-weight="bold" font-size="16.00">Tier 1</text>
<text text-anchor="start" x="1002" y="-697.2" font-family="Arial" font-weight="bold" font-size="16.00">Humanities</text>
</g>
<!-- UCCT2FDH -->
<g id="node21" class="node">
<title>UCCT2FDH</title>
<polygon fill="none" stroke="red" stroke-width="2" points="1114,-597 932,-597 932,-541 1114,-541 1114,-597"/>
<text text-anchor="start" x="1001.5" y="-581.2" font-family="Arial" font-weight="bold" font-size="16.00">Tier 2</text>
<text text-anchor="start" x="978.5" y="-565.2" font-family="Arial" font-weight="bold" font-size="16.00">Fine Arts or</text>
<text text-anchor="start" x="942" y="-549.2" font-family="Arial" font-weight="bold" font-size="16.00">Design or Humanities</text>
</g>
<!-- UCCT1HU&#45;&gt;UCCT2FDH -->
<g id="edge13" class="edge">
<title>UCCT1HU&#45;&gt;UCCT2FDH:ucct2fdh_top</title>
<path fill="none" stroke="black" stroke-width="2" stroke-dasharray="1,5" d="M1038.15,-688.78C1032.57,-668.88 1024.79,-636.52 1023.26,-606.19"/>
<polygon fill="black" stroke="black" stroke-width="2" points="1026.76,-605.91 1023,-596 1019.76,-606.09 1026.76,-605.91"/>
</g>
<!-- UCCT1FA -->
<g id="node15" class="node">
<title>UCCT1FA</title>
<polygon fill="none" stroke="red" stroke-width="2" points="979.5,-729 902.5,-729 902.5,-689 979.5,-689 979.5,-729"/>
<text text-anchor="start" x="920" y="-713.2" font-family="Arial" font-weight="bold" font-size="16.00">Tier 1</text>
<text text-anchor="start" x="907" y="-697.2" font-family="Arial" font-weight="bold" font-size="16.00">Fine Arts</text>
</g>
<!-- UCCT1FA&#45;&gt;UCCT2FDH -->
<g id="edge12" class="edge">
<title>UCCT1FA&#45;&gt;UCCT2FDH:ucct2fdh_top</title>
<path fill="none" stroke="black" stroke-width="2" stroke-dasharray="1,5" d="M959.61,-688.68C980.49,-666.26 1012.56,-629.37 1020.94,-605.99"/>
<polygon fill="black" stroke="black" stroke-width="2" points="1024.41,-606.5 1023,-596 1017.55,-605.09 1024.41,-606.5"/>
<text text-anchor="middle" x="1008.5" y="-645.8" font-family="Arial" font-size="14.00"> &#160;or</text>
<polyline fill="none" stroke="black" points="1019,-642 998,-642 999,-642.44 "/>
</g>
<!-- CS230&#45;&gt;CS203 -->
<!-- CS230&#45;&gt;CS416 -->
<!-- CS230&#45;&gt;CS418 -->
<!-- CS230&#45;&gt;CS419 -->
<g id="edge26" class="edge">
<title>CS230&#45;&gt;CS419</title>
<path fill="none" stroke="black" stroke-width="2" d="M304.84,-525.93C301.58,-503.71 297.6,-476.5 294.32,-454.13"/>
<polygon fill="black" stroke="black" stroke-width="2" points="297.78,-453.62 292.87,-444.23 290.86,-454.63 297.78,-453.62"/>
</g>
<!-- CS239&#45;&gt;CS495 -->
<!-- COMM210 -->
<g id="node18" class="node">
<title>COMM210</title>
<polygon fill="none" stroke="red" stroke-width="2" points="721.5,-603 632.5,-603 632.5,-535 721.5,-535 721.5,-603"/>
<text text-anchor="start" x="637" y="-587.2" font-family="Arial" font-weight="bold" font-size="16.00">COMM 210</text>
<text text-anchor="start" x="656" y="-562.2" font-family="Arial" font-size="16.00">Public</text>
<text text-anchor="start" x="645" y="-544.2" font-family="Arial" font-size="16.00">Speaking</text>
</g>
<!-- COMM210&#45;&gt;CS495 -->
<g id="edge19" class="edge">
<title>COMM210&#45;&gt;CS495</title>
<path fill="none" stroke="black" stroke-width="2" d="M685.96,-534.97C700.68,-472.78 722.38,-337.11 658,-254 616.01,-199.79 540.49,-178.1 479.21,-169.65"/>
<polygon fill="black" stroke="black" stroke-width="2" points="479.48,-166.16 469.11,-168.36 478.59,-173.1 479.48,-166.16"/>
</g>
<!-- Permission -->
<g id="node20" class="node">
<title>Permission</title>
<ellipse fill="none" stroke="blue" stroke-width="2" cx="590" cy="-296" rx="58.88" ry="25.41"/>
<text text-anchor="middle" x="590" y="-301.2" font-family="Arial" font-size="16.00">Permission:</text>
<text text-anchor="middle" x="590" y="-283.2" font-family="Arial" font-size="16.00">Final Year</text>
</g>
<!-- Permission&#45;&gt;CS495 -->
<g id="edge18" class="edge">
<title>Permission&#45;&gt;CS495</title>
<path fill="none" stroke="black" stroke-width="2" d="M558.69,-274.42C548.6,-267.84 537.36,-260.57 527,-254 502.24,-238.3 474.92,-221.32 450.78,-206.44"/>
<polygon fill="black" stroke="black" stroke-width="2" points="452.4,-203.33 442.05,-201.06 448.73,-209.29 452.4,-203.33"/>
</g>
<!-- CS498 -->
<g id="node23" class="node">
<title>CS498</title>
<polygon fill="none" stroke="blue" stroke-width="2" points="486.5,-90 279.5,-90 279.5,-16 486.5,-16 486.5,-90"/>
<text text-anchor="start" x="356.5" y="-74.2" font-family="Arial" font-weight="bold" font-size="16.00">CS 498</text>
<text text-anchor="start" x="301.5" y="-49.2" font-family="Arial" font-size="16.00">Software Engineering 2</text>
<text text-anchor="start" x="284" y="-26.2" font-family="Arial" font-style="italic" font-size="16.00">BSU Core: Writing Intensive</text>
</g>
<!-- CS495&#45;&gt;CS498 -->
<g id="edge20" class="edge">
<title>CS495&#45;&gt;CS498</title>
<path fill="none" stroke="black" stroke-width="2" d="M383,-126.7C383,-118.25 383,-109.13 383,-100.3"/>
<polygon fill="black" stroke="black" stroke-width="2" points="386.5,-100.14 383,-90.14 379.5,-100.14 386.5,-100.14"/>
</g>
<!-- CS249 -->
<g id="node25" class="node">
<title>CS249</title>
<polygon fill="none" stroke="blue" stroke-width="2" points="513,-321 435,-321 435,-271 513,-271 513,-321"/>
<text text-anchor="start" x="447" y="-305.2" font-family="Arial" font-weight="bold" font-size="16.00">CS 249</text>
<text text-anchor="start" x="439" y="-280.2" font-family="Arial" font-size="16.00">Forensics</text>
</g>
<!-- CS203&#45;&gt;CS249 -->
<g id="edge22" class="edge">
<title>CS203&#45;&gt;CS249</title>
<path fill="none" stroke="black" stroke-width="2" d="M475.87,-366.98C475.56,-355.22 475.22,-342.58 474.92,-331.32"/>
<polygon fill="black" stroke="black" stroke-width="2" points="478.41,-330.93 474.64,-321.03 471.41,-331.12 478.41,-330.93"/>
</g>
<!-- CS447 -->
<g id="node29" class="node">
<title>CS447</title>
<polygon fill="none" stroke="blue" stroke-width="2" points="416,-330 350,-330 350,-262 416,-262 416,-330"/>
<text text-anchor="start" x="356" y="-314.2" font-family="Arial" font-weight="bold" font-size="16.00">CS 447</text>
<text text-anchor="start" x="354" y="-289.2" font-family="Arial" font-size="16.00">Network</text>
<text text-anchor="start" x="354" y="-271.2" font-family="Arial" font-size="16.00">Security</text>
</g>
<!-- CS416&#45;&gt;CS447 -->
<g id="edge27" class="edge">
<title>CS416&#45;&gt;CS447</title>
<path fill="none" stroke="black" stroke-width="2" d="M383,-375.7C383,-364.63 383,-352.13 383,-340.41"/>
<polygon fill="black" stroke="black" stroke-width="2" points="386.5,-340.37 383,-330.37 379.5,-340.37 386.5,-340.37"/>
</g>
<!-- CS447&#45;&gt;CS495 -->
</g>
</svg>
