<?xml version="1.0" encoding="UTF-8" standalone="no"?>
<!DOCTYPE svg PUBLIC "-//W3C//DTD SVG 1.1//EN"
 "http://www.w3.org/Graphics/SVG/1.1/DTD/svg11.dtd">
<!-- Generated by graphviz version 2.46.0 (20210118.1747)
 -->
<!-- Title: CSmajorCore Pages: 1 -->
<svg width="983pt" height="824pt"
 viewBox="0.00 0.00 983.00 824.00" xmlns="http://www.w3.org/2000/svg" xmlns:xlink="http://www.w3.org/1999/xlink">
<g id="graph0" class="graph" transform="scale(1 1) rotate(0) translate(4 820)">
<title>CSmajorCore</title>
<polygon fill="white" stroke="transparent" points="-4,4 -4,-820 979,-820 979,4 -4,4"/>
<text text-anchor="middle" x="487.5" y="-786.4" font-family="Arial" font-size="32.00">Proposed CS Major Core Courses</text>
<g id="clust5" class="cluster">
<title>cluster_softeng</title>
<polygon fill="none" stroke="black" stroke-width="2" points="228,-8 228,-235 452,-235 452,-8 228,-8"/>
<text text-anchor="middle" x="340" y="-218.2" font-family="Arial" font-size="16.00">Senior Capstone Sequence</text>
</g>
<!-- CS120 -->
<g id="node1" class="node">
<title>CS120</title>
<polygon fill="none" stroke="blue" stroke-width="2" points="180,-773 74,-773 74,-681 180,-681 180,-773"/>
<text text-anchor="start" x="100" y="-757.2" font-family="Arial" font-weight="bold" font-size="16.00">CS 120</text>
<text text-anchor="start" x="93" y="-732.2" font-family="Arial" font-size="16.00">Computer</text>
<text text-anchor="start" x="91.5" y="-714.2" font-family="Arial" font-size="16.00">Science 1</text>
<text text-anchor="start" x="78" y="-691.2" font-family="Arial" font-style="italic" font-size="16.00">4 credit hours</text>
</g>
<!-- CS121 -->
<g id="node5" class="node">
<title>CS121</title>
<polygon fill="none" stroke="blue" stroke-width="2" points="106,-632 0,-632 0,-540 106,-540 106,-632"/>
<text text-anchor="start" x="26" y="-616.2" font-family="Arial" font-weight="bold" font-size="16.00">CS 121</text>
<text text-anchor="start" x="19" y="-591.2" font-family="Arial" font-size="16.00">Computer</text>
<text text-anchor="start" x="17.5" y="-573.2" font-family="Arial" font-size="16.00">Science 2</text>
<text text-anchor="start" x="4" y="-550.2" font-family="Arial" font-style="italic" font-size="16.00">4 credit hours</text>
</g>
<!-- CS120&#45;&gt;CS121 -->
<g id="edge1" class="edge">
<title>CS120&#45;&gt;CS121</title>
<path fill="none" stroke="black" stroke-width="2" d="M102.97,-680.87C96.25,-668.25 88.88,-654.39 81.91,-641.3"/>
<polygon fill="black" stroke="black" stroke-width="2" points="84.95,-639.56 77.16,-632.38 78.77,-642.85 84.95,-639.56"/>
</g>
<!-- CS124 -->
<g id="node6" class="node">
<title>CS124</title>
<polygon fill="none" stroke="blue" stroke-width="2" points="205.5,-620 124.5,-620 124.5,-552 205.5,-552 205.5,-620"/>
<text text-anchor="start" x="138.5" y="-604.2" font-family="Arial" font-weight="bold" font-size="16.00">CS 124</text>
<text text-anchor="start" x="135.5" y="-579.2" font-family="Arial" font-size="16.00">Discrete</text>
<text text-anchor="start" x="129" y="-561.2" font-family="Arial" font-size="16.00">Structures</text>
</g>
<!-- CS120&#45;&gt;CS124 -->
<g id="edge2" class="edge">
<title>CS120&#45;&gt;CS124</title>
<path fill="none" stroke="black" stroke-width="2" stroke-dasharray="5,2" d="M139.34,-680.87C143.82,-664.46 148.88,-645.97 153.31,-629.77"/>
<polygon fill="black" stroke="black" stroke-width="2" points="156.71,-630.59 155.97,-620.02 149.96,-628.74 156.71,-630.59"/>
<text text-anchor="middle" x="194" y="-653.4" font-family="Arial" font-size="12.00"> prereq or parallel</text>
<polyline fill="none" stroke="black" points="240,-650 148,-650 149.34,-644.29 "/>
</g>
<!-- HIST150 -->
<g id="node2" class="node">
<title>HIST150</title>
<polygon fill="none" stroke="red" stroke-width="2" points="446.5,-761 353.5,-761 353.5,-693 446.5,-693 446.5,-761"/>
<text text-anchor="start" x="367" y="-745.2" font-family="Arial" font-weight="bold" font-size="16.00">HIST 150</text>
<text text-anchor="start" x="358" y="-720.2" font-family="Arial" font-size="16.00">The West in</text>
<text text-anchor="start" x="366.5" y="-702.2" font-family="Arial" font-size="16.00">the World</text>
</g>
<!-- UCCPFW -->
<g id="node3" class="node">
<title>UCCPFW</title>
<polygon fill="none" stroke="red" stroke-width="2" points="611.5,-759 464.5,-759 464.5,-695 611.5,-695 611.5,-759"/>
<text text-anchor="start" x="506.5" y="-743.2" font-family="Arial" font-weight="bold" font-size="16.00">Physcial</text>
<text text-anchor="start" x="469" y="-727.2" font-family="Arial" font-weight="bold" font-size="16.00">Fitness / Wellness</text>
<text text-anchor="start" x="489.5" y="-705.2" font-family="Arial" font-style="italic" font-size="16.00">2 credit hours</text>
</g>
<!-- ENG103 -->
<g id="node4" class="node">
<title>ENG103</title>
<polygon fill="none" stroke="red" stroke-width="2" points="335.5,-752 198.5,-752 198.5,-702 335.5,-702 335.5,-752"/>
<text text-anchor="start" x="235" y="-736.2" font-family="Arial" font-weight="bold" font-size="16.00">ENG 103</text>
<text text-anchor="start" x="203" y="-711.2" font-family="Arial" font-size="16.00">Rhetoric &amp; Writing</text>
</g>
<!-- ENG104 -->
<g id="node7" class="node">
<title>ENG104</title>
<polygon fill="none" stroke="red" stroke-width="2" points="310.5,-627 223.5,-627 223.5,-545 310.5,-545 310.5,-627"/>
<text text-anchor="start" x="235" y="-611.2" font-family="Arial" font-weight="bold" font-size="16.00">ENG 104</text>
<text text-anchor="start" x="244" y="-595.2" font-family="Arial" font-size="16.00">or </text>
<text text-anchor="start" x="263" y="-595.2" font-family="Arial" font-weight="bold" font-size="16.00">114</text>
<text text-anchor="start" x="228" y="-572.2" font-family="Arial" font-size="16.00">Composing</text>
<text text-anchor="start" x="233" y="-554.2" font-family="Arial" font-size="16.00">Research</text>
</g>
<!-- ENG103&#45;&gt;ENG104 -->
<g id="edge9" class="edge">
<title>ENG103&#45;&gt;ENG104</title>
<path fill="none" stroke="black" stroke-width="2" d="M267,-701.79C267,-684.06 267,-659.37 267,-637.43"/>
<polygon fill="black" stroke="black" stroke-width="2" points="270.5,-637.25 267,-627.25 263.5,-637.25 270.5,-637.25"/>
</g>
<!-- CS222 -->
<g id="node11" class="node">
<title>CS222</title>
<polygon fill="none" stroke="blue" stroke-width="2" points="305,-491 193,-491 193,-423 305,-423 305,-491"/>
<text text-anchor="start" x="222" y="-475.2" font-family="Arial" font-weight="bold" font-size="16.00">CS 222</text>
<text text-anchor="start" x="214" y="-450.2" font-family="Arial" font-size="16.00">Advanced</text>
<text text-anchor="start" x="203" y="-432.2" font-family="Arial" font-size="16.00">Programming</text>
</g>
<!-- CS121&#45;&gt;CS222 -->
<g id="edge7" class="edge">
<title>CS121&#45;&gt;CS222:cs222_top</title>
<path fill="none" stroke="black" stroke-width="2" d="M106.18,-545.04C109.12,-543.27 112.07,-541.57 115,-540 126.98,-533.57 216.53,-513.18 242.16,-497.47"/>
<polygon fill="black" stroke="black" stroke-width="2" points="244.83,-499.74 249,-490 239.67,-495.01 244.83,-499.74"/>
</g>
<!-- CS224 -->
<g id="node12" class="node">
<title>CS224</title>
<polygon fill="none" stroke="blue" stroke-width="2" points="136.5,-482 43.5,-482 43.5,-432 136.5,-432 136.5,-482"/>
<text text-anchor="start" x="63.5" y="-466.2" font-family="Arial" font-weight="bold" font-size="16.00">CS 224</text>
<text text-anchor="start" x="54" y="-441.2" font-family="Arial" font-size="16.00">Algorithms</text>
</g>
<!-- CS121&#45;&gt;CS224 -->
<g id="edge4" class="edge">
<title>CS121&#45;&gt;CS224:cs224_top</title>
<path fill="none" stroke="black" stroke-width="2" d="M71.11,-539.9C78.14,-521.86 85.34,-502.6 88.83,-490.84"/>
<polygon fill="black" stroke="black" stroke-width="2" points="92.27,-491.52 91,-481 85.43,-490.01 92.27,-491.52"/>
</g>
<!-- CS230 -->
<g id="node16" class="node">
<title>CS230</title>
<polygon fill="none" stroke="blue" stroke-width="2" points="133.5,-360 22.5,-360 22.5,-274 133.5,-274 133.5,-360"/>
<text text-anchor="start" x="51.5" y="-344.2" font-family="Arial" font-weight="bold" font-size="16.00">CS 230</text>
<text text-anchor="start" x="44.5" y="-319.2" font-family="Arial" font-size="16.00">Computer</text>
<text text-anchor="start" x="27" y="-301.2" font-family="Arial" font-size="16.00">Organization &amp;</text>
<text text-anchor="start" x="36" y="-283.2" font-family="Arial" font-size="16.00">Architecture</text>
</g>
<!-- CS121&#45;&gt;CS230 -->
<g id="edge3" class="edge">
<title>CS121&#45;&gt;CS230</title>
<path fill="none" stroke="black" stroke-width="2" d="M40.18,-540C32.69,-507.31 26.13,-462.14 34,-423 37.61,-405.02 44.39,-386.28 51.56,-369.69"/>
<polygon fill="black" stroke="black" stroke-width="2" points="54.92,-370.75 55.8,-360.2 48.53,-367.9 54.92,-370.75"/>
</g>
<!-- CS124&#45;&gt;CS222 -->
<g id="edge8" class="edge">
<title>CS124&#45;&gt;CS222:cs222_top</title>
<path fill="none" stroke="black" stroke-width="2" d="M198.2,-551.9C215.99,-533.64 235.99,-512.12 244.64,-499.27"/>
<polygon fill="black" stroke="black" stroke-width="2" points="247.91,-500.54 249,-490 241.57,-497.56 247.91,-500.54"/>
</g>
<!-- CS124&#45;&gt;CS224 -->
<g id="edge5" class="edge">
<title>CS124&#45;&gt;CS224:cs224_top</title>
<path fill="none" stroke="black" stroke-width="2" d="M125.4,-551.57C110.01,-535.25 95.21,-514.16 91.76,-491.03"/>
<polygon fill="black" stroke="black" stroke-width="2" points="95.24,-490.71 91,-481 88.26,-491.23 95.24,-490.71"/>
</g>
<!-- CS124&#45;&gt;CS230 -->
<g id="edge6" class="edge">
<title>CS124&#45;&gt;CS230</title>
<path fill="none" stroke="black" stroke-width="2" d="M165.15,-551.74C164.33,-518.28 160.35,-465.66 145,-423 138.2,-404.11 127.53,-385.12 116.68,-368.58"/>
<polygon fill="black" stroke="black" stroke-width="2" points="119.5,-366.5 111.01,-360.17 113.7,-370.41 119.5,-366.5"/>
</g>
<!-- ENG104&#45;&gt;CS222 -->
<g id="edge10" class="edge">
<title>ENG104&#45;&gt;CS222</title>
<path fill="none" stroke="black" stroke-width="2" stroke-dasharray="5,2" d="M261.3,-544.82C259.33,-530.9 257.11,-515.25 255.11,-501.1"/>
<polygon fill="black" stroke="black" stroke-width="2" points="258.56,-500.53 253.69,-491.12 251.63,-501.51 258.56,-500.53"/>
<text text-anchor="middle" x="304" y="-512.4" font-family="Arial" font-size="12.00"> prereq or parallel</text>
<polyline fill="none" stroke="black" points="350,-509 258,-509 258.12,-522.35 "/>
</g>
<!-- UCCT1NS -->
<g id="node8" class="node">
<title>UCCT1NS</title>
<polygon fill="none" stroke="red" stroke-width="2" points="680,-630 554,-630 554,-542 680,-542 680,-630"/>
<text text-anchor="start" x="595.5" y="-614.2" font-family="Arial" font-weight="bold" font-size="16.00">Tier 1</text>
<text text-anchor="start" x="558" y="-598.2" font-family="Arial" font-weight="bold" font-size="16.00">Natural Science</text>
<text text-anchor="start" x="559" y="-576.2" font-family="Arial" font-style="italic" font-size="16.00">CS Lab Science</text>
<text text-anchor="start" x="559" y="-552.2" font-family="Arial" font-style="italic" font-size="16.00">3–5 credit hours</text>
</g>
<!-- UCCT2NSS -->
<g id="node19" class="node">
<title>UCCT2NSS</title>
<polygon fill="none" stroke="red" stroke-width="2" points="725.5,-345 594.5,-345 594.5,-289 725.5,-289 725.5,-345"/>
<text text-anchor="start" x="639" y="-329.2" font-family="Arial" font-weight="bold" font-size="16.00">Tier 2</text>
<text text-anchor="start" x="623.5" y="-313.2" font-family="Arial" font-weight="bold" font-size="16.00">Natural or</text>
<text text-anchor="start" x="605" y="-297.2" font-family="Arial" font-weight="bold" font-size="16.00">Social Science</text>
</g>
<!-- UCCT1NS&#45;&gt;UCCT2NSS -->
<g id="edge14" class="edge">
<title>UCCT1NS&#45;&gt;UCCT2NSS:ucct2nss_top</title>
<path fill="none" stroke="black" stroke-width="2" stroke-dasharray="1,5" d="M620.31,-541.69C623.3,-508.87 628.57,-462.78 637,-423 643.84,-390.75 657.76,-382.3 660.52,-354.31"/>
<polygon fill="black" stroke="black" stroke-width="2" points="664.03,-354.15 661,-344 657.04,-353.83 664.03,-354.15"/>
</g>
<!-- UCCPFIN -->
<g id="node9" class="node">
<title>UCCPFIN</title>
<polygon fill="none" stroke="red" stroke-width="2" points="796,-618 698,-618 698,-554 796,-554 796,-618"/>
<text text-anchor="start" x="713.5" y="-602.2" font-family="Arial" font-weight="bold" font-size="16.00">Personal</text>
<text text-anchor="start" x="716.5" y="-586.2" font-family="Arial" font-weight="bold" font-size="16.00">Finance</text>
<text text-anchor="start" x="702" y="-564.2" font-family="Arial" font-style="italic" font-size="16.00">1 credit hour</text>
</g>
<!-- MATH181 -->
<g id="node10" class="node">
<title>MATH181</title>
<polygon fill="none" stroke="blue" stroke-width="2" points="911.5,-629 814.5,-629 814.5,-543 911.5,-543 911.5,-629"/>
<text text-anchor="start" x="825.5" y="-613.2" font-family="Arial" font-weight="bold" font-size="16.00">MATH 181</text>
<text text-anchor="start" x="824" y="-588.2" font-family="Arial" font-size="16.00">Elementary</text>
<text text-anchor="start" x="819" y="-570.2" font-family="Arial" font-size="16.00">Probability &amp;</text>
<text text-anchor="start" x="830.5" y="-552.2" font-family="Arial" font-size="16.00">Statistics</text>
</g>
<!-- CS239 -->
<g id="node17" class="node">
<title>CS239</title>
<polygon fill="none" stroke="blue" stroke-width="2" points="576,-372 478,-372 478,-262 576,-262 576,-372"/>
<text text-anchor="start" x="500" y="-356.2" font-family="Arial" font-weight="bold" font-size="16.00">CS 239</text>
<text text-anchor="start" x="497.5" y="-331.2" font-family="Arial" font-size="16.00">Social &amp;</text>
<text text-anchor="start" x="483" y="-313.2" font-family="Arial" font-size="16.00">Professional</text>
<text text-anchor="start" x="503.5" y="-295.2" font-family="Arial" font-size="16.00">Issues</text>
<text text-anchor="start" x="482" y="-272.2" font-family="Arial" font-style="italic" font-size="16.00">1 credit hour</text>
</g>
<!-- CS222&#45;&gt;CS239 -->
<g id="edge11" class="edge">
<title>CS222&#45;&gt;CS239</title>
<path fill="none" stroke="black" stroke-width="2" d="M305.08,-441.13C351.25,-427.39 417.3,-404.21 469,-372 469.09,-371.94 469.18,-371.89 469.27,-371.83"/>
<polygon fill="black" stroke="black" stroke-width="2" points="471.38,-374.63 477.68,-366.11 467.44,-368.84 471.38,-374.63"/>
</g>
<!-- CS495 -->
<g id="node22" class="node">
<title>CS495</title>
<polygon fill="none" stroke="blue" stroke-width="2" points="426,-201 254,-201 254,-127 426,-127 426,-201"/>
<text text-anchor="start" x="313" y="-185.2" font-family="Arial" font-weight="bold" font-size="16.00">CS 495</text>
<text text-anchor="start" x="258" y="-160.2" font-family="Arial" font-size="16.00">Software Engineering 1</text>
<text text-anchor="start" x="279" y="-137.2" font-family="Arial" font-style="italic" font-size="16.00">BSU Core: Tier 3</text>
</g>
<!-- CS222&#45;&gt;CS495 -->
<g id="edge16" class="edge">
<title>CS222&#45;&gt;CS495</title>
<path fill="none" stroke="black" stroke-width="2" d="M234.77,-422.75C219.89,-382.72 201.81,-314.34 226,-262 235.83,-240.73 252.88,-222.4 270.85,-207.59"/>
<polygon fill="black" stroke="black" stroke-width="2" points="273.47,-209.98 279.15,-201.03 269.13,-204.49 273.47,-209.98"/>
</g>
<!-- UCCT1SS -->
<g id="node13" class="node">
<title>UCCT1SS</title>
<polygon fill="none" stroke="red" stroke-width="2" points="764.5,-477 645.5,-477 645.5,-437 764.5,-437 764.5,-477"/>
<text text-anchor="start" x="684" y="-461.2" font-family="Arial" font-weight="bold" font-size="16.00">Tier 1</text>
<text text-anchor="start" x="650" y="-445.2" font-family="Arial" font-weight="bold" font-size="16.00">Social Science</text>
</g>
<!-- UCCT1SS&#45;&gt;UCCT2NSS -->
<g id="edge15" class="edge">
<title>UCCT1SS&#45;&gt;UCCT2NSS:ucct2nss_top</title>
<path fill="none" stroke="black" stroke-width="2" stroke-dasharray="1,5" d="M692.27,-436.67C680.55,-417.15 664.52,-385.47 661.5,-354.14"/>
<polygon fill="black" stroke="black" stroke-width="2" points="664.99,-353.82 661,-344 658,-354.16 664.99,-353.82"/>
<text text-anchor="middle" x="685.5" y="-393.8" font-family="Arial" font-size="14.00"> &#160;or</text>
<polyline fill="none" stroke="black" points="696,-390 675,-390 674.45,-401.83 "/>
</g>
<!-- UCCT1HU -->
<g id="node14" class="node">
<title>UCCT1HU</title>
<polygon fill="none" stroke="red" stroke-width="2" points="875.5,-477 782.5,-477 782.5,-437 875.5,-437 875.5,-477"/>
<text text-anchor="start" x="808" y="-461.2" font-family="Arial" font-weight="bold" font-size="16.00">Tier 1</text>
<text text-anchor="start" x="787" y="-445.2" font-family="Arial" font-weight="bold" font-size="16.00">Humanities</text>
</g>
<!-- UCCT2FDH -->
<g id="node21" class="node">
<title>UCCT2FDH</title>
<polygon fill="none" stroke="red" stroke-width="2" points="975,-345 793,-345 793,-289 975,-289 975,-345"/>
<text text-anchor="start" x="862.5" y="-329.2" font-family="Arial" font-weight="bold" font-size="16.00">Tier 2</text>
<text text-anchor="start" x="839.5" y="-313.2" font-family="Arial" font-weight="bold" font-size="16.00">Fine Arts or</text>
<text text-anchor="start" x="803" y="-297.2" font-family="Arial" font-weight="bold" font-size="16.00">Design or Humanities</text>
</g>
<!-- UCCT1HU&#45;&gt;UCCT2FDH -->
<g id="edge13" class="edge">
<title>UCCT1HU&#45;&gt;UCCT2FDH:ucct2fdh_top</title>
<path fill="none" stroke="black" stroke-width="2" stroke-dasharray="1,5" d="M845.2,-436.77C859.91,-417.49 879.82,-386.14 883.43,-353.99"/>
<polygon fill="black" stroke="black" stroke-width="2" points="886.92,-354.18 884,-344 879.93,-353.78 886.92,-354.18"/>
</g>
<!-- UCCT1FA -->
<g id="node15" class="node">
<title>UCCT1FA</title>
<polygon fill="none" stroke="red" stroke-width="2" points="970.5,-477 893.5,-477 893.5,-437 970.5,-437 970.5,-477"/>
<text text-anchor="start" x="911" y="-461.2" font-family="Arial" font-weight="bold" font-size="16.00">Tier 1</text>
<text text-anchor="start" x="898" y="-445.2" font-family="Arial" font-weight="bold" font-size="16.00">Fine Arts</text>
</g>
<!-- UCCT1FA&#45;&gt;UCCT2FDH -->
<g id="edge12" class="edge">
<title>UCCT1FA&#45;&gt;UCCT2FDH:ucct2fdh_top</title>
<path fill="none" stroke="black" stroke-width="2" stroke-dasharray="1,5" d="M918.12,-436.84C905.32,-417.44 887.84,-385.88 884.55,-354.25"/>
<polygon fill="black" stroke="black" stroke-width="2" points="888.03,-353.8 884,-344 881.04,-354.17 888.03,-353.8"/>
<text text-anchor="middle" x="909.5" y="-393.8" font-family="Arial" font-size="14.00"> &#160;or</text>
<polyline fill="none" stroke="black" points="920,-390 899,-390 898.67,-402.13 "/>
</g>
<!-- CS239&#45;&gt;CS495 -->
<!-- COMM210 -->
<g id="node18" class="node">
<title>COMM210</title>
<polygon fill="none" stroke="red" stroke-width="2" points="324.5,-351 235.5,-351 235.5,-283 324.5,-283 324.5,-351"/>
<text text-anchor="start" x="240" y="-335.2" font-family="Arial" font-weight="bold" font-size="16.00">COMM 210</text>
<text text-anchor="start" x="259" y="-310.2" font-family="Arial" font-size="16.00">Public</text>
<text text-anchor="start" x="248" y="-292.2" font-family="Arial" font-size="16.00">Speaking</text>
</g>
<!-- COMM210&#45;&gt;CS495 -->
<g id="edge19" class="edge">
<title>COMM210&#45;&gt;CS495</title>
<path fill="none" stroke="black" stroke-width="2" d="M293.17,-282.86C301.6,-261.65 312.65,-233.84 321.9,-210.56"/>
<polygon fill="black" stroke="black" stroke-width="2" points="325.16,-211.82 325.6,-201.23 318.66,-209.23 325.16,-211.82"/>
</g>
<!-- Permission -->
<g id="node20" class="node">
<title>Permission</title>
<ellipse fill="none" stroke="blue" stroke-width="2" cx="401" cy="-317" rx="58.88" ry="25.41"/>
<text text-anchor="middle" x="401" y="-322.2" font-family="Arial" font-size="16.00">Permission:</text>
<text text-anchor="middle" x="401" y="-304.2" font-family="Arial" font-size="16.00">Final Year</text>
</g>
<!-- Permission&#45;&gt;CS495 -->
<g id="edge18" class="edge">
<title>Permission&#45;&gt;CS495</title>
<path fill="none" stroke="black" stroke-width="2" d="M391.2,-291.74C382.38,-269.91 369.19,-237.26 358.41,-210.57"/>
<polygon fill="black" stroke="black" stroke-width="2" points="361.55,-208.99 354.56,-201.03 355.06,-211.62 361.55,-208.99"/>
</g>
<!-- CS498 -->
<g id="node23" class="node">
<title>CS498</title>
<polygon fill="none" stroke="blue" stroke-width="2" points="443.5,-90 236.5,-90 236.5,-16 443.5,-16 443.5,-90"/>
<text text-anchor="start" x="313.5" y="-74.2" font-family="Arial" font-weight="bold" font-size="16.00">CS 498</text>
<text text-anchor="start" x="258.5" y="-49.2" font-family="Arial" font-size="16.00">Software Engineering 2</text>
<text text-anchor="start" x="241" y="-26.2" font-family="Arial" font-style="italic" font-size="16.00">BSU Core: Writing Intensive</text>
</g>
<!-- CS495&#45;&gt;CS498 -->
<g id="edge20" class="edge">
<title>CS495&#45;&gt;CS498</title>
<path fill="none" stroke="black" stroke-width="2" d="M340,-126.7C340,-118.25 340,-109.13 340,-100.3"/>
<polygon fill="black" stroke="black" stroke-width="2" points="343.5,-100.14 340,-90.14 336.5,-100.14 343.5,-100.14"/>
</g>
</g>
</svg>
