<?xml version="1.0" encoding="UTF-8" standalone="no"?>
<!DOCTYPE svg PUBLIC "-//W3C//DTD SVG 1.1//EN"
 "http://www.w3.org/Graphics/SVG/1.1/DTD/svg11.dtd">
<!-- Generated by graphviz version 2.46.0 (20210118.1747)
 -->
<!-- Title: Web_Mobile Pages: 1 -->
<svg width="1200pt" height="1023pt"
 viewBox="0.00 0.00 1200.00 1023.00" xmlns="http://www.w3.org/2000/svg" xmlns:xlink="http://www.w3.org/1999/xlink">
<g id="graph0" class="graph" transform="scale(1 1) rotate(0) translate(4 1019)">
<title>Web_Mobile</title>
<polygon fill="white" stroke="transparent" points="-4,4 -4,-1019 1196,-1019 1196,4 -4,4"/>
<g id="clust6" class="cluster">
<title>cluster_web_mobile</title>
<polygon fill="none" stroke="black" stroke-width="2" points="137.5,-251 137.5,-477 519.5,-477 519.5,-251 137.5,-251"/>
<text text-anchor="middle" x="328.5" y="-461.8" font-family="Arial" font-size="14.00">Web &amp; Mobile Concentration</text>
</g>
<g id="clust5" class="cluster">
<title>cluster_softeng</title>
<polygon fill="none" stroke="black" stroke-width="2" points="336.5,-8 336.5,-232 560.5,-232 560.5,-8 336.5,-8"/>
<text text-anchor="middle" x="448.5" y="-216.8" font-family="Arial" font-size="14.00">Senior Capstone Sequence</text>
</g>
<!-- CS120 -->
<g id="node1" class="node">
<title>CS120</title>
<polygon fill="none" stroke="blue" stroke-width="2" points="668.5,-1015 562.5,-1015 562.5,-923 668.5,-923 668.5,-1015"/>
<text text-anchor="start" x="588.5" y="-999.2" font-family="Arial" font-weight="bold" font-size="16.00">CS 120</text>
<text text-anchor="start" x="581.5" y="-974.2" font-family="Arial" font-size="16.00">Computer</text>
<text text-anchor="start" x="580" y="-956.2" font-family="Arial" font-size="16.00">Science 1</text>
<text text-anchor="start" x="566.5" y="-933.2" font-family="Arial" font-style="italic" font-size="16.00">4 credit hours</text>
</g>
<!-- CS121 -->
<g id="node5" class="node">
<title>CS121</title>
<polygon fill="none" stroke="blue" stroke-width="2" points="605.5,-874 499.5,-874 499.5,-782 605.5,-782 605.5,-874"/>
<text text-anchor="start" x="525.5" y="-858.2" font-family="Arial" font-weight="bold" font-size="16.00">CS 121</text>
<text text-anchor="start" x="518.5" y="-833.2" font-family="Arial" font-size="16.00">Computer</text>
<text text-anchor="start" x="517" y="-815.2" font-family="Arial" font-size="16.00">Science 2</text>
<text text-anchor="start" x="503.5" y="-792.2" font-family="Arial" font-style="italic" font-size="16.00">4 credit hours</text>
</g>
<!-- CS120&#45;&gt;CS121 -->
<g id="edge1" class="edge">
<title>CS120&#45;&gt;CS121</title>
<path fill="none" stroke="black" stroke-width="2" d="M595.05,-922.87C589.38,-910.37 583.17,-896.66 577.28,-883.68"/>
<polygon fill="black" stroke="black" stroke-width="2" points="580.38,-882.04 573.07,-874.38 574.01,-884.93 580.38,-882.04"/>
</g>
<!-- CS124 -->
<g id="node6" class="node">
<title>CS124</title>
<polygon fill="none" stroke="blue" stroke-width="2" points="705,-862 624,-862 624,-794 705,-794 705,-862"/>
<text text-anchor="start" x="638" y="-846.2" font-family="Arial" font-weight="bold" font-size="16.00">CS 124</text>
<text text-anchor="start" x="635" y="-821.2" font-family="Arial" font-size="16.00">Discrete</text>
<text text-anchor="start" x="628.5" y="-803.2" font-family="Arial" font-size="16.00">Structures</text>
</g>
<!-- CS120&#45;&gt;CS124 -->
<g id="edge2" class="edge">
<title>CS120&#45;&gt;CS124</title>
<path fill="none" stroke="black" stroke-width="2" stroke-dasharray="5,2" d="M631.41,-922.87C637.19,-906.46 643.71,-887.97 649.42,-871.77"/>
<polygon fill="black" stroke="black" stroke-width="2" points="652.84,-872.61 652.86,-862.02 646.24,-870.28 652.84,-872.61"/>
<text text-anchor="middle" x="686.5" y="-895.4" font-family="Arial" font-size="12.00"> prereq or parallel</text>
<polyline fill="none" stroke="black" points="732.5,-892 640.5,-892 645.15,-883.88 "/>
</g>
<!-- HIST150 -->
<g id="node2" class="node">
<title>HIST150</title>
<polygon fill="none" stroke="red" stroke-width="2" points="780,-1003 687,-1003 687,-935 780,-935 780,-1003"/>
<text text-anchor="start" x="700.5" y="-987.2" font-family="Arial" font-weight="bold" font-size="16.00">HIST 150</text>
<text text-anchor="start" x="691.5" y="-962.2" font-family="Arial" font-size="16.00">The West in</text>
<text text-anchor="start" x="700" y="-944.2" font-family="Arial" font-size="16.00">the World</text>
</g>
<!-- UCCPFW -->
<g id="node3" class="node">
<title>UCCPFW</title>
<polygon fill="none" stroke="red" stroke-width="2" points="945,-1001 798,-1001 798,-937 945,-937 945,-1001"/>
<text text-anchor="start" x="840" y="-985.2" font-family="Arial" font-weight="bold" font-size="16.00">Physcial</text>
<text text-anchor="start" x="802.5" y="-969.2" font-family="Arial" font-weight="bold" font-size="16.00">Fitness / Wellness</text>
<text text-anchor="start" x="823" y="-947.2" font-family="Arial" font-style="italic" font-size="16.00">2 credit hours</text>
</g>
<!-- ENG103 -->
<g id="node4" class="node">
<title>ENG103</title>
<polygon fill="none" stroke="red" stroke-width="2" points="494,-994 357,-994 357,-944 494,-944 494,-994"/>
<text text-anchor="start" x="393.5" y="-978.2" font-family="Arial" font-weight="bold" font-size="16.00">ENG 103</text>
<text text-anchor="start" x="361.5" y="-953.2" font-family="Arial" font-size="16.00">Rhetoric &amp; Writing</text>
</g>
<!-- ENG104 -->
<g id="node7" class="node">
<title>ENG104</title>
<polygon fill="none" stroke="red" stroke-width="2" points="469,-869 382,-869 382,-787 469,-787 469,-869"/>
<text text-anchor="start" x="393.5" y="-853.2" font-family="Arial" font-weight="bold" font-size="16.00">ENG 104</text>
<text text-anchor="start" x="402.5" y="-837.2" font-family="Arial" font-size="16.00">or </text>
<text text-anchor="start" x="421.5" y="-837.2" font-family="Arial" font-weight="bold" font-size="16.00">114</text>
<text text-anchor="start" x="386.5" y="-814.2" font-family="Arial" font-size="16.00">Composing</text>
<text text-anchor="start" x="391.5" y="-796.2" font-family="Arial" font-size="16.00">Research</text>
</g>
<!-- ENG103&#45;&gt;ENG104 -->
<g id="edge9" class="edge">
<title>ENG103&#45;&gt;ENG104</title>
<path fill="none" stroke="black" stroke-width="2" d="M425.5,-943.79C425.5,-926.06 425.5,-901.37 425.5,-879.43"/>
<polygon fill="black" stroke="black" stroke-width="2" points="429,-879.25 425.5,-869.25 422,-879.25 429,-879.25"/>
</g>
<!-- CS222 -->
<g id="node11" class="node">
<title>CS222</title>
<polygon fill="none" stroke="blue" stroke-width="2" points="481.5,-733 369.5,-733 369.5,-665 481.5,-665 481.5,-733"/>
<text text-anchor="start" x="398.5" y="-717.2" font-family="Arial" font-weight="bold" font-size="16.00">CS 222</text>
<text text-anchor="start" x="390.5" y="-692.2" font-family="Arial" font-size="16.00">Advanced</text>
<text text-anchor="start" x="379.5" y="-674.2" font-family="Arial" font-size="16.00">Programming</text>
</g>
<!-- CS121&#45;&gt;CS222 -->
<g id="edge7" class="edge">
<title>CS121&#45;&gt;CS222:cs222_top</title>
<path fill="none" stroke="black" stroke-width="2" d="M542.31,-781.68C537.71,-770.19 531.07,-758.89 521.5,-751 491.22,-726.03 437.42,-766.07 427.2,-742.17"/>
<polygon fill="black" stroke="black" stroke-width="2" points="430.6,-741.29 425.5,-732 423.7,-742.44 430.6,-741.29"/>
</g>
<!-- CS224 -->
<g id="node12" class="node">
<title>CS224</title>
<polygon fill="none" stroke="blue" stroke-width="2" points="686,-724 593,-724 593,-674 686,-674 686,-724"/>
<text text-anchor="start" x="613" y="-708.2" font-family="Arial" font-weight="bold" font-size="16.00">CS 224</text>
<text text-anchor="start" x="603.5" y="-683.2" font-family="Arial" font-size="16.00">Algorithms</text>
</g>
<!-- CS121&#45;&gt;CS224 -->
<g id="edge4" class="edge">
<title>CS121&#45;&gt;CS224:cs224_top</title>
<path fill="none" stroke="black" stroke-width="2" d="M605.72,-789.49C621.79,-774.22 636.14,-755 639.67,-733.19"/>
<polygon fill="black" stroke="black" stroke-width="2" points="643.18,-733.25 640.5,-723 636.2,-732.68 643.18,-733.25"/>
</g>
<!-- CS230 -->
<g id="node16" class="node">
<title>CS230</title>
<polygon fill="none" stroke="blue" stroke-width="2" points="760,-602 649,-602 649,-516 760,-516 760,-602"/>
<text text-anchor="start" x="678" y="-586.2" font-family="Arial" font-weight="bold" font-size="16.00">CS 230</text>
<text text-anchor="start" x="671" y="-561.2" font-family="Arial" font-size="16.00">Computer</text>
<text text-anchor="start" x="653.5" y="-543.2" font-family="Arial" font-size="16.00">Organization &amp;</text>
<text text-anchor="start" x="662.5" y="-525.2" font-family="Arial" font-size="16.00">Architecture</text>
</g>
<!-- CS121&#45;&gt;CS230 -->
<g id="edge3" class="edge">
<title>CS121&#45;&gt;CS230</title>
<path fill="none" stroke="black" stroke-width="2" d="M553.64,-781.99C556.26,-747.87 563.79,-700.88 584.5,-665 598.43,-640.87 619.95,-619.49 640.95,-602.42"/>
<polygon fill="black" stroke="black" stroke-width="2" points="643.27,-605.04 648.95,-596.09 638.93,-599.54 643.27,-605.04"/>
</g>
<!-- CS124&#45;&gt;CS222 -->
<g id="edge8" class="edge">
<title>CS124&#45;&gt;CS222:cs222_top</title>
<path fill="none" stroke="black" stroke-width="2" d="M630.75,-793.93C625.52,-789.62 620.02,-785.5 614.5,-782 584.38,-762.92 574.77,-760.86 540.5,-751 519.11,-744.84 449.55,-754.37 430.41,-740.73"/>
<polygon fill="black" stroke="black" stroke-width="2" points="433.46,-739 425.5,-732 427.36,-742.43 433.46,-739"/>
</g>
<!-- CS124&#45;&gt;CS224 -->
<g id="edge5" class="edge">
<title>CS124&#45;&gt;CS224:cs224_top</title>
<path fill="none" stroke="black" stroke-width="2" d="M652.78,-793.73C647.55,-776.37 642.24,-754.4 640.85,-733.28"/>
<polygon fill="black" stroke="black" stroke-width="2" points="644.34,-732.88 640.5,-723 637.34,-733.11 644.34,-732.88"/>
</g>
<!-- CS124&#45;&gt;CS230 -->
<g id="edge6" class="edge">
<title>CS124&#45;&gt;CS230</title>
<path fill="none" stroke="black" stroke-width="2" d="M677.91,-793.63C684.42,-775.92 691.64,-753.61 695.5,-733 702.98,-693.08 705.07,-647.14 705.38,-612.64"/>
<polygon fill="black" stroke="black" stroke-width="2" points="708.88,-612.33 705.42,-602.32 701.88,-612.31 708.88,-612.33"/>
</g>
<!-- ENG104&#45;&gt;CS222 -->
<g id="edge10" class="edge">
<title>ENG104&#45;&gt;CS222</title>
<path fill="none" stroke="black" stroke-width="2" stroke-dasharray="5,2" d="M425.5,-786.82C425.5,-773.03 425.5,-757.55 425.5,-743.52"/>
<polygon fill="black" stroke="black" stroke-width="2" points="429,-743.12 425.5,-733.12 422,-743.12 429,-743.12"/>
<text text-anchor="middle" x="471.5" y="-754.4" font-family="Arial" font-size="12.00"> prereq or parallel</text>
<polyline fill="none" stroke="black" points="517.5,-751 425.5,-751 425.5,-757.69 "/>
</g>
<!-- UCCT1NS -->
<g id="node8" class="node">
<title>UCCT1NS</title>
<polygon fill="none" stroke="red" stroke-width="2" points="869.5,-872 743.5,-872 743.5,-784 869.5,-784 869.5,-872"/>
<text text-anchor="start" x="785" y="-856.2" font-family="Arial" font-weight="bold" font-size="16.00">Tier 1</text>
<text text-anchor="start" x="747.5" y="-840.2" font-family="Arial" font-weight="bold" font-size="16.00">Natural Science</text>
<text text-anchor="start" x="748.5" y="-818.2" font-family="Arial" font-style="italic" font-size="16.00">CS Lab Science</text>
<text text-anchor="start" x="748.5" y="-794.2" font-family="Arial" font-style="italic" font-size="16.00">3–5 credit hours</text>
</g>
<!-- UCCT2NSS -->
<g id="node19" class="node">
<title>UCCT2NSS</title>
<polygon fill="none" stroke="red" stroke-width="2" points="937,-587 806,-587 806,-531 937,-531 937,-587"/>
<text text-anchor="start" x="850.5" y="-571.2" font-family="Arial" font-weight="bold" font-size="16.00">Tier 2</text>
<text text-anchor="start" x="835" y="-555.2" font-family="Arial" font-weight="bold" font-size="16.00">Natural or</text>
<text text-anchor="start" x="816.5" y="-539.2" font-family="Arial" font-weight="bold" font-size="16.00">Social Science</text>
</g>
<!-- UCCT1NS&#45;&gt;UCCT2NSS -->
<g id="edge14" class="edge">
<title>UCCT1NS&#45;&gt;UCCT2NSS:ucct2nss_top</title>
<path fill="none" stroke="black" stroke-width="2" stroke-dasharray="1,5" d="M807.13,-783.66C808.74,-750.42 813.42,-703.8 826.5,-665 838.31,-629.96 866.73,-626.92 871.74,-596.02"/>
<polygon fill="black" stroke="black" stroke-width="2" points="875.23,-596.24 872.5,-586 868.25,-595.71 875.23,-596.24"/>
</g>
<!-- UCCPFIN -->
<g id="node9" class="node">
<title>UCCPFIN</title>
<polygon fill="none" stroke="red" stroke-width="2" points="985.5,-860 887.5,-860 887.5,-796 985.5,-796 985.5,-860"/>
<text text-anchor="start" x="903" y="-844.2" font-family="Arial" font-weight="bold" font-size="16.00">Personal</text>
<text text-anchor="start" x="906" y="-828.2" font-family="Arial" font-weight="bold" font-size="16.00">Finance</text>
<text text-anchor="start" x="891.5" y="-806.2" font-family="Arial" font-style="italic" font-size="16.00">1 credit hour</text>
</g>
<!-- MATH181 -->
<g id="node10" class="node">
<title>MATH181</title>
<polygon fill="none" stroke="blue" stroke-width="2" points="1101,-871 1004,-871 1004,-785 1101,-785 1101,-871"/>
<text text-anchor="start" x="1015" y="-855.2" font-family="Arial" font-weight="bold" font-size="16.00">MATH 181</text>
<text text-anchor="start" x="1013.5" y="-830.2" font-family="Arial" font-size="16.00">Elementary</text>
<text text-anchor="start" x="1008.5" y="-812.2" font-family="Arial" font-size="16.00">Probability &amp;</text>
<text text-anchor="start" x="1020" y="-794.2" font-family="Arial" font-size="16.00">Statistics</text>
</g>
<!-- CS239 -->
<g id="node17" class="node">
<title>CS239</title>
<polygon fill="none" stroke="blue" stroke-width="2" points="410.5,-614 312.5,-614 312.5,-504 410.5,-504 410.5,-614"/>
<text text-anchor="start" x="334.5" y="-598.2" font-family="Arial" font-weight="bold" font-size="16.00">CS 239</text>
<text text-anchor="start" x="332" y="-573.2" font-family="Arial" font-size="16.00">Social &amp;</text>
<text text-anchor="start" x="317.5" y="-555.2" font-family="Arial" font-size="16.00">Professional</text>
<text text-anchor="start" x="338" y="-537.2" font-family="Arial" font-size="16.00">Issues</text>
<text text-anchor="start" x="316.5" y="-514.2" font-family="Arial" font-style="italic" font-size="16.00">1 credit hour</text>
</g>
<!-- CS222&#45;&gt;CS239 -->
<g id="edge11" class="edge">
<title>CS222&#45;&gt;CS239</title>
<path fill="none" stroke="black" stroke-width="2" d="M410.17,-664.95C404.38,-652.45 397.57,-637.78 390.92,-623.43"/>
<polygon fill="black" stroke="black" stroke-width="2" points="393.96,-621.67 386.58,-614.07 387.61,-624.61 393.96,-621.67"/>
</g>
<!-- CS495 -->
<g id="node22" class="node">
<title>CS495</title>
<polygon fill="none" stroke="blue" stroke-width="2" points="534.5,-201 362.5,-201 362.5,-127 534.5,-127 534.5,-201"/>
<text text-anchor="start" x="421.5" y="-185.2" font-family="Arial" font-weight="bold" font-size="16.00">CS 495</text>
<text text-anchor="start" x="366.5" y="-160.2" font-family="Arial" font-size="16.00">Software Engineering 1</text>
<text text-anchor="start" x="387.5" y="-137.2" font-family="Arial" font-style="italic" font-size="16.00">BSU Core: Tier 3</text>
</g>
<!-- CS222&#45;&gt;CS495 -->
<g id="edge16" class="edge">
<title>CS222&#45;&gt;CS495</title>
<path fill="none" stroke="black" stroke-width="2" d="M369.37,-697.15C280.53,-692.51 117.5,-669.13 117.5,-560 117.5,-560 117.5,-560 117.5,-292 117.5,-272.44 118.96,-264.08 133.5,-251 193.35,-197.15 283.74,-176.58 352.36,-168.94"/>
<polygon fill="black" stroke="black" stroke-width="2" points="352.74,-172.42 362.32,-167.91 352.01,-165.46 352.74,-172.42"/>
</g>
<!-- CS445 -->
<g id="node26" class="node">
<title>CS445</title>
<polygon fill="none" stroke="blue" stroke-width="2" points="275,-446 146,-446 146,-378 275,-378 275,-446"/>
<text text-anchor="start" x="184" y="-430.2" font-family="Arial" font-weight="bold" font-size="16.00">CS 445</text>
<text text-anchor="start" x="150.5" y="-405.2" font-family="Arial" font-size="16.00">Human Computer</text>
<text text-anchor="start" x="173.5" y="-387.2" font-family="Arial" font-size="16.00">Interaction</text>
</g>
<!-- CS222&#45;&gt;CS445 -->
<g id="edge23" class="edge">
<title>CS222&#45;&gt;CS445</title>
<path fill="none" stroke="black" stroke-width="2" d="M369.2,-668.11C346.6,-654.01 321.65,-635.53 303.5,-614 263.6,-566.69 237.11,-499.41 222.94,-455.98"/>
<polygon fill="black" stroke="black" stroke-width="2" points="226.22,-454.75 219.85,-446.28 219.55,-456.87 226.22,-454.75"/>
</g>
<!-- CS420 -->
<g id="node27" class="node">
<title>CS420</title>
<polygon fill="none" stroke="blue" stroke-width="2" points="510,-327 387,-327 387,-259 510,-259 510,-327"/>
<text text-anchor="start" x="422" y="-311.2" font-family="Arial" font-weight="bold" font-size="16.00">CS 420</text>
<text text-anchor="start" x="397.5" y="-286.2" font-family="Arial" font-size="16.00">Multi&#45;Tier Web</text>
<text text-anchor="start" x="402.5" y="-268.2" font-family="Arial" font-size="16.00">Architectures</text>
</g>
<!-- CS222&#45;&gt;CS420 -->
<g id="edge24" class="edge">
<title>CS222&#45;&gt;CS420</title>
<path fill="none" stroke="black" stroke-width="2" d="M444.8,-664.96C468.11,-622.93 506.02,-547.36 520.5,-477 529.37,-433.9 535.77,-419.27 520.5,-378 514.65,-362.19 504.35,-347.34 493.33,-334.66"/>
<polygon fill="black" stroke="black" stroke-width="2" points="495.73,-332.1 486.41,-327.05 490.55,-336.81 495.73,-332.1"/>
</g>
<!-- UCCT1SS -->
<g id="node13" class="node">
<title>UCCT1SS</title>
<polygon fill="none" stroke="red" stroke-width="2" points="954,-719 835,-719 835,-679 954,-679 954,-719"/>
<text text-anchor="start" x="873.5" y="-703.2" font-family="Arial" font-weight="bold" font-size="16.00">Tier 1</text>
<text text-anchor="start" x="839.5" y="-687.2" font-family="Arial" font-weight="bold" font-size="16.00">Social Science</text>
</g>
<!-- UCCT1SS&#45;&gt;UCCT2NSS -->
<g id="edge15" class="edge">
<title>UCCT1SS&#45;&gt;UCCT2NSS:ucct2nss_top</title>
<path fill="none" stroke="black" stroke-width="2" stroke-dasharray="1,5" d="M888.37,-678.8C882.52,-658.92 874.37,-626.57 872.78,-596.2"/>
<polygon fill="black" stroke="black" stroke-width="2" points="876.27,-595.9 872.5,-586 869.27,-596.09 876.27,-595.9"/>
<text text-anchor="middle" x="890" y="-635.8" font-family="Arial" font-size="14.00"> &#160;or</text>
<polyline fill="none" stroke="black" points="900.5,-632 879.5,-632 879.12,-642.1 "/>
</g>
<!-- UCCT1HU -->
<g id="node14" class="node">
<title>UCCT1HU</title>
<polygon fill="none" stroke="red" stroke-width="2" points="1097,-719 1004,-719 1004,-679 1097,-679 1097,-719"/>
<text text-anchor="start" x="1029.5" y="-703.2" font-family="Arial" font-weight="bold" font-size="16.00">Tier 1</text>
<text text-anchor="start" x="1008.5" y="-687.2" font-family="Arial" font-weight="bold" font-size="16.00">Humanities</text>
</g>
<!-- UCCT2FDH -->
<g id="node21" class="node">
<title>UCCT2FDH</title>
<polygon fill="none" stroke="red" stroke-width="2" points="1151.5,-587 969.5,-587 969.5,-531 1151.5,-531 1151.5,-587"/>
<text text-anchor="start" x="1039" y="-571.2" font-family="Arial" font-weight="bold" font-size="16.00">Tier 2</text>
<text text-anchor="start" x="1016" y="-555.2" font-family="Arial" font-weight="bold" font-size="16.00">Fine Arts or</text>
<text text-anchor="start" x="979.5" y="-539.2" font-family="Arial" font-weight="bold" font-size="16.00">Design or Humanities</text>
</g>
<!-- UCCT1HU&#45;&gt;UCCT2FDH -->
<g id="edge13" class="edge">
<title>UCCT1HU&#45;&gt;UCCT2FDH:ucct2fdh_top</title>
<path fill="none" stroke="black" stroke-width="2" stroke-dasharray="1,5" d="M1053.29,-678.62C1055.94,-658.59 1059.65,-626.11 1060.37,-596.07"/>
<polygon fill="black" stroke="black" stroke-width="2" points="1063.87,-596.04 1060.5,-586 1056.88,-595.96 1063.87,-596.04"/>
</g>
<!-- UCCT1FA -->
<g id="node15" class="node">
<title>UCCT1FA</title>
<polygon fill="none" stroke="red" stroke-width="2" points="1192,-719 1115,-719 1115,-679 1192,-679 1192,-719"/>
<text text-anchor="start" x="1132.5" y="-703.2" font-family="Arial" font-weight="bold" font-size="16.00">Tier 1</text>
<text text-anchor="start" x="1119.5" y="-687.2" font-family="Arial" font-weight="bold" font-size="16.00">Fine Arts</text>
</g>
<!-- UCCT1FA&#45;&gt;UCCT2FDH -->
<g id="edge12" class="edge">
<title>UCCT1FA&#45;&gt;UCCT2FDH:ucct2fdh_top</title>
<path fill="none" stroke="black" stroke-width="2" stroke-dasharray="1,5" d="M1132.4,-678.98C1108.6,-656.75 1072.01,-619.97 1062.71,-596.01"/>
<polygon fill="black" stroke="black" stroke-width="2" points="1066.07,-595.01 1060.5,-586 1059.24,-596.52 1066.07,-595.01"/>
<text text-anchor="middle" x="1109" y="-635.8" font-family="Arial" font-size="14.00"> &#160;or</text>
<polyline fill="none" stroke="black" points="1119.5,-632 1098.5,-632 1100.4,-647.21 "/>
</g>
<!-- CS239&#45;&gt;CS495 -->
<!-- CS411 -->
<g id="node25" class="node">
<title>CS411</title>
<polygon fill="none" stroke="blue" stroke-width="2" points="393.5,-446 293.5,-446 293.5,-378 393.5,-378 393.5,-446"/>
<text text-anchor="start" x="316.5" y="-430.2" font-family="Arial" font-weight="bold" font-size="16.00">CS 411</text>
<text text-anchor="start" x="320.5" y="-405.2" font-family="Arial" font-size="16.00">Mobile</text>
<text text-anchor="start" x="297.5" y="-387.2" font-family="Arial" font-size="16.00">Development</text>
</g>
<!-- CS239&#45;&gt;CS411 -->
<!-- CS239&#45;&gt;CS445 -->
<!-- COMM210 -->
<g id="node18" class="node">
<title>COMM210</title>
<polygon fill="none" stroke="red" stroke-width="2" points="89,-593 0,-593 0,-525 89,-525 89,-593"/>
<text text-anchor="start" x="4.5" y="-577.2" font-family="Arial" font-weight="bold" font-size="16.00">COMM 210</text>
<text text-anchor="start" x="23.5" y="-552.2" font-family="Arial" font-size="16.00">Public</text>
<text text-anchor="start" x="12.5" y="-534.2" font-family="Arial" font-size="16.00">Speaking</text>
</g>
<!-- COMM210&#45;&gt;CS495 -->
<g id="edge19" class="edge">
<title>COMM210&#45;&gt;CS495</title>
<path fill="none" stroke="black" stroke-width="2" d="M39.86,-524.84C32.88,-460.5 27.66,-318.2 103.5,-240 137.48,-204.96 262.73,-184.49 352.53,-174.02"/>
<polygon fill="black" stroke="black" stroke-width="2" points="352.93,-177.5 362.47,-172.89 352.13,-170.54 352.93,-177.5"/>
</g>
<!-- Permission -->
<g id="node20" class="node">
<title>Permission</title>
<ellipse fill="none" stroke="blue" stroke-width="2" cx="586.5" cy="-293" rx="58.88" ry="25.41"/>
<text text-anchor="middle" x="586.5" y="-298.2" font-family="Arial" font-size="16.00">Permission:</text>
<text text-anchor="middle" x="586.5" y="-280.2" font-family="Arial" font-size="16.00">Final Year</text>
</g>
<!-- Permission&#45;&gt;CS495 -->
<g id="edge18" class="edge">
<title>Permission&#45;&gt;CS495</title>
<path fill="none" stroke="black" stroke-width="2" d="M562.15,-269.59C543.65,-252.57 517.66,-228.65 495.21,-207.98"/>
<polygon fill="black" stroke="black" stroke-width="2" points="497.47,-205.31 487.74,-201.11 492.73,-210.46 497.47,-205.31"/>
</g>
<!-- CS498 -->
<g id="node23" class="node">
<title>CS498</title>
<polygon fill="none" stroke="blue" stroke-width="2" points="552,-90 345,-90 345,-16 552,-16 552,-90"/>
<text text-anchor="start" x="422" y="-74.2" font-family="Arial" font-weight="bold" font-size="16.00">CS 498</text>
<text text-anchor="start" x="367" y="-49.2" font-family="Arial" font-size="16.00">Software Engineering 2</text>
<text text-anchor="start" x="349.5" y="-26.2" font-family="Arial" font-style="italic" font-size="16.00">BSU Core: Writing Intensive</text>
</g>
<!-- CS495&#45;&gt;CS498 -->
<g id="edge20" class="edge">
<title>CS495&#45;&gt;CS498</title>
<path fill="none" stroke="black" stroke-width="2" d="M448.5,-126.7C448.5,-118.25 448.5,-109.13 448.5,-100.3"/>
<polygon fill="black" stroke="black" stroke-width="2" points="452,-100.14 448.5,-90.14 445,-100.14 452,-100.14"/>
</g>
<!-- CS410 -->
<g id="node24" class="node">
<title>CS410</title>
<polygon fill="none" stroke="blue" stroke-width="2" points="511.5,-446 411.5,-446 411.5,-378 511.5,-378 511.5,-446"/>
<text text-anchor="start" x="434.5" y="-430.2" font-family="Arial" font-weight="bold" font-size="16.00">CS 410</text>
<text text-anchor="start" x="444.5" y="-405.2" font-family="Arial" font-size="16.00">Web</text>
<text text-anchor="start" x="415.5" y="-387.2" font-family="Arial" font-size="16.00">Development</text>
</g>
<!-- CS410&#45;&gt;CS420 -->
<g id="edge25" class="edge">
<title>CS410&#45;&gt;CS420:top_port</title>
<path fill="none" stroke="black" stroke-width="2" stroke-dasharray="5,2" d="M454.59,-377.65C452.44,-365.08 450.46,-350.39 449.76,-336.21"/>
<polygon fill="black" stroke="black" stroke-width="2" points="453.25,-335.91 449.5,-326 446.26,-336.09 453.25,-335.91"/>
<text text-anchor="middle" x="458" y="-348.8" font-family="Arial" font-size="14.00">or</text>
</g>
<!-- CS411&#45;&gt;CS420 -->
<g id="edge26" class="edge">
<title>CS411&#45;&gt;CS420:top_port</title>
<path fill="none" stroke="black" stroke-width="2" stroke-dasharray="5,2" d="M393.71,-381.65C415.75,-367.33 438.45,-350.14 446.47,-335.83"/>
<polygon fill="black" stroke="black" stroke-width="2" points="449.9,-336.59 449.5,-326 443.21,-334.52 449.9,-336.59"/>
</g>
<!-- CS420&#45;&gt;CS495 -->
</g>
</svg>
