<?xml version="1.0" encoding="UTF-8" standalone="no"?>
<!DOCTYPE svg PUBLIC "-//W3C//DTD SVG 1.1//EN"
 "http://www.w3.org/Graphics/SVG/1.1/DTD/svg11.dtd">
<!-- Generated by graphviz version 2.46.0 (20210118.1747)
 -->
<!-- Title: General_CS Pages: 1 -->
<svg width="1413pt" height="1081pt"
 viewBox="0.00 0.00 1412.50 1080.91" xmlns="http://www.w3.org/2000/svg" xmlns:xlink="http://www.w3.org/1999/xlink">
<g id="graph0" class="graph" transform="scale(1 1) rotate(0) translate(4 1076.91)">
<title>General_CS</title>
<polygon fill="white" stroke="transparent" points="-4,4 -4,-1076.91 1408.5,-1076.91 1408.5,4 -4,4"/>
<text text-anchor="middle" x="702.25" y="-1035.31" font-family="Arial" font-size="42.00">Proposed General CS Concentration</text>
<g id="clust5" class="cluster">
<title>cluster_softeng</title>
<polygon fill="none" stroke="black" stroke-width="2" points="434.5,-8 434.5,-235 658.5,-235 658.5,-8 434.5,-8"/>
<text text-anchor="middle" x="546.5" y="-218.2" font-family="Arial" font-size="16.00">Senior Capstone Sequence</text>
</g>
<g id="clust6" class="cluster">
<title>cluster_math</title>
<polygon fill="none" stroke="black" stroke-width="2" points="1068.5,-753.91 1068.5,-1010.91 1396.5,-1010.91 1396.5,-753.91 1068.5,-753.91"/>
<text text-anchor="middle" x="1232.5" y="-994.11" font-family="Arial" font-size="16.00">75% of CS majors do not place into Calculus</text>
</g>
<g id="clust7" class="cluster">
<title>cluster_general_cs</title>
<polygon fill="none" stroke="black" stroke-width="2" points="64.5,-341.91 64.5,-451.91 566.5,-451.91 566.5,-341.91 64.5,-341.91"/>
<text text-anchor="middle" x="315.5" y="-435.11" font-family="Arial" font-size="16.00">Required on Concentration</text>
</g>
<!-- CS120 -->
<g id="node1" class="node">
<title>CS120</title>
<polygon fill="none" stroke="blue" stroke-width="2" points="365.5,-991.91 259.5,-991.91 259.5,-899.91 365.5,-899.91 365.5,-991.91"/>
<text text-anchor="start" x="285.5" y="-976.11" font-family="Arial" font-weight="bold" font-size="16.00">CS 120</text>
<text text-anchor="start" x="278.5" y="-951.11" font-family="Arial" font-size="16.00">Computer</text>
<text text-anchor="start" x="277" y="-933.11" font-family="Arial" font-size="16.00">Science 1</text>
<text text-anchor="start" x="263.5" y="-910.11" font-family="Arial" font-style="italic" font-size="16.00">4 credit hours</text>
</g>
<!-- CS121 -->
<g id="node5" class="node">
<title>CS121</title>
<polygon fill="none" stroke="blue" stroke-width="2" points="432.5,-848.91 326.5,-848.91 326.5,-756.91 432.5,-756.91 432.5,-848.91"/>
<text text-anchor="start" x="352.5" y="-833.11" font-family="Arial" font-weight="bold" font-size="16.00">CS 121</text>
<text text-anchor="start" x="345.5" y="-808.11" font-family="Arial" font-size="16.00">Computer</text>
<text text-anchor="start" x="344" y="-790.11" font-family="Arial" font-size="16.00">Science 2</text>
<text text-anchor="start" x="330.5" y="-767.11" font-family="Arial" font-style="italic" font-size="16.00">4 credit hours</text>
</g>
<!-- CS120&#45;&gt;CS121 -->
<g id="edge1" class="edge">
<title>CS120&#45;&gt;CS121</title>
<path fill="none" stroke="black" stroke-width="2" d="M354.21,-899.56C358.11,-893.88 361.66,-887.94 364.5,-881.91 367.85,-874.81 370.44,-867 372.46,-859.16"/>
<polygon fill="black" stroke="black" stroke-width="2" points="375.91,-859.79 374.72,-849.26 369.09,-858.23 375.91,-859.79"/>
</g>
<!-- CS124 -->
<g id="node6" class="node">
<title>CS124</title>
<polygon fill="none" stroke="blue" stroke-width="2" points="308,-836.91 227,-836.91 227,-768.91 308,-768.91 308,-836.91"/>
<text text-anchor="start" x="241" y="-821.11" font-family="Arial" font-weight="bold" font-size="16.00">CS 124</text>
<text text-anchor="start" x="238" y="-796.11" font-family="Arial" font-size="16.00">Discrete</text>
<text text-anchor="start" x="231.5" y="-778.11" font-family="Arial" font-size="16.00">Structures</text>
</g>
<!-- CS120&#45;&gt;CS124 -->
<g id="edge2" class="edge">
<title>CS120&#45;&gt;CS124</title>
<path fill="none" stroke="black" stroke-width="2" stroke-dasharray="5,2" d="M280.19,-899.79C277.14,-893.98 274.47,-887.95 272.5,-881.91 268.96,-871.05 267.21,-858.89 266.45,-847.46"/>
<polygon fill="black" stroke="black" stroke-width="2" points="269.94,-847.08 266.01,-837.24 262.95,-847.38 269.94,-847.08"/>
<text text-anchor="middle" x="318.5" y="-871.31" font-family="Arial" font-size="12.00"> prereq or parallel</text>
<polyline fill="none" stroke="black" points="364.5,-867.91 272.5,-867.91 277.19,-893.73 "/>
</g>
<!-- HIST150 -->
<g id="node2" class="node">
<title>HIST150</title>
<polygon fill="none" stroke="red" stroke-width="2" points="767,-979.91 674,-979.91 674,-911.91 767,-911.91 767,-979.91"/>
<text text-anchor="start" x="687.5" y="-964.11" font-family="Arial" font-weight="bold" font-size="16.00">HIST 150</text>
<text text-anchor="start" x="678.5" y="-939.11" font-family="Arial" font-size="16.00">The West in</text>
<text text-anchor="start" x="687" y="-921.11" font-family="Arial" font-size="16.00">the World</text>
</g>
<!-- UCCPFW -->
<g id="node3" class="node">
<title>UCCPFW</title>
<polygon fill="none" stroke="red" stroke-width="2" points="979,-977.91 832,-977.91 832,-913.91 979,-913.91 979,-977.91"/>
<text text-anchor="start" x="874" y="-962.11" font-family="Arial" font-weight="bold" font-size="16.00">Physcial</text>
<text text-anchor="start" x="836.5" y="-946.11" font-family="Arial" font-weight="bold" font-size="16.00">Fitness / Wellness</text>
<text text-anchor="start" x="857" y="-924.11" font-family="Arial" font-style="italic" font-size="16.00">2 credit hours</text>
</g>
<!-- ENG103 -->
<g id="node4" class="node">
<title>ENG103</title>
<polygon fill="none" stroke="red" stroke-width="2" points="563,-970.91 426,-970.91 426,-920.91 563,-920.91 563,-970.91"/>
<text text-anchor="start" x="462.5" y="-955.11" font-family="Arial" font-weight="bold" font-size="16.00">ENG 103</text>
<text text-anchor="start" x="430.5" y="-930.11" font-family="Arial" font-size="16.00">Rhetoric &amp; Writing</text>
</g>
<!-- ENG104 -->
<g id="node7" class="node">
<title>ENG104</title>
<polygon fill="none" stroke="red" stroke-width="2" points="538,-843.91 451,-843.91 451,-761.91 538,-761.91 538,-843.91"/>
<text text-anchor="start" x="462.5" y="-828.11" font-family="Arial" font-weight="bold" font-size="16.00">ENG 104</text>
<text text-anchor="start" x="471.5" y="-812.11" font-family="Arial" font-size="16.00">or </text>
<text text-anchor="start" x="490.5" y="-812.11" font-family="Arial" font-weight="bold" font-size="16.00">114</text>
<text text-anchor="start" x="455.5" y="-789.11" font-family="Arial" font-size="16.00">Composing</text>
<text text-anchor="start" x="460.5" y="-771.11" font-family="Arial" font-size="16.00">Research</text>
</g>
<!-- ENG103&#45;&gt;ENG104 -->
<g id="edge9" class="edge">
<title>ENG103&#45;&gt;ENG104</title>
<path fill="none" stroke="black" stroke-width="2" d="M494.5,-920.67C494.5,-902.44 494.5,-876.82 494.5,-854.22"/>
<polygon fill="black" stroke="black" stroke-width="2" points="498,-854.09 494.5,-844.09 491,-854.09 498,-854.09"/>
</g>
<!-- CS222 -->
<g id="node11" class="node">
<title>CS222</title>
<polygon fill="none" stroke="blue" stroke-width="2" points="531.5,-707.91 419.5,-707.91 419.5,-639.91 531.5,-639.91 531.5,-707.91"/>
<text text-anchor="start" x="448.5" y="-692.11" font-family="Arial" font-weight="bold" font-size="16.00">CS 222</text>
<text text-anchor="start" x="440.5" y="-667.11" font-family="Arial" font-size="16.00">Advanced</text>
<text text-anchor="start" x="429.5" y="-649.11" font-family="Arial" font-size="16.00">Programming</text>
</g>
<!-- CS121&#45;&gt;CS222 -->
<g id="edge7" class="edge">
<title>CS121&#45;&gt;CS222:cs222_top</title>
<path fill="none" stroke="black" stroke-width="2" d="M432.55,-761.4C450.07,-746.38 466.68,-729.83 472.91,-716.65"/>
<polygon fill="black" stroke="black" stroke-width="2" points="476.32,-717.48 475.5,-706.91 469.55,-715.68 476.32,-717.48"/>
</g>
<!-- CS224 -->
<g id="node12" class="node">
<title>CS224</title>
<polygon fill="none" stroke="blue" stroke-width="2" points="341,-698.91 248,-698.91 248,-648.91 341,-648.91 341,-698.91"/>
<text text-anchor="start" x="268" y="-683.11" font-family="Arial" font-weight="bold" font-size="16.00">CS 224</text>
<text text-anchor="start" x="258.5" y="-658.11" font-family="Arial" font-size="16.00">Algorithms</text>
</g>
<!-- CS121&#45;&gt;CS224 -->
<g id="edge4" class="edge">
<title>CS121&#45;&gt;CS224:cs224_top</title>
<path fill="none" stroke="black" stroke-width="2" d="M326.3,-761.48C311.98,-746.59 299.52,-728.34 296.31,-708.04"/>
<polygon fill="black" stroke="black" stroke-width="2" points="299.78,-707.6 295.5,-697.91 292.8,-708.16 299.78,-707.6"/>
</g>
<!-- CS230 -->
<g id="node16" class="node">
<title>CS230</title>
<polygon fill="none" stroke="blue" stroke-width="2" points="326,-576.91 215,-576.91 215,-490.91 326,-490.91 326,-576.91"/>
<text text-anchor="start" x="244" y="-561.11" font-family="Arial" font-weight="bold" font-size="16.00">CS 230</text>
<text text-anchor="start" x="237" y="-536.11" font-family="Arial" font-size="16.00">Computer</text>
<text text-anchor="start" x="219.5" y="-518.11" font-family="Arial" font-size="16.00">Organization &amp;</text>
<text text-anchor="start" x="228.5" y="-500.11" font-family="Arial" font-size="16.00">Architecture</text>
</g>
<!-- CS121&#45;&gt;CS230 -->
<g id="edge3" class="edge">
<title>CS121&#45;&gt;CS230</title>
<path fill="none" stroke="black" stroke-width="2" d="M376.71,-756.62C373.34,-723.2 365.9,-677.23 349.5,-639.91 340.98,-620.53 328.26,-601.4 315.49,-584.89"/>
<polygon fill="black" stroke="black" stroke-width="2" points="318.2,-582.66 309.24,-577 312.71,-587.01 318.2,-582.66"/>
</g>
<!-- CS124&#45;&gt;CS222 -->
<g id="edge8" class="edge">
<title>CS124&#45;&gt;CS222:cs222_top</title>
<path fill="none" stroke="black" stroke-width="2" d="M297.62,-768.69C303.79,-763.19 310.53,-757.97 317.5,-753.91 331.23,-745.92 439.96,-730.22 468.61,-714.24"/>
<polygon fill="black" stroke="black" stroke-width="2" points="471.2,-716.59 475.5,-706.91 466.1,-711.8 471.2,-716.59"/>
</g>
<!-- CS124&#45;&gt;CS224 -->
<g id="edge5" class="edge">
<title>CS124&#45;&gt;CS224:cs224_top</title>
<path fill="none" stroke="black" stroke-width="2" d="M281.17,-768.8C287.31,-751.41 293.53,-729.33 295.11,-707.98"/>
<polygon fill="black" stroke="black" stroke-width="2" points="298.61,-708.04 295.5,-697.91 291.62,-707.77 298.61,-708.04"/>
</g>
<!-- CS124&#45;&gt;CS230 -->
<g id="edge6" class="edge">
<title>CS124&#45;&gt;CS230</title>
<path fill="none" stroke="black" stroke-width="2" d="M254.53,-768.54C248.34,-750.83 241.61,-728.51 238.5,-707.91 233.99,-678.03 234.05,-669.8 238.5,-639.91 241.14,-622.19 246.16,-603.31 251.45,-586.53"/>
<polygon fill="black" stroke="black" stroke-width="2" points="254.82,-587.5 254.59,-576.91 248.16,-585.34 254.82,-587.5"/>
</g>
<!-- ENG104&#45;&gt;CS222 -->
<g id="edge10" class="edge">
<title>ENG104&#45;&gt;CS222</title>
<path fill="none" stroke="black" stroke-width="2" stroke-dasharray="5,2" d="M488.49,-761.73C486.41,-747.81 484.06,-732.16 481.95,-718.02"/>
<polygon fill="black" stroke="black" stroke-width="2" points="485.4,-717.4 480.45,-708.03 478.47,-718.44 485.4,-717.4"/>
<text text-anchor="middle" x="531.5" y="-729.31" font-family="Arial" font-size="12.00"> prereq or parallel</text>
<polyline fill="none" stroke="black" points="577.5,-725.91 485.5,-725.91 485.13,-739.26 "/>
</g>
<!-- UCCT1NS -->
<g id="node8" class="node">
<title>UCCT1NS</title>
<polygon fill="none" stroke="red" stroke-width="2" points="828.5,-846.91 702.5,-846.91 702.5,-758.91 828.5,-758.91 828.5,-846.91"/>
<text text-anchor="start" x="744" y="-831.11" font-family="Arial" font-weight="bold" font-size="16.00">Tier 1</text>
<text text-anchor="start" x="706.5" y="-815.11" font-family="Arial" font-weight="bold" font-size="16.00">Natural Science</text>
<text text-anchor="start" x="707.5" y="-793.11" font-family="Arial" font-style="italic" font-size="16.00">CS Lab Science</text>
<text text-anchor="start" x="707.5" y="-769.11" font-family="Arial" font-style="italic" font-size="16.00">3–5 credit hours</text>
</g>
<!-- UCCT2NSS -->
<g id="node19" class="node">
<title>UCCT2NSS</title>
<polygon fill="none" stroke="red" stroke-width="2" points="862,-561.91 731,-561.91 731,-505.91 862,-505.91 862,-561.91"/>
<text text-anchor="start" x="775.5" y="-546.11" font-family="Arial" font-weight="bold" font-size="16.00">Tier 2</text>
<text text-anchor="start" x="760" y="-530.11" font-family="Arial" font-weight="bold" font-size="16.00">Natural or</text>
<text text-anchor="start" x="741.5" y="-514.11" font-family="Arial" font-weight="bold" font-size="16.00">Social Science</text>
</g>
<!-- UCCT1NS&#45;&gt;UCCT2NSS -->
<g id="edge13" class="edge">
<title>UCCT1NS&#45;&gt;UCCT2NSS:ucct2nss_top</title>
<path fill="none" stroke="black" stroke-width="2" stroke-dasharray="1,5" d="M770,-758.87C773.55,-726.18 778.83,-680.15 784.5,-639.91 788.96,-608.25 795.9,-598.44 797.26,-570.96"/>
<polygon fill="black" stroke="black" stroke-width="2" points="800.76,-570.99 797.5,-560.91 793.77,-570.83 800.76,-570.99"/>
</g>
<!-- UCCPFIN -->
<g id="node9" class="node">
<title>UCCPFIN</title>
<polygon fill="none" stroke="red" stroke-width="2" points="944.5,-834.91 846.5,-834.91 846.5,-770.91 944.5,-770.91 944.5,-834.91"/>
<text text-anchor="start" x="862" y="-819.11" font-family="Arial" font-weight="bold" font-size="16.00">Personal</text>
<text text-anchor="start" x="865" y="-803.11" font-family="Arial" font-weight="bold" font-size="16.00">Finance</text>
<text text-anchor="start" x="850.5" y="-781.11" font-family="Arial" font-style="italic" font-size="16.00">1 credit hour</text>
</g>
<!-- MATH181 -->
<g id="node10" class="node">
<title>MATH181</title>
<polygon fill="none" stroke="blue" stroke-width="2" points="1060,-845.91 963,-845.91 963,-759.91 1060,-759.91 1060,-845.91"/>
<text text-anchor="start" x="974" y="-830.11" font-family="Arial" font-weight="bold" font-size="16.00">MATH 181</text>
<text text-anchor="start" x="972.5" y="-805.11" font-family="Arial" font-size="16.00">Elementary</text>
<text text-anchor="start" x="967.5" y="-787.11" font-family="Arial" font-size="16.00">Probability &amp;</text>
<text text-anchor="start" x="979" y="-769.11" font-family="Arial" font-size="16.00">Statistics</text>
</g>
<!-- CS239 -->
<g id="node17" class="node">
<title>CS239</title>
<polygon fill="none" stroke="blue" stroke-width="2" points="712.5,-588.91 614.5,-588.91 614.5,-478.91 712.5,-478.91 712.5,-588.91"/>
<text text-anchor="start" x="636.5" y="-573.11" font-family="Arial" font-weight="bold" font-size="16.00">CS 239</text>
<text text-anchor="start" x="634" y="-548.11" font-family="Arial" font-size="16.00">Social &amp;</text>
<text text-anchor="start" x="619.5" y="-530.11" font-family="Arial" font-size="16.00">Professional</text>
<text text-anchor="start" x="640" y="-512.11" font-family="Arial" font-size="16.00">Issues</text>
<text text-anchor="start" x="618.5" y="-489.11" font-family="Arial" font-style="italic" font-size="16.00">1 credit hour</text>
</g>
<!-- CS222&#45;&gt;CS239 -->
<g id="edge15" class="edge">
<title>CS222&#45;&gt;CS239</title>
<path fill="none" stroke="black" stroke-width="2" d="M531.62,-657.5C554.53,-649.38 580.32,-637.76 600.5,-621.91 609.46,-614.87 617.73,-606.24 625.14,-597.17"/>
<polygon fill="black" stroke="black" stroke-width="2" points="628.02,-599.16 631.41,-589.12 622.5,-594.86 628.02,-599.16"/>
</g>
<!-- CS495 -->
<g id="node22" class="node">
<title>CS495</title>
<polygon fill="none" stroke="blue" stroke-width="2" points="632.5,-201 460.5,-201 460.5,-127 632.5,-127 632.5,-201"/>
<text text-anchor="start" x="519.5" y="-185.2" font-family="Arial" font-weight="bold" font-size="16.00">CS 495</text>
<text text-anchor="start" x="464.5" y="-160.2" font-family="Arial" font-size="16.00">Software Engineering 1</text>
<text text-anchor="start" x="485.5" y="-137.2" font-family="Arial" font-style="italic" font-size="16.00">BSU Core: Tier 3</text>
</g>
<!-- CS222&#45;&gt;CS495 -->
<g id="edge16" class="edge">
<title>CS222&#45;&gt;CS495</title>
<path fill="none" stroke="black" stroke-width="2" d="M523.54,-639.83C553.54,-614.93 586.5,-577.8 586.5,-534.91 586.5,-534.91 586.5,-534.91 586.5,-286.46 586.5,-260.43 578.11,-232.76 569.01,-210.42"/>
<polygon fill="black" stroke="black" stroke-width="2" points="572.23,-209.03 565.09,-201.19 565.78,-211.77 572.23,-209.03"/>
</g>
<!-- CS418 -->
<g id="node29" class="node">
<title>CS418</title>
<polygon fill="none" stroke="blue" stroke-width="2" points="558,-417.91 481,-417.91 481,-349.91 558,-349.91 558,-417.91"/>
<text text-anchor="start" x="493" y="-402.11" font-family="Arial" font-weight="bold" font-size="16.00">CS 418</text>
<text text-anchor="start" x="485.5" y="-377.11" font-family="Arial" font-size="16.00">Database</text>
<text text-anchor="start" x="495.5" y="-359.11" font-family="Arial" font-size="16.00">Design</text>
</g>
<!-- CS222&#45;&gt;CS418 -->
<g id="edge27" class="edge">
<title>CS222&#45;&gt;CS418</title>
<path fill="none" stroke="black" stroke-width="2" d="M450.24,-639.67C447.06,-634.01 444.29,-627.98 442.5,-621.91 440.61,-615.52 441.39,-613.49 442.5,-606.91 453.39,-542.26 480.95,-471.3 499.96,-427.42"/>
<polygon fill="black" stroke="black" stroke-width="2" points="503.19,-428.78 504,-418.21 496.78,-425.97 503.19,-428.78"/>
</g>
<!-- CS419 -->
<g id="node30" class="node">
<title>CS419</title>
<polygon fill="none" stroke="blue" stroke-width="2" points="250,-417.91 173,-417.91 173,-349.91 250,-349.91 250,-417.91"/>
<text text-anchor="start" x="185" y="-402.11" font-family="Arial" font-weight="bold" font-size="16.00">CS 419</text>
<text text-anchor="start" x="177.5" y="-377.11" font-family="Arial" font-size="16.00">Operating</text>
<text text-anchor="start" x="181.5" y="-359.11" font-family="Arial" font-size="16.00">Systems</text>
</g>
<!-- CS222&#45;&gt;CS419 -->
<g id="edge28" class="edge">
<title>CS222&#45;&gt;CS419</title>
<path fill="none" stroke="black" stroke-width="2" d="M460.87,-639.83C455.59,-629.03 449.26,-617.18 442.5,-606.91 401.57,-544.74 395.61,-521.41 334.5,-478.91 305.42,-458.68 287.76,-473.28 259.5,-451.91 250.41,-445.04 242.33,-435.96 235.52,-426.71"/>
<polygon fill="black" stroke="black" stroke-width="2" points="238.2,-424.44 229.62,-418.23 232.45,-428.44 238.2,-424.44"/>
</g>
<!-- CS431 -->
<g id="node31" class="node">
<title>CS431</title>
<polygon fill="none" stroke="blue" stroke-width="2" points="462.5,-417.91 362.5,-417.91 362.5,-349.91 462.5,-349.91 462.5,-417.91"/>
<text text-anchor="start" x="385.5" y="-402.11" font-family="Arial" font-weight="bold" font-size="16.00">CS 431</text>
<text text-anchor="start" x="366.5" y="-377.11" font-family="Arial" font-size="16.00">Programming</text>
<text text-anchor="start" x="373.5" y="-359.11" font-family="Arial" font-size="16.00">Languages</text>
</g>
<!-- CS222&#45;&gt;CS431 -->
<g id="edge31" class="edge">
<title>CS222&#45;&gt;CS431</title>
<path fill="none" stroke="black" stroke-width="2" d="M480.96,-639.65C486.62,-596.73 491.95,-520.4 470.5,-459.91 466.24,-447.92 459.27,-436.32 451.6,-425.99"/>
<polygon fill="black" stroke="black" stroke-width="2" points="454.26,-423.7 445.35,-417.98 448.75,-428.02 454.26,-423.7"/>
</g>
<!-- CS380 -->
<g id="node27" class="node">
<title>CS380</title>
<polygon fill="none" stroke="blue" stroke-width="2" points="154.5,-417.91 72.5,-417.91 72.5,-349.91 154.5,-349.91 154.5,-417.91"/>
<text text-anchor="start" x="86.5" y="-402.11" font-family="Arial" font-weight="bold" font-size="16.00">CS 380</text>
<text text-anchor="start" x="80" y="-377.11" font-family="Arial" font-size="16.00">Theory of</text>
<text text-anchor="start" x="76.5" y="-359.11" font-family="Arial" font-size="16.00">Computing</text>
</g>
<!-- CS224&#45;&gt;CS380 -->
<g id="edge25" class="edge">
<title>CS224&#45;&gt;CS380</title>
<path fill="none" stroke="black" stroke-width="2" d="M263.11,-648.6C244.58,-633.05 221.65,-611.58 205.5,-588.91 169.32,-538.12 142.34,-470.83 127.25,-427.7"/>
<polygon fill="black" stroke="black" stroke-width="2" points="130.51,-426.39 123.94,-418.08 123.89,-428.67 130.51,-426.39"/>
</g>
<!-- CS416 -->
<g id="node28" class="node">
<title>CS416</title>
<polygon fill="none" stroke="blue" stroke-width="2" points="344.5,-417.91 268.5,-417.91 268.5,-349.91 344.5,-349.91 344.5,-417.91"/>
<text text-anchor="start" x="279.5" y="-402.11" font-family="Arial" font-weight="bold" font-size="16.00">CS 416</text>
<text text-anchor="start" x="272.5" y="-377.11" font-family="Arial" font-size="16.00">Computer</text>
<text text-anchor="start" x="273.5" y="-359.11" font-family="Arial" font-size="16.00">Networks</text>
</g>
<!-- CS224&#45;&gt;CS416 -->
<g id="edge26" class="edge">
<title>CS224&#45;&gt;CS416</title>
<path fill="none" stroke="black" stroke-width="2" d="M309.64,-648.61C318.83,-632.38 329.69,-610.18 334.5,-588.91 345.27,-541.22 341.55,-527.29 334.5,-478.91 332.02,-461.89 327.13,-443.66 322.13,-427.83"/>
<polygon fill="black" stroke="black" stroke-width="2" points="325.45,-426.73 319.02,-418.32 318.8,-428.91 325.45,-426.73"/>
</g>
<!-- UCCT1SS -->
<g id="node13" class="node">
<title>UCCT1SS</title>
<polygon fill="none" stroke="red" stroke-width="2" points="863,-701.91 794,-701.91 794,-645.91 863,-645.91 863,-701.91"/>
<text text-anchor="start" x="807.5" y="-686.11" font-family="Arial" font-weight="bold" font-size="16.00">Tier 1</text>
<text text-anchor="start" x="806" y="-670.11" font-family="Arial" font-weight="bold" font-size="16.00">Social</text>
<text text-anchor="start" x="798.5" y="-654.11" font-family="Arial" font-weight="bold" font-size="16.00">Science</text>
</g>
<!-- UCCT1SS&#45;&gt;UCCT2NSS -->
<g id="edge14" class="edge">
<title>UCCT1SS&#45;&gt;UCCT2NSS:ucct2nss_top</title>
<path fill="none" stroke="black" stroke-width="2" stroke-dasharray="1,5" d="M816.6,-645.87C808.85,-626.07 799.83,-598.06 797.88,-571.15"/>
<polygon fill="black" stroke="black" stroke-width="2" points="801.37,-570.77 797.5,-560.91 794.37,-571.04 801.37,-570.77"/>
<text text-anchor="middle" x="819" y="-610.71" font-family="Arial" font-size="14.00"> &#160;or</text>
<polyline fill="none" stroke="black" points="829.5,-606.91 808.5,-606.91 806.91,-617.71 "/>
</g>
<!-- UCCT1HU -->
<g id="node14" class="node">
<title>UCCT1HU</title>
<polygon fill="none" stroke="red" stroke-width="2" points="974,-693.91 881,-693.91 881,-653.91 974,-653.91 974,-693.91"/>
<text text-anchor="start" x="906.5" y="-678.11" font-family="Arial" font-weight="bold" font-size="16.00">Tier 1</text>
<text text-anchor="start" x="885.5" y="-662.11" font-family="Arial" font-weight="bold" font-size="16.00">Humanities</text>
</g>
<!-- UCCT2FDH -->
<g id="node21" class="node">
<title>UCCT2FDH</title>
<polygon fill="none" stroke="red" stroke-width="2" points="1086.5,-561.91 904.5,-561.91 904.5,-505.91 1086.5,-505.91 1086.5,-561.91"/>
<text text-anchor="start" x="974" y="-546.11" font-family="Arial" font-weight="bold" font-size="16.00">Tier 2</text>
<text text-anchor="start" x="951" y="-530.11" font-family="Arial" font-weight="bold" font-size="16.00">Fine Arts or</text>
<text text-anchor="start" x="914.5" y="-514.11" font-family="Arial" font-weight="bold" font-size="16.00">Design or Humanities</text>
</g>
<!-- UCCT1HU&#45;&gt;UCCT2FDH -->
<g id="edge12" class="edge">
<title>UCCT1HU&#45;&gt;UCCT2FDH:ucct2fdh_top</title>
<path fill="none" stroke="black" stroke-width="2" stroke-dasharray="1,5" d="M948.27,-653.61C966.39,-634.77 990.46,-604.21 994.81,-571.22"/>
<polygon fill="black" stroke="black" stroke-width="2" points="998.32,-571.12 995.5,-560.91 991.34,-570.66 998.32,-571.12"/>
</g>
<!-- UCCT1FA -->
<g id="node15" class="node">
<title>UCCT1FA</title>
<polygon fill="none" stroke="red" stroke-width="2" points="1046.5,-701.91 992.5,-701.91 992.5,-645.91 1046.5,-645.91 1046.5,-701.91"/>
<text text-anchor="start" x="998.5" y="-686.11" font-family="Arial" font-weight="bold" font-size="16.00">Tier 1</text>
<text text-anchor="start" x="1003.5" y="-670.11" font-family="Arial" font-weight="bold" font-size="16.00">Fine</text>
<text text-anchor="start" x="1004" y="-654.11" font-family="Arial" font-weight="bold" font-size="16.00">Arts</text>
</g>
<!-- UCCT1FA&#45;&gt;UCCT2FDH -->
<g id="edge11" class="edge">
<title>UCCT1FA&#45;&gt;UCCT2FDH:ucct2fdh_top</title>
<path fill="none" stroke="black" stroke-width="2" stroke-dasharray="1,5" d="M1010.29,-645.64C1004.29,-625.72 997.3,-597.65 995.8,-571.02"/>
<polygon fill="black" stroke="black" stroke-width="2" points="999.29,-570.81 995.5,-560.91 992.29,-571.01 999.29,-570.81"/>
<text text-anchor="middle" x="1013" y="-610.71" font-family="Arial" font-size="14.00"> &#160;or</text>
<polyline fill="none" stroke="black" points="1023.5,-606.91 1002.5,-606.91 1002.65,-616.8 "/>
</g>
<!-- CS230&#45;&gt;CS380 -->
<!-- CS230&#45;&gt;CS416 -->
<!-- CS230&#45;&gt;CS418 -->
<!-- CS230&#45;&gt;CS419 -->
<g id="edge29" class="edge">
<title>CS230&#45;&gt;CS419</title>
<path fill="none" stroke="black" stroke-width="2" d="M253.75,-490.9C245.85,-471.07 236.43,-447.44 228.49,-427.54"/>
<polygon fill="black" stroke="black" stroke-width="2" points="231.68,-426.09 224.73,-418.1 225.18,-428.68 231.68,-426.09"/>
</g>
<!-- CS230&#45;&gt;CS431 -->
<g id="edge30" class="edge">
<title>CS230&#45;&gt;CS431</title>
<path fill="none" stroke="black" stroke-width="2" d="M288.07,-490.71C294.77,-479.16 303.5,-467.68 314.5,-459.91 328.95,-449.7 338.19,-460.79 353.5,-451.91 364.82,-445.35 375.09,-435.82 383.77,-426.01"/>
<polygon fill="black" stroke="black" stroke-width="2" points="386.64,-428.04 390.38,-418.13 381.28,-423.54 386.64,-428.04"/>
</g>
<!-- CS239&#45;&gt;CS495 -->
<!-- COMM210 -->
<g id="node18" class="node">
<title>COMM210</title>
<polygon fill="none" stroke="red" stroke-width="2" points="89,-567.91 0,-567.91 0,-499.91 89,-499.91 89,-567.91"/>
<text text-anchor="start" x="4.5" y="-552.11" font-family="Arial" font-weight="bold" font-size="16.00">COMM 210</text>
<text text-anchor="start" x="23.5" y="-527.11" font-family="Arial" font-size="16.00">Public</text>
<text text-anchor="start" x="12.5" y="-509.11" font-family="Arial" font-size="16.00">Speaking</text>
</g>
<!-- COMM210&#45;&gt;CS495 -->
<g id="edge19" class="edge">
<title>COMM210&#45;&gt;CS495</title>
<path fill="none" stroke="black" stroke-width="2" d="M37.37,-499.76C30.5,-458.38 25.64,-387.52 60.5,-341.91 153.26,-220.55 337.35,-182.36 450.42,-170.4"/>
<polygon fill="black" stroke="black" stroke-width="2" points="450.87,-173.87 460.46,-169.38 450.16,-166.91 450.87,-173.87"/>
</g>
<!-- Permission -->
<g id="node20" class="node">
<title>Permission</title>
<ellipse fill="none" stroke="blue" stroke-width="2" cx="427.5" cy="-287.46" rx="58.88" ry="25.41"/>
<text text-anchor="middle" x="427.5" y="-292.66" font-family="Arial" font-size="16.00">Permission:</text>
<text text-anchor="middle" x="427.5" y="-274.66" font-family="Arial" font-size="16.00">Final Year</text>
</g>
<!-- Permission&#45;&gt;CS495 -->
<g id="edge18" class="edge">
<title>Permission&#45;&gt;CS495</title>
<path fill="none" stroke="black" stroke-width="2" d="M449.88,-263.61C465.1,-248.08 485.71,-227.05 503.98,-208.4"/>
<polygon fill="black" stroke="black" stroke-width="2" points="506.62,-210.7 511.12,-201.11 501.62,-205.81 506.62,-210.7"/>
</g>
<!-- CS498 -->
<g id="node23" class="node">
<title>CS498</title>
<polygon fill="none" stroke="blue" stroke-width="2" points="650,-90 443,-90 443,-16 650,-16 650,-90"/>
<text text-anchor="start" x="520" y="-74.2" font-family="Arial" font-weight="bold" font-size="16.00">CS 498</text>
<text text-anchor="start" x="465" y="-49.2" font-family="Arial" font-size="16.00">Software Engineering 2</text>
<text text-anchor="start" x="447.5" y="-26.2" font-family="Arial" font-style="italic" font-size="16.00">BSU Core: Writing Intensive</text>
</g>
<!-- CS495&#45;&gt;CS498 -->
<g id="edge20" class="edge">
<title>CS495&#45;&gt;CS498</title>
<path fill="none" stroke="black" stroke-width="2" d="M546.5,-126.7C546.5,-118.25 546.5,-109.13 546.5,-100.3"/>
<polygon fill="black" stroke="black" stroke-width="2" points="550,-100.14 546.5,-90.14 543,-100.14 550,-100.14"/>
</g>
<!-- MATH_PLACEMENT -->
<g id="node24" class="node">
<title>MATH_PLACEMENT</title>
<polygon fill="none" stroke="black" stroke-width="2" points="1342,-976.91 1239,-976.91 1239,-914.91 1342,-914.91 1342,-976.91"/>
<text text-anchor="start" x="1243.5" y="-960.11" font-family="Arial" font-size="16.00">Placement by</text>
<text text-anchor="start" x="1254.5" y="-942.11" font-family="Arial" font-size="16.00">SAT, ACT,</text>
<text text-anchor="start" x="1256" y="-924.11" font-family="Arial" font-size="16.00">or ALEKS</text>
</g>
<!-- MATH161 -->
<g id="node26" class="node">
<title>MATH161</title>
<polygon fill="none" stroke="red" stroke-width="2" points="1289.5,-843.91 1173.5,-843.91 1173.5,-761.91 1289.5,-761.91 1289.5,-843.91"/>
<text text-anchor="start" x="1183.5" y="-828.11" font-family="Arial" font-weight="bold" font-size="16.00">MATH 161</text>
<text text-anchor="start" x="1259.5" y="-828.11" font-family="Arial" font-style="italic" font-size="16.00">(3)</text>
<text text-anchor="start" x="1193.5" y="-812.11" font-family="Arial" font-size="16.00">or </text>
<text text-anchor="start" x="1212.5" y="-812.11" font-family="Arial" font-weight="bold" font-size="16.00">165 </text>
<text text-anchor="start" x="1244.5" y="-812.11" font-family="Arial" font-style="italic" font-size="16.00"> (4)</text>
<text text-anchor="start" x="1201" y="-789.11" font-family="Arial" font-size="16.00">(Applied)</text>
<text text-anchor="start" x="1195" y="-771.11" font-family="Arial" font-size="16.00">Calculus 1</text>
</g>
<!-- MATH_PLACEMENT&#45;&gt;MATH161 -->
<g id="edge33" class="edge">
<title>MATH_PLACEMENT&#45;&gt;MATH161:math161_top</title>
<path fill="none" stroke="black" stroke-width="2" stroke-dasharray="1,5" d="M1262.04,-914.87C1248.84,-898.18 1235.36,-876.12 1232.19,-852.92"/>
<polygon fill="black" stroke="black" stroke-width="2" points="1235.68,-852.65 1231.5,-842.91 1228.7,-853.13 1235.68,-852.65"/>
</g>
<!-- MATH114 -->
<g id="node25" class="node">
<title>MATH114</title>
<polygon fill="none" stroke="black" stroke-width="2" points="1220.5,-965.91 1122.5,-965.91 1122.5,-925.91 1220.5,-925.91 1220.5,-965.91"/>
<text text-anchor="start" x="1133.5" y="-950.11" font-family="Arial" font-weight="bold" font-size="16.00">MATH 114</text>
<text text-anchor="start" x="1126.5" y="-934.11" font-family="Arial" font-size="16.00">Pre&#45;Calculus</text>
</g>
<!-- MATH114&#45;&gt;MATH161 -->
<g id="edge32" class="edge">
<title>MATH114&#45;&gt;MATH161:math161_top</title>
<path fill="none" stroke="black" stroke-width="2" stroke-dasharray="1,5" d="M1179.37,-925.89C1186.48,-909.62 1197.76,-885.89 1210.5,-866.91 1215.93,-858.82 1223.82,-857.21 1228.22,-852.39"/>
<polygon fill="black" stroke="black" stroke-width="2" points="1231.54,-853.51 1231.5,-842.91 1224.92,-851.22 1231.54,-853.51"/>
<text text-anchor="middle" x="1221" y="-870.71" font-family="Arial" font-size="14.00"> &#160;or</text>
<polyline fill="none" stroke="black" points="1231.5,-866.91 1210.5,-866.91 1210.63,-866.72 "/>
</g>
<!-- CS419&#45;&gt;Permission -->
</g>
</svg>
